  0
SECTION
  2
HEADER
  9
$ACADVER
  1
AC1014
  9
$HANDSEED
  5
FFFF
  9
$MEASUREMENT
 70
     1
  0
ENDSEC
  0
SECTION
  2
TABLES
  0
TABLE
  2
VPORT
  5
8
330
0
100
AcDbSymbolTable
 70
     4
  0
VPORT
  5
2E
330
8
100
AcDbSymbolTableRecord
100
AcDbViewportTableRecord
  2
*ACTIVE
 70
     0
 10
0.0
 20
0.0
 11
1.0
 21
1.0
 12
210.0
 22
148.5
 13
0.0
 23
0.0
 14
10.0
 24
10.0
 15
10.0
 25
10.0
 16
0.0
 26
0.0
 36
1.0
 17
0.0
 27
0.0
 37
0.0
 40
341.0
 41
1.24
 42
50.0
 43
0.0
 44
0.0
 50
0.0
 51
0.0
 71
     0
 72
   100
 73
     1
 74
     3
 75
     0
 76
     0
 77
     0
 78
     0
  0
ENDTAB
  0
TABLE
  2
LTYPE
  5
5
330
0
100
AcDbSymbolTable
 70
     1
  0
LTYPE
  5
14
330
5
100
AcDbSymbolTableRecord
100
AcDbLinetypeTableRecord
  2
BYBLOCK
 70
     0
  3

 72
    65
 73
     0
 40
0.0
  0
LTYPE
  5
15
330
5
100
AcDbSymbolTableRecord
100
AcDbLinetypeTableRecord
  2
BYLAYER
 70
     0
  3

 72
    65
 73
     0
 40
0.0
  0
LTYPE
  5
16
330
5
100
AcDbSymbolTableRecord
100
AcDbLinetypeTableRecord
  2
CONTINUOUS
 70
     0
  3
Solid line
 72
    65
 73
     0
 40
0.0
  0
ENDTAB
  0
TABLE
  2
LAYER
  5
2
100
AcDbSymbolTable
 70
6
  0
LAYER
  5
50
100
AcDbSymbolTableRecord
100
AcDbLayerTableRecord
  2
0
 70
0
  6
CONTINUOUS
  0
LAYER
  5
51
100
AcDbSymbolTableRecord
100
AcDbLayerTableRecord
  2
Base
 70
0
  6
CONTINUOUS
  0
LAYER
  5
52
100
AcDbSymbolTableRecord
100
AcDbLayerTableRecord
  2
Logo
 70
0
  6
CONTINUOUS
  0
LAYER
  5
53
100
AcDbSymbolTableRecord
100
AcDbLayerTableRecord
  2
Arduino_1
 70
0
  6
CONTINUOUS
  0
LAYER
  5
54
100
AcDbSymbolTableRecord
100
AcDbLayerTableRecord
  2
HalfBreadBoard
 70
0
  6
CONTINUOUS
  0
LAYER
  5
55
100
AcDbSymbolTableRecord
100
AcDbLayerTableRecord
  2
LCD
 70
0
  6
CONTINUOUS
  0
ENDTAB
  0
TABLE
  2
STYLE
  5
3
330
0
100
AcDbSymbolTable
 70
     1
  0
STYLE
  5
11
330
3
100
AcDbSymbolTableRecord
100
AcDbTextStyleTableRecord
  2
STANDARD
 70
     0
 40
0.0
 41
1.0
 50
0.0
 71
     0
 42
2.5
  3
txt
  4

  0
ENDTAB
  0
TABLE
  2
VIEW
  5
6
330
0
100
AcDbSymbolTable
 70
     0
  0
ENDTAB
  0
TABLE
  2
UCS
  5
7
330
0
100
AcDbSymbolTable
 70
     0
  0
ENDTAB
  0
TABLE
  2
APPID
  5
9
330
0
100
AcDbSymbolTable
 70
     2
  0
APPID
  5
12
330
9
100
AcDbSymbolTableRecord
100
AcDbRegAppTableRecord
  2
ACAD
 70
     0
  0
ENDTAB
  0
TABLE
  2
DIMSTYLE
  5
A
330
0
100
AcDbSymbolTable
 70
     1
  0
DIMSTYLE
105
27
330
A
100
AcDbSymbolTableRecord
100
AcDbDimStyleTableRecord
  2
ISO-25
 70
     0
  3

  4

  5

  6

  7

 40
1.0
 41
2.5
 42
0.625
 43
3.75
 44
1.25
 45
0.0
 46
0.0
 47
0.0
 48
0.0
140
2.5
141
2.5
142
0.0
143
0.03937007874016
144
1.0
145
0.0
146
1.0
147
0.625
 71
     0
 72
     0
 73
     0
 74
     0
 75
     0
 76
     0
 77
     1
 78
     8
170
     0
171
     3
172
     1
173
     0
174
     0
175
     0
176
     0
177
     0
178
     0
270
     2
271
     2
272
     2
273
     2
274
     3
340
11
275
     0
280
     0
281
     0
282
     0
283
     0
284
     8
285
     0
286
     0
287
     3
288
     0
  0
ENDTAB
  0
TABLE
  2
BLOCK_RECORD
  5
1
330
0
100
AcDbSymbolTable
 70
     1
  0
BLOCK_RECORD
  5
1F
330
1
100
AcDbSymbolTableRecord
100
AcDbBlockTableRecord
  2
*MODEL_SPACE
  0
BLOCK_RECORD
  5
1B
330
1
100
AcDbSymbolTableRecord
100
AcDbBlockTableRecord
  2
*PAPER_SPACE
  0
ENDTAB
  0
ENDSEC
  0
SECTION
  2
BLOCKS
  0
BLOCK
  5
20
330
1F
100
AcDbEntity
  8
0
100
AcDbBlockBegin
  2
*MODEL_SPACE
 70
     0
 10
0.0
 20
0.0
 30
0.0
  3
*MODEL_SPACE
  1

  0
ENDBLK
  5
21
330
1F
100
AcDbEntity
  8
0
100
AcDbBlockEnd
  0
BLOCK
  5
1C
330
1B
100
AcDbEntity
 67
     1
  8
0
100
AcDbBlockBegin
  2
*PAPER_SPACE
  1

  0
ENDBLK
  5
1D
330
1B
100
AcDbEntity
 67
     1
  8
0
100
AcDbBlockEnd
  0
ENDSEC
  0
SECTION
  2
ENTITIES
  0
LINE
  5
100
100
AcDbEntity
  8
Base
 62
7
100
AcDbLine
 10
0.054126
 20
296.945874
 30
0.0
 11
149.945860
 21
296.945874
 31
0.0
  0
LINE
  5
101
100
AcDbEntity
  8
Base
 62
7
100
AcDbLine
 10
149.945860
 20
296.945874
 30
0.0
 11
149.945860
 21
147.054120
 31
0.0
  0
LINE
  5
102
100
AcDbEntity
  8
Base
 62
7
100
AcDbLine
 10
149.945860
 20
147.054120
 30
0.0
 11
0.054126
 21
147.054120
 31
0.0
  0
LINE
  5
103
100
AcDbEntity
  8
Base
 62
7
100
AcDbLine
 10
0.054126
 20
147.054120
 30
0.0
 11
0.054126
 21
296.945874
 31
0.0
  0
SPLINE
  5
104
100
AcDbEntity
  8
Base
 62
7
100
AcDbSpline
 70
8
 71
3
 72
8
 73
4
 74
0
 40
0
 40
0
 40
0
 40
0
 40
1
 40
1
 40
1
 40
1
 10
4.068490
 20
294.450000
 30
0.0
 10
4.068490
 20
293.611361
 30
0.0
 10
3.388639
 20
292.931510
 30
0.0
 10
2.550000
 20
292.931510
 30
0.0
  0
SPLINE
  5
105
100
AcDbEntity
  8
Base
 62
7
100
AcDbSpline
 70
8
 71
3
 72
8
 73
4
 74
0
 40
0
 40
0
 40
0
 40
0
 40
1
 40
1
 40
1
 40
1
 10
2.550000
 20
292.931510
 30
0.0
 10
2.147271
 20
292.931510
 30
0.0
 10
1.761037
 20
293.091493
 30
0.0
 10
1.476265
 20
293.376265
 30
0.0
  0
SPLINE
  5
106
100
AcDbEntity
  8
Base
 62
7
100
AcDbSpline
 70
8
 71
3
 72
8
 73
4
 74
0
 40
0
 40
0
 40
0
 40
0
 40
1
 40
1
 40
1
 40
1
 10
1.476265
 20
293.376265
 30
0.0
 10
1.191493
 20
293.661037
 30
0.0
 10
1.031510
 20
294.047271
 30
0.0
 10
1.031510
 20
294.450000
 30
0.0
  0
SPLINE
  5
107
100
AcDbEntity
  8
Base
 62
7
100
AcDbSpline
 70
8
 71
3
 72
8
 73
4
 74
0
 40
0
 40
0
 40
0
 40
0
 40
1
 40
1
 40
1
 40
1
 10
1.031510
 20
294.450000
 30
0.0
 10
1.031510
 20
294.852729
 30
0.0
 10
1.191493
 20
295.238963
 30
0.0
 10
1.476265
 20
295.523735
 30
0.0
  0
SPLINE
  5
108
100
AcDbEntity
  8
Base
 62
7
100
AcDbSpline
 70
8
 71
3
 72
8
 73
4
 74
0
 40
0
 40
0
 40
0
 40
0
 40
1
 40
1
 40
1
 40
1
 10
1.476265
 20
295.523735
 30
0.0
 10
1.761037
 20
295.808507
 30
0.0
 10
2.147271
 20
295.968490
 30
0.0
 10
2.550000
 20
295.968490
 30
0.0
  0
SPLINE
  5
109
100
AcDbEntity
  8
Base
 62
7
100
AcDbSpline
 70
8
 71
3
 72
8
 73
4
 74
0
 40
0
 40
0
 40
0
 40
0
 40
1
 40
1
 40
1
 40
1
 10
2.550000
 20
295.968490
 30
0.0
 10
2.952729
 20
295.968490
 30
0.0
 10
3.338963
 20
295.808507
 30
0.0
 10
3.623735
 20
295.523735
 30
0.0
  0
SPLINE
  5
10a
100
AcDbEntity
  8
Base
 62
7
100
AcDbSpline
 70
8
 71
3
 72
8
 73
4
 74
0
 40
0
 40
0
 40
0
 40
0
 40
1
 40
1
 40
1
 40
1
 10
3.623735
 20
295.523735
 30
0.0
 10
3.908507
 20
295.238963
 30
0.0
 10
4.068490
 20
294.852729
 30
0.0
 10
4.068490
 20
294.450000
 30
0.0
  0
LINE
  5
10b
100
AcDbEntity
  8
Base
 62
7
100
AcDbLine
 10
4.068490
 20
294.450000
 30
0.0
 11
4.068490
 21
294.450000
 31
0.0
  0
SPLINE
  5
10c
100
AcDbEntity
  8
Base
 62
7
100
AcDbSpline
 70
8
 71
3
 72
8
 73
4
 74
0
 40
0
 40
0
 40
0
 40
0
 40
1
 40
1
 40
1
 40
1
 10
149.068490
 20
294.450000
 30
0.0
 10
149.068490
 20
293.611361
 30
0.0
 10
148.388639
 20
292.931510
 30
0.0
 10
147.550000
 20
292.931510
 30
0.0
  0
SPLINE
  5
10d
100
AcDbEntity
  8
Base
 62
7
100
AcDbSpline
 70
8
 71
3
 72
8
 73
4
 74
0
 40
0
 40
0
 40
0
 40
0
 40
1
 40
1
 40
1
 40
1
 10
147.550000
 20
292.931510
 30
0.0
 10
146.711361
 20
292.931510
 30
0.0
 10
146.031510
 20
293.611361
 30
0.0
 10
146.031510
 20
294.450000
 30
0.0
  0
SPLINE
  5
10e
100
AcDbEntity
  8
Base
 62
7
100
AcDbSpline
 70
8
 71
3
 72
8
 73
4
 74
0
 40
0
 40
0
 40
0
 40
0
 40
1
 40
1
 40
1
 40
1
 10
146.031510
 20
294.450000
 30
0.0
 10
146.031510
 20
295.288639
 30
0.0
 10
146.711361
 20
295.968490
 30
0.0
 10
147.550000
 20
295.968490
 30
0.0
  0
SPLINE
  5
10f
100
AcDbEntity
  8
Base
 62
7
100
AcDbSpline
 70
8
 71
3
 72
8
 73
4
 74
0
 40
0
 40
0
 40
0
 40
0
 40
1
 40
1
 40
1
 40
1
 10
147.550000
 20
295.968490
 30
0.0
 10
148.388639
 20
295.968490
 30
0.0
 10
149.068490
 20
295.288639
 30
0.0
 10
149.068490
 20
294.450000
 30
0.0
  0
LINE
  5
110
100
AcDbEntity
  8
Base
 62
7
100
AcDbLine
 10
149.068490
 20
294.450000
 30
0.0
 11
149.068490
 21
294.450000
 31
0.0
  0
SPLINE
  5
111
100
AcDbEntity
  8
Base
 62
7
100
AcDbSpline
 70
8
 71
3
 72
8
 73
4
 74
0
 40
0
 40
0
 40
0
 40
0
 40
1
 40
1
 40
1
 40
1
 10
149.068490
 20
149.450000
 30
0.0
 10
149.068490
 20
148.611361
 30
0.0
 10
148.388639
 20
147.931510
 30
0.0
 10
147.550000
 20
147.931510
 30
0.0
  0
SPLINE
  5
112
100
AcDbEntity
  8
Base
 62
7
100
AcDbSpline
 70
8
 71
3
 72
8
 73
4
 74
0
 40
0
 40
0
 40
0
 40
0
 40
1
 40
1
 40
1
 40
1
 10
147.550000
 20
147.931510
 30
0.0
 10
146.711361
 20
147.931510
 30
0.0
 10
146.031510
 20
148.611361
 30
0.0
 10
146.031510
 20
149.450000
 30
0.0
  0
SPLINE
  5
113
100
AcDbEntity
  8
Base
 62
7
100
AcDbSpline
 70
8
 71
3
 72
8
 73
4
 74
0
 40
0
 40
0
 40
0
 40
0
 40
1
 40
1
 40
1
 40
1
 10
146.031510
 20
149.450000
 30
0.0
 10
146.031510
 20
150.288639
 30
0.0
 10
146.711361
 20
150.968490
 30
0.0
 10
147.550000
 20
150.968490
 30
0.0
  0
SPLINE
  5
114
100
AcDbEntity
  8
Base
 62
7
100
AcDbSpline
 70
8
 71
3
 72
8
 73
4
 74
0
 40
0
 40
0
 40
0
 40
0
 40
1
 40
1
 40
1
 40
1
 10
147.550000
 20
150.968490
 30
0.0
 10
148.388639
 20
150.968490
 30
0.0
 10
149.068490
 20
150.288639
 30
0.0
 10
149.068490
 20
149.450000
 30
0.0
  0
LINE
  5
115
100
AcDbEntity
  8
Base
 62
7
100
AcDbLine
 10
149.068490
 20
149.450000
 30
0.0
 11
149.068490
 21
149.450000
 31
0.0
  0
SPLINE
  5
116
100
AcDbEntity
  8
Base
 62
7
100
AcDbSpline
 70
8
 71
3
 72
8
 73
4
 74
0
 40
0
 40
0
 40
0
 40
0
 40
1
 40
1
 40
1
 40
1
 10
4.068490
 20
149.450000
 30
0.0
 10
4.068490
 20
148.611361
 30
0.0
 10
3.388639
 20
147.931510
 30
0.0
 10
2.550000
 20
147.931510
 30
0.0
  0
SPLINE
  5
117
100
AcDbEntity
  8
Base
 62
7
100
AcDbSpline
 70
8
 71
3
 72
8
 73
4
 74
0
 40
0
 40
0
 40
0
 40
0
 40
1
 40
1
 40
1
 40
1
 10
2.550000
 20
147.931510
 30
0.0
 10
1.711361
 20
147.931510
 30
0.0
 10
1.031510
 20
148.611361
 30
0.0
 10
1.031510
 20
149.450000
 30
0.0
  0
SPLINE
  5
118
100
AcDbEntity
  8
Base
 62
7
100
AcDbSpline
 70
8
 71
3
 72
8
 73
4
 74
0
 40
0
 40
0
 40
0
 40
0
 40
1
 40
1
 40
1
 40
1
 10
1.031510
 20
149.450000
 30
0.0
 10
1.031510
 20
150.288639
 30
0.0
 10
1.711361
 20
150.968490
 30
0.0
 10
2.550000
 20
150.968490
 30
0.0
  0
SPLINE
  5
119
100
AcDbEntity
  8
Base
 62
7
100
AcDbSpline
 70
8
 71
3
 72
8
 73
4
 74
0
 40
0
 40
0
 40
0
 40
0
 40
1
 40
1
 40
1
 40
1
 10
2.550000
 20
150.968490
 30
0.0
 10
3.388639
 20
150.968490
 30
0.0
 10
4.068490
 20
150.288639
 30
0.0
 10
4.068490
 20
149.450000
 30
0.0
  0
LINE
  5
11a
100
AcDbEntity
  8
Base
 62
7
100
AcDbLine
 10
4.068490
 20
149.450000
 30
0.0
 11
4.068490
 21
149.450000
 31
0.0
  0
SPLINE
  5
11b
100
AcDbEntity
  8
LCD
 62
7
100
AcDbSpline
 70
8
 71
3
 72
8
 73
4
 74
0
 40
0
 40
0
 40
0
 40
0
 40
1
 40
1
 40
1
 40
1
 10
115.003910
 20
188.755860
 30
0.0
 10
108.116930
 20
188.755860
 30
0.0
 10
102.503900
 20
183.142840
 30
0.0
 10
102.503910
 20
176.255860
 30
0.0
  0
SPLINE
  5
11c
100
AcDbEntity
  8
LCD
 62
7
100
AcDbSpline
 70
8
 71
3
 72
8
 73
4
 74
0
 40
0
 40
0
 40
0
 40
0
 40
1
 40
1
 40
1
 40
1
 10
102.503910
 20
176.255860
 30
0.0
 10
102.503910
 20
169.368880
 30
0.0
 10
108.116930
 20
163.755860
 30
0.0
 10
115.003910
 20
163.755860
 30
0.0
  0
SPLINE
  5
11d
100
AcDbEntity
  8
LCD
 62
7
100
AcDbSpline
 70
8
 71
3
 72
8
 73
4
 74
0
 40
0
 40
0
 40
0
 40
0
 40
1
 40
1
 40
1
 40
1
 10
115.003910
 20
163.755860
 30
0.0
 10
121.890880
 20
163.755860
 30
0.0
 10
127.503900
 20
169.368890
 30
0.0
 10
127.503910
 20
176.255860
 30
0.0
  0
SPLINE
  5
11e
100
AcDbEntity
  8
LCD
 62
7
100
AcDbSpline
 70
8
 71
3
 72
8
 73
4
 74
0
 40
0
 40
0
 40
0
 40
0
 40
1
 40
1
 40
1
 40
1
 10
127.503910
 20
176.255860
 30
0.0
 10
127.503910
 20
183.142830
 30
0.0
 10
121.890880
 20
188.755860
 30
0.0
 10
115.003910
 20
188.755860
 30
0.0
  0
LINE
  5
11f
100
AcDbEntity
  8
LCD
 62
7
100
AcDbLine
 10
115.003910
 20
188.755860
 30
0.0
 11
115.003910
 21
188.755860
 31
0.0
  0
SPLINE
  5
120
100
AcDbEntity
  8
LCD
 62
7
100
AcDbSpline
 70
8
 71
3
 72
8
 73
4
 74
0
 40
0
 40
0
 40
0
 40
0
 40
1
 40
1
 40
1
 40
1
 10
115.003910
 20
185.957030
 30
0.0
 10
120.378080
 20
185.957030
 30
0.0
 10
124.705080
 20
181.630030
 30
0.0
 10
124.705080
 20
176.255860
 30
0.0
  0
SPLINE
  5
121
100
AcDbEntity
  8
LCD
 62
7
100
AcDbSpline
 70
8
 71
3
 72
8
 73
4
 74
0
 40
0
 40
0
 40
0
 40
0
 40
1
 40
1
 40
1
 40
1
 10
124.705080
 20
176.255860
 30
0.0
 10
124.705080
 20
170.881690
 30
0.0
 10
120.378070
 20
166.554690
 30
0.0
 10
115.003910
 20
166.554690
 30
0.0
  0
SPLINE
  5
122
100
AcDbEntity
  8
LCD
 62
7
100
AcDbSpline
 70
8
 71
3
 72
8
 73
4
 74
0
 40
0
 40
0
 40
0
 40
0
 40
1
 40
1
 40
1
 40
1
 10
115.003910
 20
166.554690
 30
0.0
 10
109.629740
 20
166.554690
 30
0.0
 10
105.302740
 20
170.881690
 30
0.0
 10
105.302730
 20
176.255860
 30
0.0
  0
SPLINE
  5
123
100
AcDbEntity
  8
LCD
 62
7
100
AcDbSpline
 70
8
 71
3
 72
8
 73
4
 74
0
 40
0
 40
0
 40
0
 40
0
 40
1
 40
1
 40
1
 40
1
 10
105.302730
 20
176.255860
 30
0.0
 10
105.302730
 20
181.630030
 30
0.0
 10
109.629730
 20
185.957030
 30
0.0
 10
115.003910
 20
185.957030
 30
0.0
  0
LINE
  5
124
100
AcDbEntity
  8
LCD
 62
7
100
AcDbLine
 10
115.003910
 20
185.957030
 30
0.0
 11
115.003910
 21
185.957030
 31
0.0
  0
SPLINE
  5
125
100
AcDbEntity
  8
LCD
 62
7
100
AcDbSpline
 70
8
 71
3
 72
8
 73
4
 74
0
 40
0
 40
0
 40
0
 40
0
 40
1
 40
1
 40
1
 40
1
 10
110.156250
 20
181.466800
 30
0.0
 10
109.911773
 20
181.465876
 30
0.0
 10
109.713814
 20
181.267917
 30
0.0
 10
109.712890
 20
181.023440
 30
0.0
  0
LINE
  5
126
100
AcDbEntity
  8
LCD
 62
7
100
AcDbLine
 10
109.712890
 20
181.023440
 30
0.0
 11
109.712890
 21
171.408200
 31
0.0
  0
SPLINE
  5
127
100
AcDbEntity
  8
LCD
 62
7
100
AcDbSpline
 70
8
 71
3
 72
8
 73
4
 74
0
 40
0
 40
0
 40
0
 40
0
 40
1
 40
1
 40
1
 40
1
 10
109.712890
 20
171.408200
 30
0.0
 10
109.712742
 20
171.162961
 30
0.0
 10
109.911013
 20
170.963818
 30
0.0
 10
110.156250
 20
170.962890
 30
0.0
  0
LINE
  5
128
100
AcDbEntity
  8
LCD
 62
7
100
AcDbLine
 10
110.156250
 20
170.962890
 30
0.0
 11
119.771480
 21
170.962890
 31
0.0
  0
SPLINE
  5
129
100
AcDbEntity
  8
LCD
 62
7
100
AcDbSpline
 70
8
 71
3
 72
8
 73
4
 74
0
 40
0
 40
0
 40
0
 40
0
 40
1
 40
1
 40
1
 40
1
 10
119.771480
 20
170.962890
 30
0.0
 10
119.889607
 20
170.962817
 30
0.0
 10
120.002917
 20
171.009709
 30
0.0
 10
120.086446
 20
171.093237
 30
0.0
  0
SPLINE
  5
12a
100
AcDbEntity
  8
LCD
 62
7
100
AcDbSpline
 70
8
 71
3
 72
8
 73
4
 74
0
 40
0
 40
0
 40
0
 40
0
 40
1
 40
1
 40
1
 40
1
 10
120.086446
 20
171.093237
 30
0.0
 10
120.169975
 20
171.176764
 30
0.0
 10
120.216870
 20
171.290073
 30
0.0
 10
120.216800
 20
171.408200
 30
0.0
  0
LINE
  5
12b
100
AcDbEntity
  8
LCD
 62
7
100
AcDbLine
 10
120.216800
 20
171.408200
 30
0.0
 11
120.216800
 21
181.023440
 31
0.0
  0
SPLINE
  5
12c
100
AcDbEntity
  8
LCD
 62
7
100
AcDbSpline
 70
8
 71
3
 72
8
 73
4
 74
0
 40
0
 40
0
 40
0
 40
0
 40
1
 40
1
 40
1
 40
1
 10
120.216800
 20
181.023440
 30
0.0
 10
120.215872
 20
181.268681
 30
0.0
 10
120.016722
 20
181.466954
 30
0.0
 10
119.771480
 20
181.466800
 30
0.0
  0
LINE
  5
12d
100
AcDbEntity
  8
LCD
 62
7
100
AcDbLine
 10
119.771480
 20
181.466800
 30
0.0
 11
110.156250
 21
181.466800
 31
0.0
  0
LINE
  5
12e
100
AcDbEntity
  8
LCD
 62
7
100
AcDbLine
 10
110.601560
 20
180.578120
 30
0.0
 11
119.326170
 21
180.578120
 31
0.0
  0
LINE
  5
12f
100
AcDbEntity
  8
LCD
 62
7
100
AcDbLine
 10
119.326170
 20
180.578120
 30
0.0
 11
119.326170
 21
171.853520
 31
0.0
  0
LINE
  5
130
100
AcDbEntity
  8
LCD
 62
7
100
AcDbLine
 10
119.326170
 20
171.853520
 30
0.0
 11
110.601560
 21
171.853520
 31
0.0
  0
LINE
  5
131
100
AcDbEntity
  8
LCD
 62
7
100
AcDbLine
 10
110.601560
 20
171.853520
 30
0.0
 11
110.601560
 21
180.578120
 31
0.0
  0
SPLINE
  5
132
100
AcDbEntity
  8
LCD
 62
7
100
AcDbSpline
 70
8
 71
3
 72
8
 73
4
 74
0
 40
0
 40
0
 40
0
 40
0
 40
1
 40
1
 40
1
 40
1
 10
112.943360
 20
178.707030
 30
0.0
 10
112.462690
 20
178.707030
 30
0.0
 10
112.070310
 20
178.312700
 30
0.0
 10
112.070310
 20
177.832030
 30
0.0
  0
SPLINE
  5
133
100
AcDbEntity
  8
LCD
 62
7
100
AcDbSpline
 70
8
 71
3
 72
8
 73
4
 74
0
 40
0
 40
0
 40
0
 40
0
 40
1
 40
1
 40
1
 40
1
 10
112.070310
 20
177.832030
 30
0.0
 10
112.070310
 20
177.351360
 30
0.0
 10
112.462690
 20
176.957030
 30
0.0
 10
112.943360
 20
176.957030
 30
0.0
  0
SPLINE
  5
134
100
AcDbEntity
  8
LCD
 62
7
100
AcDbSpline
 70
8
 71
3
 72
8
 73
4
 74
0
 40
0
 40
0
 40
0
 40
0
 40
1
 40
1
 40
1
 40
1
 10
112.943360
 20
176.957030
 30
0.0
 10
113.424030
 20
176.957030
 30
0.0
 10
113.818360
 20
177.351360
 30
0.0
 10
113.818360
 20
177.832030
 30
0.0
  0
SPLINE
  5
135
100
AcDbEntity
  8
LCD
 62
7
100
AcDbSpline
 70
8
 71
3
 72
8
 73
4
 74
0
 40
0
 40
0
 40
0
 40
0
 40
1
 40
1
 40
1
 40
1
 10
113.818360
 20
177.832030
 30
0.0
 10
113.818360
 20
178.312700
 30
0.0
 10
113.424030
 20
178.707030
 30
0.0
 10
112.943360
 20
178.707030
 30
0.0
  0
LINE
  5
136
100
AcDbEntity
  8
LCD
 62
7
100
AcDbLine
 10
112.943360
 20
178.707030
 30
0.0
 11
112.943360
 21
178.707030
 31
0.0
  0
SPLINE
  5
137
100
AcDbEntity
  8
LCD
 62
7
100
AcDbSpline
 70
8
 71
3
 72
8
 73
4
 74
0
 40
0
 40
0
 40
0
 40
0
 40
1
 40
1
 40
1
 40
1
 10
112.943360
 20
178.318360
 30
0.0
 10
113.213800
 20
178.318360
 30
0.0
 10
113.429690
 20
178.102470
 30
0.0
 10
113.429690
 20
177.832030
 30
0.0
  0
SPLINE
  5
138
100
AcDbEntity
  8
LCD
 62
7
100
AcDbSpline
 70
8
 71
3
 72
8
 73
4
 74
0
 40
0
 40
0
 40
0
 40
0
 40
1
 40
1
 40
1
 40
1
 10
113.429690
 20
177.832030
 30
0.0
 10
113.429690
 20
177.561590
 30
0.0
 10
113.213800
 20
177.347660
 30
0.0
 10
112.943360
 20
177.347660
 30
0.0
  0
SPLINE
  5
139
100
AcDbEntity
  8
LCD
 62
7
100
AcDbSpline
 70
8
 71
3
 72
8
 73
4
 74
0
 40
0
 40
0
 40
0
 40
0
 40
1
 40
1
 40
1
 40
1
 10
112.943360
 20
177.347660
 30
0.0
 10
112.672920
 20
177.347660
 30
0.0
 10
112.458990
 20
177.561590
 30
0.0
 10
112.458980
 20
177.832030
 30
0.0
  0
SPLINE
  5
13a
100
AcDbEntity
  8
LCD
 62
7
100
AcDbSpline
 70
8
 71
3
 72
8
 73
4
 74
0
 40
0
 40
0
 40
0
 40
0
 40
1
 40
1
 40
1
 40
1
 10
112.458980
 20
177.832030
 30
0.0
 10
112.458990
 20
178.102470
 30
0.0
 10
112.672920
 20
178.318360
 30
0.0
 10
112.943360
 20
178.318360
 30
0.0
  0
LINE
  5
13b
100
AcDbEntity
  8
LCD
 62
7
100
AcDbLine
 10
112.943360
 20
178.318360
 30
0.0
 11
112.943360
 21
178.318360
 31
0.0
  0
SPLINE
  5
13c
100
AcDbEntity
  8
LCD
 62
7
100
AcDbSpline
 70
8
 71
3
 72
8
 73
4
 74
0
 40
0
 40
0
 40
0
 40
0
 40
1
 40
1
 40
1
 40
1
 10
114.572270
 20
175.136720
 30
0.0
 10
114.091600
 20
175.136720
 30
0.0
 10
113.699220
 20
174.742390
 30
0.0
 10
113.699220
 20
174.261720
 30
0.0
  0
SPLINE
  5
13d
100
AcDbEntity
  8
LCD
 62
7
100
AcDbSpline
 70
8
 71
3
 72
8
 73
4
 74
0
 40
0
 40
0
 40
0
 40
0
 40
1
 40
1
 40
1
 40
1
 10
113.699220
 20
174.261720
 30
0.0
 10
113.699220
 20
173.781050
 30
0.0
 10
114.091600
 20
173.388670
 30
0.0
 10
114.572270
 20
173.388670
 30
0.0
  0
SPLINE
  5
13e
100
AcDbEntity
  8
LCD
 62
7
100
AcDbSpline
 70
8
 71
3
 72
8
 73
4
 74
0
 40
0
 40
0
 40
0
 40
0
 40
1
 40
1
 40
1
 40
1
 10
114.572270
 20
173.388670
 30
0.0
 10
115.052930
 20
173.388670
 30
0.0
 10
115.447260
 20
173.781050
 30
0.0
 10
115.447270
 20
174.261720
 30
0.0
  0
SPLINE
  5
13f
100
AcDbEntity
  8
LCD
 62
7
100
AcDbSpline
 70
8
 71
3
 72
8
 73
4
 74
0
 40
0
 40
0
 40
0
 40
0
 40
1
 40
1
 40
1
 40
1
 10
115.447270
 20
174.261720
 30
0.0
 10
115.447260
 20
174.742390
 30
0.0
 10
115.052930
 20
175.136720
 30
0.0
 10
114.572270
 20
175.136720
 30
0.0
  0
LINE
  5
140
100
AcDbEntity
  8
LCD
 62
7
100
AcDbLine
 10
114.572270
 20
175.136720
 30
0.0
 11
114.572270
 21
175.136720
 31
0.0
  0
SPLINE
  5
141
100
AcDbEntity
  8
LCD
 62
7
100
AcDbSpline
 70
8
 71
3
 72
8
 73
4
 74
0
 40
0
 40
0
 40
0
 40
0
 40
1
 40
1
 40
1
 40
1
 10
114.572270
 20
174.748050
 30
0.0
 10
114.842700
 20
174.748050
 30
0.0
 10
115.058590
 20
174.532160
 30
0.0
 10
115.058590
 20
174.261720
 30
0.0
  0
SPLINE
  5
142
100
AcDbEntity
  8
LCD
 62
7
100
AcDbSpline
 70
8
 71
3
 72
8
 73
4
 74
0
 40
0
 40
0
 40
0
 40
0
 40
1
 40
1
 40
1
 40
1
 10
115.058590
 20
174.261720
 30
0.0
 10
115.058590
 20
173.991280
 30
0.0
 10
114.842700
 20
173.777340
 30
0.0
 10
114.572270
 20
173.777340
 30
0.0
  0
SPLINE
  5
143
100
AcDbEntity
  8
LCD
 62
7
100
AcDbSpline
 70
8
 71
3
 72
8
 73
4
 74
0
 40
0
 40
0
 40
0
 40
0
 40
1
 40
1
 40
1
 40
1
 10
114.572270
 20
173.777340
 30
0.0
 10
114.301830
 20
173.777340
 30
0.0
 10
114.087890
 20
173.991280
 30
0.0
 10
114.087890
 20
174.261720
 30
0.0
  0
SPLINE
  5
144
100
AcDbEntity
  8
LCD
 62
7
100
AcDbSpline
 70
8
 71
3
 72
8
 73
4
 74
0
 40
0
 40
0
 40
0
 40
0
 40
1
 40
1
 40
1
 40
1
 10
114.087890
 20
174.261720
 30
0.0
 10
114.087890
 20
174.532160
 30
0.0
 10
114.301830
 20
174.748050
 30
0.0
 10
114.572270
 20
174.748050
 30
0.0
  0
LINE
  5
145
100
AcDbEntity
  8
LCD
 62
7
100
AcDbLine
 10
114.572270
 20
174.748050
 30
0.0
 11
114.572270
 21
174.748050
 31
0.0
  0
SPLINE
  5
146
100
AcDbEntity
  8
LCD
 62
7
100
AcDbSpline
 70
8
 71
3
 72
8
 73
4
 74
0
 40
0
 40
0
 40
0
 40
0
 40
1
 40
1
 40
1
 40
1
 10
117.250000
 20
177.769530
 30
0.0
 10
116.769330
 20
177.769540
 30
0.0
 10
116.375000
 20
177.375200
 30
0.0
 10
116.375000
 20
176.894530
 30
0.0
  0
SPLINE
  5
147
100
AcDbEntity
  8
LCD
 62
7
100
AcDbSpline
 70
8
 71
3
 72
8
 73
4
 74
0
 40
0
 40
0
 40
0
 40
0
 40
1
 40
1
 40
1
 40
1
 10
116.375000
 20
176.894530
 30
0.0
 10
116.375000
 20
176.413860
 30
0.0
 10
116.769330
 20
176.021480
 30
0.0
 10
117.250000
 20
176.021480
 30
0.0
  0
SPLINE
  5
148
100
AcDbEntity
  8
LCD
 62
7
100
AcDbSpline
 70
8
 71
3
 72
8
 73
4
 74
0
 40
0
 40
0
 40
0
 40
0
 40
1
 40
1
 40
1
 40
1
 10
117.250000
 20
176.021480
 30
0.0
 10
117.730670
 20
176.021490
 30
0.0
 10
118.125000
 20
176.413860
 30
0.0
 10
118.125000
 20
176.894530
 30
0.0
  0
SPLINE
  5
149
100
AcDbEntity
  8
LCD
 62
7
100
AcDbSpline
 70
8
 71
3
 72
8
 73
4
 74
0
 40
0
 40
0
 40
0
 40
0
 40
1
 40
1
 40
1
 40
1
 10
118.125000
 20
176.894530
 30
0.0
 10
118.125000
 20
177.375200
 30
0.0
 10
117.730670
 20
177.769530
 30
0.0
 10
117.250000
 20
177.769530
 30
0.0
  0
LINE
  5
14a
100
AcDbEntity
  8
LCD
 62
7
100
AcDbLine
 10
117.250000
 20
177.769530
 30
0.0
 11
117.250000
 21
177.769530
 31
0.0
  0
SPLINE
  5
14b
100
AcDbEntity
  8
LCD
 62
7
100
AcDbSpline
 70
8
 71
3
 72
8
 73
4
 74
0
 40
0
 40
0
 40
0
 40
0
 40
1
 40
1
 40
1
 40
1
 10
117.250000
 20
177.380860
 30
0.0
 10
117.520440
 20
177.380860
 30
0.0
 10
117.736330
 20
177.164970
 30
0.0
 10
117.736330
 20
176.894530
 30
0.0
  0
SPLINE
  5
14c
100
AcDbEntity
  8
LCD
 62
7
100
AcDbSpline
 70
8
 71
3
 72
8
 73
4
 74
0
 40
0
 40
0
 40
0
 40
0
 40
1
 40
1
 40
1
 40
1
 10
117.736330
 20
176.894530
 30
0.0
 10
117.736330
 20
176.624090
 30
0.0
 10
117.520440
 20
176.410160
 30
0.0
 10
117.250000
 20
176.410160
 30
0.0
  0
SPLINE
  5
14d
100
AcDbEntity
  8
LCD
 62
7
100
AcDbSpline
 70
8
 71
3
 72
8
 73
4
 74
0
 40
0
 40
0
 40
0
 40
0
 40
1
 40
1
 40
1
 40
1
 10
117.250000
 20
176.410160
 30
0.0
 10
116.979560
 20
176.410150
 30
0.0
 10
116.763670
 20
176.624090
 30
0.0
 10
116.763670
 20
176.894530
 30
0.0
  0
SPLINE
  5
14e
100
AcDbEntity
  8
LCD
 62
7
100
AcDbSpline
 70
8
 71
3
 72
8
 73
4
 74
0
 40
0
 40
0
 40
0
 40
0
 40
1
 40
1
 40
1
 40
1
 10
116.763670
 20
176.894530
 30
0.0
 10
116.763670
 20
177.164970
 30
0.0
 10
116.979560
 20
177.380860
 30
0.0
 10
117.250000
 20
177.380860
 30
0.0
  0
LINE
  5
14f
100
AcDbEntity
  8
LCD
 62
7
100
AcDbLine
 10
117.250000
 20
177.380860
 30
0.0
 11
117.250000
 21
177.380860
 31
0.0
  0
LINE
  5
150
100
AcDbEntity
  8
LCD
 62
7
100
AcDbLine
 10
114.267580
 20
173.605470
 30
0.0
 11
114.267580
 21
171.619140
 31
0.0
  0
LINE
  5
151
100
AcDbEntity
  8
LCD
 62
7
100
AcDbLine
 10
114.267580
 20
171.619140
 30
0.0
 11
114.767580
 21
171.619140
 31
0.0
  0
LINE
  5
152
100
AcDbEntity
  8
LCD
 62
7
100
AcDbLine
 10
114.767580
 20
171.619140
 30
0.0
 11
114.767580
 21
173.605470
 31
0.0
  0
LINE
  5
153
100
AcDbEntity
  8
LCD
 62
7
100
AcDbLine
 10
114.767580
 20
173.605470
 30
0.0
 11
114.267580
 21
173.605470
 31
0.0
  0
LINE
  5
154
100
AcDbEntity
  8
LCD
 62
7
100
AcDbLine
 10
113.687500
 20
180.837890
 30
0.0
 11
113.666000
 21
179.185550
 31
0.0
  0
LINE
  5
155
100
AcDbEntity
  8
LCD
 62
7
100
AcDbLine
 10
113.666000
 20
179.185550
 30
0.0
 11
113.187480
 21
178.605470
 31
0.0
  0
LINE
  5
156
100
AcDbEntity
  8
LCD
 62
7
100
AcDbLine
 10
113.187480
 20
178.605470
 30
0.0
 11
113.572250
 21
178.287110
 31
0.0
  0
LINE
  5
157
100
AcDbEntity
  8
LCD
 62
7
100
AcDbLine
 10
113.572250
 20
178.287110
 30
0.0
 11
114.164040
 21
179.001950
 31
0.0
  0
LINE
  5
158
100
AcDbEntity
  8
LCD
 62
7
100
AcDbLine
 10
114.164040
 20
179.001950
 30
0.0
 11
114.187440
 21
180.830080
 31
0.0
  0
LINE
  5
159
100
AcDbEntity
  8
LCD
 62
7
100
AcDbLine
 10
114.187440
 20
180.830080
 30
0.0
 11
113.687500
 21
180.837890
 31
0.0
  0
LINE
  5
15a
100
AcDbEntity
  8
LCD
 62
7
100
AcDbLine
 10
112.005860
 20
174.794920
 30
0.0
 11
110.449220
 21
174.748020
 31
0.0
  0
LINE
  5
15b
100
AcDbEntity
  8
LCD
 62
7
100
AcDbLine
 10
110.449220
 20
174.748020
 30
0.0
 11
110.464820
 21
174.248020
 31
0.0
  0
LINE
  5
15c
100
AcDbEntity
  8
LCD
 62
7
100
AcDbLine
 10
110.464820
 20
174.248020
 30
0.0
 11
111.808570
 21
174.289020
 31
0.0
  0
LINE
  5
15d
100
AcDbEntity
  8
LCD
 62
7
100
AcDbLine
 10
111.808570
 20
174.289020
 30
0.0
 11
112.841780
 21
173.275350
 31
0.0
  0
LINE
  5
15e
100
AcDbEntity
  8
LCD
 62
7
100
AcDbLine
 10
112.841780
 20
173.275350
 30
0.0
 11
112.884780
 21
171.613240
 31
0.0
  0
LINE
  5
15f
100
AcDbEntity
  8
LCD
 62
7
100
AcDbLine
 10
112.884780
 20
171.613240
 30
0.0
 11
113.384780
 21
171.624940
 31
0.0
  0
LINE
  5
160
100
AcDbEntity
  8
LCD
 62
7
100
AcDbLine
 10
113.384780
 20
171.624940
 30
0.0
 11
113.337880
 21
173.490170
 31
0.0
  0
LINE
  5
161
100
AcDbEntity
  8
LCD
 62
7
100
AcDbLine
 10
113.337880
 20
173.490170
 30
0.0
 11
112.005860
 21
174.794920
 31
0.0
  0
LINE
  5
162
100
AcDbEntity
  8
LCD
 62
7
100
AcDbLine
 10
119.642580
 20
179.365230
 30
0.0
 11
115.906250
 21
179.273430
 31
0.0
  0
LINE
  5
163
100
AcDbEntity
  8
LCD
 62
7
100
AcDbLine
 10
115.906250
 20
179.273430
 30
0.0
 11
114.716800
 21
178.083970
 31
0.0
  0
LINE
  5
164
100
AcDbEntity
  8
LCD
 62
7
100
AcDbLine
 10
114.716800
 20
178.083970
 30
0.0
 11
114.695300
 21
177.279290
 31
0.0
  0
LINE
  5
165
100
AcDbEntity
  8
LCD
 62
7
100
AcDbLine
 10
114.695300
 20
177.279290
 30
0.0
 11
113.697260
 21
176.263660
 31
0.0
  0
LINE
  5
166
100
AcDbEntity
  8
LCD
 62
7
100
AcDbLine
 10
113.697260
 20
176.263660
 30
0.0
 11
110.298820
 21
176.242160
 31
0.0
  0
LINE
  5
167
100
AcDbEntity
  8
LCD
 62
7
100
AcDbLine
 10
110.298820
 20
176.242160
 30
0.0
 11
110.302820
 21
175.742160
 31
0.0
  0
LINE
  5
168
100
AcDbEntity
  8
LCD
 62
7
100
AcDbLine
 10
110.302820
 20
175.742160
 30
0.0
 11
113.910250
 21
175.765560
 31
0.0
  0
LINE
  5
169
100
AcDbEntity
  8
LCD
 62
7
100
AcDbLine
 10
113.910250
 20
175.765560
 30
0.0
 11
115.189540
 21
177.070250
 31
0.0
  0
LINE
  5
16a
100
AcDbEntity
  8
LCD
 62
7
100
AcDbLine
 10
115.189540
 20
177.070250
 30
0.0
 11
115.211040
 21
177.871030
 31
0.0
  0
LINE
  5
16b
100
AcDbEntity
  8
LCD
 62
7
100
AcDbLine
 10
115.211040
 20
177.871030
 30
0.0
 11
116.119240
 21
178.779240
 31
0.0
  0
LINE
  5
16c
100
AcDbEntity
  8
LCD
 62
7
100
AcDbLine
 10
116.119240
 20
178.779240
 30
0.0
 11
119.656350
 21
178.865140
 31
0.0
  0
LINE
  5
16d
100
AcDbEntity
  8
LCD
 62
7
100
AcDbLine
 10
119.656350
 20
178.865140
 30
0.0
 11
119.642580
 21
179.365230
 31
0.0
  0
LINE
  5
16e
100
AcDbEntity
  8
LCD
 62
7
100
AcDbLine
 10
116.617190
 20
176.662110
 30
0.0
 11
114.900390
 21
174.964840
 31
0.0
  0
LINE
  5
16f
100
AcDbEntity
  8
LCD
 62
7
100
AcDbLine
 10
114.900390
 20
174.964840
 30
0.0
 11
115.251950
 21
174.609370
 31
0.0
  0
LINE
  5
170
100
AcDbEntity
  8
LCD
 62
7
100
AcDbLine
 10
115.251950
 20
174.609370
 30
0.0
 11
116.968750
 21
176.304690
 31
0.0
  0
LINE
  5
171
100
AcDbEntity
  8
LCD
 62
7
100
AcDbLine
 10
116.968750
 20
176.304690
 30
0.0
 11
116.617190
 21
176.662110
 31
0.0
  0
SPLINE
  5
172
100
AcDbEntity
  8
LCD
 62
7
100
AcDbSpline
 70
8
 71
3
 72
8
 73
4
 74
0
 40
0
 40
0
 40
0
 40
0
 40
1
 40
1
 40
1
 40
1
 10
109.050780
 20
172.404300
 30
0.0
 10
108.831083
 20
172.403445
 30
0.0
 10
108.653195
 20
172.225557
 30
0.0
 10
108.652340
 20
172.005860
 30
0.0
  0
SPLINE
  5
173
100
AcDbEntity
  8
LCD
 62
7
100
AcDbSpline
 70
8
 71
3
 72
8
 73
4
 74
0
 40
0
 40
0
 40
0
 40
0
 40
1
 40
1
 40
1
 40
1
 10
108.652340
 20
172.005860
 30
0.0
 10
108.652123
 20
171.785402
 30
0.0
 10
108.830323
 20
171.606330
 30
0.0
 10
109.050780
 20
171.605470
 30
0.0
  0
LINE
  5
174
100
AcDbEntity
  8
LCD
 62
7
100
AcDbLine
 10
109.050780
 20
171.605470
 30
0.0
 11
109.900390
 21
171.605470
 31
0.0
  0
SPLINE
  5
175
100
AcDbEntity
  8
LCD
 62
7
100
AcDbSpline
 70
8
 71
3
 72
8
 73
4
 74
0
 40
0
 40
0
 40
0
 40
0
 40
1
 40
1
 40
1
 40
1
 10
109.900390
 20
171.605470
 30
0.0
 10
110.120847
 20
171.606330
 30
0.0
 10
110.299047
 20
171.785402
 30
0.0
 10
110.298830
 20
172.005860
 30
0.0
  0
SPLINE
  5
176
100
AcDbEntity
  8
LCD
 62
7
100
AcDbSpline
 70
8
 71
3
 72
8
 73
4
 74
0
 40
0
 40
0
 40
0
 40
0
 40
1
 40
1
 40
1
 40
1
 10
110.298830
 20
172.005860
 30
0.0
 10
110.297975
 20
172.225557
 30
0.0
 10
110.120087
 20
172.403445
 30
0.0
 10
109.900390
 20
172.404300
 30
0.0
  0
LINE
  5
177
100
AcDbEntity
  8
LCD
 62
7
100
AcDbLine
 10
109.900390
 20
172.404300
 30
0.0
 11
109.050780
 21
172.404300
 31
0.0
  0
SPLINE
  5
178
100
AcDbEntity
  8
LCD
 62
7
100
AcDbSpline
 70
8
 71
3
 72
8
 73
4
 74
0
 40
0
 40
0
 40
0
 40
0
 40
1
 40
1
 40
1
 40
1
 10
109.050780
 20
173.605470
 30
0.0
 10
108.830323
 20
173.604610
 30
0.0
 10
108.652123
 20
173.425538
 30
0.0
 10
108.652340
 20
173.205080
 30
0.0
  0
SPLINE
  5
179
100
AcDbEntity
  8
LCD
 62
7
100
AcDbSpline
 70
8
 71
3
 72
8
 73
4
 74
0
 40
0
 40
0
 40
0
 40
0
 40
1
 40
1
 40
1
 40
1
 10
108.652340
 20
173.205080
 30
0.0
 10
108.652123
 20
172.984622
 30
0.0
 10
108.830323
 20
172.805550
 30
0.0
 10
109.050780
 20
172.804690
 30
0.0
  0
LINE
  5
17a
100
AcDbEntity
  8
LCD
 62
7
100
AcDbLine
 10
109.050780
 20
172.804690
 30
0.0
 11
109.900390
 21
172.804690
 31
0.0
  0
SPLINE
  5
17b
100
AcDbEntity
  8
LCD
 62
7
100
AcDbSpline
 70
8
 71
3
 72
8
 73
4
 74
0
 40
0
 40
0
 40
0
 40
0
 40
1
 40
1
 40
1
 40
1
 10
109.900390
 20
172.804690
 30
0.0
 10
110.120847
 20
172.805550
 30
0.0
 10
110.299047
 20
172.984622
 30
0.0
 10
110.298830
 20
173.205080
 30
0.0
  0
SPLINE
  5
17c
100
AcDbEntity
  8
LCD
 62
7
100
AcDbSpline
 70
8
 71
3
 72
8
 73
4
 74
0
 40
0
 40
0
 40
0
 40
0
 40
1
 40
1
 40
1
 40
1
 10
110.298830
 20
173.205080
 30
0.0
 10
110.299047
 20
173.425538
 30
0.0
 10
110.120847
 20
173.604610
 30
0.0
 10
109.900390
 20
173.605470
 30
0.0
  0
LINE
  5
17d
100
AcDbEntity
  8
LCD
 62
7
100
AcDbLine
 10
109.900390
 20
173.605470
 30
0.0
 11
109.050780
 21
173.605470
 31
0.0
  0
SPLINE
  5
17e
100
AcDbEntity
  8
LCD
 62
7
100
AcDbSpline
 70
8
 71
3
 72
8
 73
4
 74
0
 40
0
 40
0
 40
0
 40
0
 40
1
 40
1
 40
1
 40
1
 10
109.050780
 20
174.804690
 30
0.0
 10
108.830323
 20
174.803830
 30
0.0
 10
108.652123
 20
174.624758
 30
0.0
 10
108.652340
 20
174.404300
 30
0.0
  0
SPLINE
  5
17f
100
AcDbEntity
  8
LCD
 62
7
100
AcDbSpline
 70
8
 71
3
 72
8
 73
4
 74
0
 40
0
 40
0
 40
0
 40
0
 40
1
 40
1
 40
1
 40
1
 10
108.652340
 20
174.404300
 30
0.0
 10
108.653195
 20
174.184603
 30
0.0
 10
108.831083
 20
174.006715
 30
0.0
 10
109.050780
 20
174.005860
 30
0.0
  0
LINE
  5
180
100
AcDbEntity
  8
LCD
 62
7
100
AcDbLine
 10
109.050780
 20
174.005860
 30
0.0
 11
109.900390
 21
174.005860
 31
0.0
  0
SPLINE
  5
181
100
AcDbEntity
  8
LCD
 62
7
100
AcDbSpline
 70
8
 71
3
 72
8
 73
4
 74
0
 40
0
 40
0
 40
0
 40
0
 40
1
 40
1
 40
1
 40
1
 10
109.900390
 20
174.005860
 30
0.0
 10
110.120087
 20
174.006715
 30
0.0
 10
110.297975
 20
174.184603
 30
0.0
 10
110.298830
 20
174.404300
 30
0.0
  0
SPLINE
  5
182
100
AcDbEntity
  8
LCD
 62
7
100
AcDbSpline
 70
8
 71
3
 72
8
 73
4
 74
0
 40
0
 40
0
 40
0
 40
0
 40
1
 40
1
 40
1
 40
1
 10
110.298830
 20
174.404300
 30
0.0
 10
110.299047
 20
174.624758
 30
0.0
 10
110.120847
 20
174.803830
 30
0.0
 10
109.900390
 20
174.804690
 30
0.0
  0
LINE
  5
183
100
AcDbEntity
  8
LCD
 62
7
100
AcDbLine
 10
109.900390
 20
174.804690
 30
0.0
 11
109.050780
 21
174.804690
 31
0.0
  0
SPLINE
  5
184
100
AcDbEntity
  8
LCD
 62
7
100
AcDbSpline
 70
8
 71
3
 72
8
 73
4
 74
0
 40
0
 40
0
 40
0
 40
0
 40
1
 40
1
 40
1
 40
1
 10
109.050780
 20
176.005860
 30
0.0
 10
108.830323
 20
176.005000
 30
0.0
 10
108.652123
 20
175.825928
 30
0.0
 10
108.652340
 20
175.605470
 30
0.0
  0
SPLINE
  5
185
100
AcDbEntity
  8
LCD
 62
7
100
AcDbSpline
 70
8
 71
3
 72
8
 73
4
 74
0
 40
0
 40
0
 40
0
 40
0
 40
1
 40
1
 40
1
 40
1
 10
108.652340
 20
175.605470
 30
0.0
 10
108.652123
 20
175.385012
 30
0.0
 10
108.830323
 20
175.205940
 30
0.0
 10
109.050780
 20
175.205080
 30
0.0
  0
LINE
  5
186
100
AcDbEntity
  8
LCD
 62
7
100
AcDbLine
 10
109.050780
 20
175.205080
 30
0.0
 11
109.900390
 21
175.205080
 31
0.0
  0
SPLINE
  5
187
100
AcDbEntity
  8
LCD
 62
7
100
AcDbSpline
 70
8
 71
3
 72
8
 73
4
 74
0
 40
0
 40
0
 40
0
 40
0
 40
1
 40
1
 40
1
 40
1
 10
109.900390
 20
175.205080
 30
0.0
 10
110.120847
 20
175.205940
 30
0.0
 10
110.299047
 20
175.385012
 30
0.0
 10
110.298830
 20
175.605470
 30
0.0
  0
SPLINE
  5
188
100
AcDbEntity
  8
LCD
 62
7
100
AcDbSpline
 70
8
 71
3
 72
8
 73
4
 74
0
 40
0
 40
0
 40
0
 40
0
 40
1
 40
1
 40
1
 40
1
 10
110.298830
 20
175.605470
 30
0.0
 10
110.299047
 20
175.825928
 30
0.0
 10
110.120847
 20
176.005000
 30
0.0
 10
109.900390
 20
176.005860
 30
0.0
  0
LINE
  5
189
100
AcDbEntity
  8
LCD
 62
7
100
AcDbLine
 10
109.900390
 20
176.005860
 30
0.0
 11
109.050780
 21
176.005860
 31
0.0
  0
SPLINE
  5
18a
100
AcDbEntity
  8
LCD
 62
7
100
AcDbSpline
 70
8
 71
3
 72
8
 73
4
 74
0
 40
0
 40
0
 40
0
 40
0
 40
1
 40
1
 40
1
 40
1
 10
109.050780
 20
177.205080
 30
0.0
 10
108.830323
 20
177.204220
 30
0.0
 10
108.652123
 20
177.025148
 30
0.0
 10
108.652340
 20
176.804690
 30
0.0
  0
SPLINE
  5
18b
100
AcDbEntity
  8
LCD
 62
7
100
AcDbSpline
 70
8
 71
3
 72
8
 73
4
 74
0
 40
0
 40
0
 40
0
 40
0
 40
1
 40
1
 40
1
 40
1
 10
108.652340
 20
176.804690
 30
0.0
 10
108.652123
 20
176.584232
 30
0.0
 10
108.830323
 20
176.405160
 30
0.0
 10
109.050780
 20
176.404300
 30
0.0
  0
LINE
  5
18c
100
AcDbEntity
  8
LCD
 62
7
100
AcDbLine
 10
109.050780
 20
176.404300
 30
0.0
 11
109.900390
 21
176.404300
 31
0.0
  0
SPLINE
  5
18d
100
AcDbEntity
  8
LCD
 62
7
100
AcDbSpline
 70
8
 71
3
 72
8
 73
4
 74
0
 40
0
 40
0
 40
0
 40
0
 40
1
 40
1
 40
1
 40
1
 10
109.900390
 20
176.404300
 30
0.0
 10
110.120847
 20
176.405160
 30
0.0
 10
110.299047
 20
176.584232
 30
0.0
 10
110.298830
 20
176.804690
 30
0.0
  0
SPLINE
  5
18e
100
AcDbEntity
  8
LCD
 62
7
100
AcDbSpline
 70
8
 71
3
 72
8
 73
4
 74
0
 40
0
 40
0
 40
0
 40
0
 40
1
 40
1
 40
1
 40
1
 10
110.298830
 20
176.804690
 30
0.0
 10
110.299047
 20
177.025148
 30
0.0
 10
110.120847
 20
177.204220
 30
0.0
 10
109.900390
 20
177.205080
 30
0.0
  0
LINE
  5
18f
100
AcDbEntity
  8
LCD
 62
7
100
AcDbLine
 10
109.900390
 20
177.205080
 30
0.0
 11
109.050780
 21
177.205080
 31
0.0
  0
SPLINE
  5
190
100
AcDbEntity
  8
LCD
 62
7
100
AcDbSpline
 70
8
 71
3
 72
8
 73
4
 74
0
 40
0
 40
0
 40
0
 40
0
 40
1
 40
1
 40
1
 40
1
 10
109.050780
 20
178.404300
 30
0.0
 10
108.831083
 20
178.403445
 30
0.0
 10
108.653195
 20
178.225557
 30
0.0
 10
108.652340
 20
178.005860
 30
0.0
  0
SPLINE
  5
191
100
AcDbEntity
  8
LCD
 62
7
100
AcDbSpline
 70
8
 71
3
 72
8
 73
4
 74
0
 40
0
 40
0
 40
0
 40
0
 40
1
 40
1
 40
1
 40
1
 10
108.652340
 20
178.005860
 30
0.0
 10
108.652123
 20
177.785402
 30
0.0
 10
108.830323
 20
177.606330
 30
0.0
 10
109.050780
 20
177.605470
 30
0.0
  0
LINE
  5
192
100
AcDbEntity
  8
LCD
 62
7
100
AcDbLine
 10
109.050780
 20
177.605470
 30
0.0
 11
109.900390
 21
177.605470
 31
0.0
  0
SPLINE
  5
193
100
AcDbEntity
  8
LCD
 62
7
100
AcDbSpline
 70
8
 71
3
 72
8
 73
4
 74
0
 40
0
 40
0
 40
0
 40
0
 40
1
 40
1
 40
1
 40
1
 10
109.900390
 20
177.605470
 30
0.0
 10
110.120847
 20
177.606330
 30
0.0
 10
110.299047
 20
177.785402
 30
0.0
 10
110.298830
 20
178.005860
 30
0.0
  0
SPLINE
  5
194
100
AcDbEntity
  8
LCD
 62
7
100
AcDbSpline
 70
8
 71
3
 72
8
 73
4
 74
0
 40
0
 40
0
 40
0
 40
0
 40
1
 40
1
 40
1
 40
1
 10
110.298830
 20
178.005860
 30
0.0
 10
110.297975
 20
178.225557
 30
0.0
 10
110.120087
 20
178.403445
 30
0.0
 10
109.900390
 20
178.404300
 30
0.0
  0
LINE
  5
195
100
AcDbEntity
  8
LCD
 62
7
100
AcDbLine
 10
109.900390
 20
178.404300
 30
0.0
 11
109.050780
 21
178.404300
 31
0.0
  0
SPLINE
  5
196
100
AcDbEntity
  8
LCD
 62
7
100
AcDbSpline
 70
8
 71
3
 72
8
 73
4
 74
0
 40
0
 40
0
 40
0
 40
0
 40
1
 40
1
 40
1
 40
1
 10
109.050780
 20
179.605470
 30
0.0
 10
108.830323
 20
179.604610
 30
0.0
 10
108.652123
 20
179.425538
 30
0.0
 10
108.652340
 20
179.205080
 30
0.0
  0
SPLINE
  5
197
100
AcDbEntity
  8
LCD
 62
7
100
AcDbSpline
 70
8
 71
3
 72
8
 73
4
 74
0
 40
0
 40
0
 40
0
 40
0
 40
1
 40
1
 40
1
 40
1
 10
108.652340
 20
179.205080
 30
0.0
 10
108.652123
 20
178.984622
 30
0.0
 10
108.830323
 20
178.805550
 30
0.0
 10
109.050780
 20
178.804690
 30
0.0
  0
LINE
  5
198
100
AcDbEntity
  8
LCD
 62
7
100
AcDbLine
 10
109.050780
 20
178.804690
 30
0.0
 11
109.900390
 21
178.804690
 31
0.0
  0
SPLINE
  5
199
100
AcDbEntity
  8
LCD
 62
7
100
AcDbSpline
 70
8
 71
3
 72
8
 73
4
 74
0
 40
0
 40
0
 40
0
 40
0
 40
1
 40
1
 40
1
 40
1
 10
109.900390
 20
178.804690
 30
0.0
 10
110.120847
 20
178.805550
 30
0.0
 10
110.299047
 20
178.984622
 30
0.0
 10
110.298830
 20
179.205080
 30
0.0
  0
SPLINE
  5
19a
100
AcDbEntity
  8
LCD
 62
7
100
AcDbSpline
 70
8
 71
3
 72
8
 73
4
 74
0
 40
0
 40
0
 40
0
 40
0
 40
1
 40
1
 40
1
 40
1
 10
110.298830
 20
179.205080
 30
0.0
 10
110.299047
 20
179.425538
 30
0.0
 10
110.120847
 20
179.604610
 30
0.0
 10
109.900390
 20
179.605470
 30
0.0
  0
LINE
  5
19b
100
AcDbEntity
  8
LCD
 62
7
100
AcDbLine
 10
109.900390
 20
179.605470
 30
0.0
 11
109.050780
 21
179.605470
 31
0.0
  0
SPLINE
  5
19c
100
AcDbEntity
  8
LCD
 62
7
100
AcDbSpline
 70
8
 71
3
 72
8
 73
4
 74
0
 40
0
 40
0
 40
0
 40
0
 40
1
 40
1
 40
1
 40
1
 10
109.050780
 20
180.804690
 30
0.0
 10
108.830323
 20
180.803830
 30
0.0
 10
108.652123
 20
180.624758
 30
0.0
 10
108.652340
 20
180.404300
 30
0.0
  0
SPLINE
  5
19d
100
AcDbEntity
  8
LCD
 62
7
100
AcDbSpline
 70
8
 71
3
 72
8
 73
4
 74
0
 40
0
 40
0
 40
0
 40
0
 40
1
 40
1
 40
1
 40
1
 10
108.652340
 20
180.404300
 30
0.0
 10
108.653195
 20
180.184603
 30
0.0
 10
108.831083
 20
180.006715
 30
0.0
 10
109.050780
 20
180.005860
 30
0.0
  0
LINE
  5
19e
100
AcDbEntity
  8
LCD
 62
7
100
AcDbLine
 10
109.050780
 20
180.005860
 30
0.0
 11
109.900390
 21
180.005860
 31
0.0
  0
SPLINE
  5
19f
100
AcDbEntity
  8
LCD
 62
7
100
AcDbSpline
 70
8
 71
3
 72
8
 73
4
 74
0
 40
0
 40
0
 40
0
 40
0
 40
1
 40
1
 40
1
 40
1
 10
109.900390
 20
180.005860
 30
0.0
 10
110.120087
 20
180.006715
 30
0.0
 10
110.297975
 20
180.184603
 30
0.0
 10
110.298830
 20
180.404300
 30
0.0
  0
SPLINE
  5
1a0
100
AcDbEntity
  8
LCD
 62
7
100
AcDbSpline
 70
8
 71
3
 72
8
 73
4
 74
0
 40
0
 40
0
 40
0
 40
0
 40
1
 40
1
 40
1
 40
1
 10
110.298830
 20
180.404300
 30
0.0
 10
110.299047
 20
180.624758
 30
0.0
 10
110.120847
 20
180.803830
 30
0.0
 10
109.900390
 20
180.804690
 30
0.0
  0
LINE
  5
1a1
100
AcDbEntity
  8
LCD
 62
7
100
AcDbLine
 10
109.900390
 20
180.804690
 30
0.0
 11
109.050780
 21
180.804690
 31
0.0
  0
SPLINE
  5
1a2
100
AcDbEntity
  8
LCD
 62
7
100
AcDbSpline
 70
8
 71
3
 72
8
 73
4
 74
0
 40
0
 40
0
 40
0
 40
0
 40
1
 40
1
 40
1
 40
1
 10
120.005860
 20
180.804690
 30
0.0
 10
119.899638
 20
180.804794
 30
0.0
 10
119.797737
 20
180.762643
 30
0.0
 10
119.722627
 20
180.687533
 30
0.0
  0
SPLINE
  5
1a3
100
AcDbEntity
  8
LCD
 62
7
100
AcDbSpline
 70
8
 71
3
 72
8
 73
4
 74
0
 40
0
 40
0
 40
0
 40
0
 40
1
 40
1
 40
1
 40
1
 10
119.722627
 20
180.687533
 30
0.0
 10
119.647517
 20
180.612423
 30
0.0
 10
119.605366
 20
180.510522
 30
0.0
 10
119.605470
 20
180.404300
 30
0.0
  0
SPLINE
  5
1a4
100
AcDbEntity
  8
LCD
 62
7
100
AcDbSpline
 70
8
 71
3
 72
8
 73
4
 74
0
 40
0
 40
0
 40
0
 40
0
 40
1
 40
1
 40
1
 40
1
 10
119.605470
 20
180.404300
 30
0.0
 10
119.606330
 20
180.183843
 30
0.0
 10
119.785402
 20
180.005643
 30
0.0
 10
120.005860
 20
180.005860
 30
0.0
  0
LINE
  5
1a5
100
AcDbEntity
  8
LCD
 62
7
100
AcDbLine
 10
120.005860
 20
180.005860
 30
0.0
 11
120.853520
 21
180.005860
 31
0.0
  0
SPLINE
  5
1a6
100
AcDbEntity
  8
LCD
 62
7
100
AcDbSpline
 70
8
 71
3
 72
8
 73
4
 74
0
 40
0
 40
0
 40
0
 40
0
 40
1
 40
1
 40
1
 40
1
 10
120.853520
 20
180.005860
 30
0.0
 10
121.073978
 20
180.005643
 30
0.0
 10
121.253050
 20
180.183843
 30
0.0
 10
121.253910
 20
180.404300
 30
0.0
  0
SPLINE
  5
1a7
100
AcDbEntity
  8
LCD
 62
7
100
AcDbSpline
 70
8
 71
3
 72
8
 73
4
 74
0
 40
0
 40
0
 40
0
 40
0
 40
1
 40
1
 40
1
 40
1
 10
121.253910
 20
180.404300
 30
0.0
 10
121.254014
 20
180.510522
 30
0.0
 10
121.211863
 20
180.612423
 30
0.0
 10
121.136753
 20
180.687533
 30
0.0
  0
SPLINE
  5
1a8
100
AcDbEntity
  8
LCD
 62
7
100
AcDbSpline
 70
8
 71
3
 72
8
 73
4
 74
0
 40
0
 40
0
 40
0
 40
0
 40
1
 40
1
 40
1
 40
1
 10
121.136753
 20
180.687533
 30
0.0
 10
121.061643
 20
180.762643
 30
0.0
 10
120.959742
 20
180.804794
 30
0.0
 10
120.853520
 20
180.804690
 30
0.0
  0
LINE
  5
1a9
100
AcDbEntity
  8
LCD
 62
7
100
AcDbLine
 10
120.853520
 20
180.804690
 30
0.0
 11
120.005860
 21
180.804690
 31
0.0
  0
SPLINE
  5
1aa
100
AcDbEntity
  8
LCD
 62
7
100
AcDbSpline
 70
8
 71
3
 72
8
 73
4
 74
0
 40
0
 40
0
 40
0
 40
0
 40
1
 40
1
 40
1
 40
1
 10
120.005860
 20
179.605470
 30
0.0
 10
119.899638
 20
179.605574
 30
0.0
 10
119.797737
 20
179.563423
 30
0.0
 10
119.722627
 20
179.488313
 30
0.0
  0
SPLINE
  5
1ab
100
AcDbEntity
  8
LCD
 62
7
100
AcDbSpline
 70
8
 71
3
 72
8
 73
4
 74
0
 40
0
 40
0
 40
0
 40
0
 40
1
 40
1
 40
1
 40
1
 10
119.722627
 20
179.488313
 30
0.0
 10
119.647517
 20
179.413203
 30
0.0
 10
119.605366
 20
179.311302
 30
0.0
 10
119.605470
 20
179.205080
 30
0.0
  0
SPLINE
  5
1ac
100
AcDbEntity
  8
LCD
 62
7
100
AcDbSpline
 70
8
 71
3
 72
8
 73
4
 74
0
 40
0
 40
0
 40
0
 40
0
 40
1
 40
1
 40
1
 40
1
 10
119.605470
 20
179.205080
 30
0.0
 10
119.605366
 20
179.098858
 30
0.0
 10
119.647517
 20
178.996957
 30
0.0
 10
119.722627
 20
178.921847
 30
0.0
  0
SPLINE
  5
1ad
100
AcDbEntity
  8
LCD
 62
7
100
AcDbSpline
 70
8
 71
3
 72
8
 73
4
 74
0
 40
0
 40
0
 40
0
 40
0
 40
1
 40
1
 40
1
 40
1
 10
119.722627
 20
178.921847
 30
0.0
 10
119.797737
 20
178.846737
 30
0.0
 10
119.899638
 20
178.804586
 30
0.0
 10
120.005860
 20
178.804690
 30
0.0
  0
LINE
  5
1ae
100
AcDbEntity
  8
LCD
 62
7
100
AcDbLine
 10
120.005860
 20
178.804690
 30
0.0
 11
120.853520
 21
178.804690
 31
0.0
  0
SPLINE
  5
1af
100
AcDbEntity
  8
LCD
 62
7
100
AcDbSpline
 70
8
 71
3
 72
8
 73
4
 74
0
 40
0
 40
0
 40
0
 40
0
 40
1
 40
1
 40
1
 40
1
 10
120.853520
 20
178.804690
 30
0.0
 10
120.959742
 20
178.804586
 30
0.0
 10
121.061643
 20
178.846737
 30
0.0
 10
121.136753
 20
178.921847
 30
0.0
  0
SPLINE
  5
1b0
100
AcDbEntity
  8
LCD
 62
7
100
AcDbSpline
 70
8
 71
3
 72
8
 73
4
 74
0
 40
0
 40
0
 40
0
 40
0
 40
1
 40
1
 40
1
 40
1
 10
121.136753
 20
178.921847
 30
0.0
 10
121.211863
 20
178.996957
 30
0.0
 10
121.254014
 20
179.098858
 30
0.0
 10
121.253910
 20
179.205080
 30
0.0
  0
SPLINE
  5
1b1
100
AcDbEntity
  8
LCD
 62
7
100
AcDbSpline
 70
8
 71
3
 72
8
 73
4
 74
0
 40
0
 40
0
 40
0
 40
0
 40
1
 40
1
 40
1
 40
1
 10
121.253910
 20
179.205080
 30
0.0
 10
121.254014
 20
179.311302
 30
0.0
 10
121.211863
 20
179.413203
 30
0.0
 10
121.136753
 20
179.488313
 30
0.0
  0
SPLINE
  5
1b2
100
AcDbEntity
  8
LCD
 62
7
100
AcDbSpline
 70
8
 71
3
 72
8
 73
4
 74
0
 40
0
 40
0
 40
0
 40
0
 40
1
 40
1
 40
1
 40
1
 10
121.136753
 20
179.488313
 30
0.0
 10
121.061643
 20
179.563423
 30
0.0
 10
120.959742
 20
179.605574
 30
0.0
 10
120.853520
 20
179.605470
 30
0.0
  0
LINE
  5
1b3
100
AcDbEntity
  8
LCD
 62
7
100
AcDbLine
 10
120.853520
 20
179.605470
 30
0.0
 11
120.005860
 21
179.605470
 31
0.0
  0
SPLINE
  5
1b4
100
AcDbEntity
  8
LCD
 62
7
100
AcDbSpline
 70
8
 71
3
 72
8
 73
4
 74
0
 40
0
 40
0
 40
0
 40
0
 40
1
 40
1
 40
1
 40
1
 10
120.005860
 20
178.404300
 30
0.0
 10
119.785402
 20
178.404517
 30
0.0
 10
119.606330
 20
178.226317
 30
0.0
 10
119.605470
 20
178.005860
 30
0.0
  0
SPLINE
  5
1b5
100
AcDbEntity
  8
LCD
 62
7
100
AcDbSpline
 70
8
 71
3
 72
8
 73
4
 74
0
 40
0
 40
0
 40
0
 40
0
 40
1
 40
1
 40
1
 40
1
 10
119.605470
 20
178.005860
 30
0.0
 10
119.605366
 20
177.899638
 30
0.0
 10
119.647517
 20
177.797737
 30
0.0
 10
119.722627
 20
177.722627
 30
0.0
  0
SPLINE
  5
1b6
100
AcDbEntity
  8
LCD
 62
7
100
AcDbSpline
 70
8
 71
3
 72
8
 73
4
 74
0
 40
0
 40
0
 40
0
 40
0
 40
1
 40
1
 40
1
 40
1
 10
119.722627
 20
177.722627
 30
0.0
 10
119.797737
 20
177.647517
 30
0.0
 10
119.899638
 20
177.605366
 30
0.0
 10
120.005860
 20
177.605470
 30
0.0
  0
LINE
  5
1b7
100
AcDbEntity
  8
LCD
 62
7
100
AcDbLine
 10
120.005860
 20
177.605470
 30
0.0
 11
120.853520
 21
177.605470
 31
0.0
  0
SPLINE
  5
1b8
100
AcDbEntity
  8
LCD
 62
7
100
AcDbSpline
 70
8
 71
3
 72
8
 73
4
 74
0
 40
0
 40
0
 40
0
 40
0
 40
1
 40
1
 40
1
 40
1
 10
120.853520
 20
177.605470
 30
0.0
 10
120.959742
 20
177.605366
 30
0.0
 10
121.061643
 20
177.647517
 30
0.0
 10
121.136753
 20
177.722627
 30
0.0
  0
SPLINE
  5
1b9
100
AcDbEntity
  8
LCD
 62
7
100
AcDbSpline
 70
8
 71
3
 72
8
 73
4
 74
0
 40
0
 40
0
 40
0
 40
0
 40
1
 40
1
 40
1
 40
1
 10
121.136753
 20
177.722627
 30
0.0
 10
121.211863
 20
177.797737
 30
0.0
 10
121.254014
 20
177.899638
 30
0.0
 10
121.253910
 20
178.005860
 30
0.0
  0
SPLINE
  5
1ba
100
AcDbEntity
  8
LCD
 62
7
100
AcDbSpline
 70
8
 71
3
 72
8
 73
4
 74
0
 40
0
 40
0
 40
0
 40
0
 40
1
 40
1
 40
1
 40
1
 10
121.253910
 20
178.005860
 30
0.0
 10
121.253050
 20
178.226317
 30
0.0
 10
121.073978
 20
178.404517
 30
0.0
 10
120.853520
 20
178.404300
 30
0.0
  0
LINE
  5
1bb
100
AcDbEntity
  8
LCD
 62
7
100
AcDbLine
 10
120.853520
 20
178.404300
 30
0.0
 11
120.005860
 21
178.404300
 31
0.0
  0
SPLINE
  5
1bc
100
AcDbEntity
  8
LCD
 62
7
100
AcDbSpline
 70
8
 71
3
 72
8
 73
4
 74
0
 40
0
 40
0
 40
0
 40
0
 40
1
 40
1
 40
1
 40
1
 10
120.005860
 20
177.205080
 30
0.0
 10
119.899638
 20
177.205184
 30
0.0
 10
119.797737
 20
177.163033
 30
0.0
 10
119.722627
 20
177.087923
 30
0.0
  0
SPLINE
  5
1bd
100
AcDbEntity
  8
LCD
 62
7
100
AcDbSpline
 70
8
 71
3
 72
8
 73
4
 74
0
 40
0
 40
0
 40
0
 40
0
 40
1
 40
1
 40
1
 40
1
 10
119.722627
 20
177.087923
 30
0.0
 10
119.647517
 20
177.012813
 30
0.0
 10
119.605366
 20
176.910912
 30
0.0
 10
119.605470
 20
176.804690
 30
0.0
  0
SPLINE
  5
1be
100
AcDbEntity
  8
LCD
 62
7
100
AcDbSpline
 70
8
 71
3
 72
8
 73
4
 74
0
 40
0
 40
0
 40
0
 40
0
 40
1
 40
1
 40
1
 40
1
 10
119.605470
 20
176.804690
 30
0.0
 10
119.605366
 20
176.698468
 30
0.0
 10
119.647517
 20
176.596567
 30
0.0
 10
119.722627
 20
176.521457
 30
0.0
  0
SPLINE
  5
1bf
100
AcDbEntity
  8
LCD
 62
7
100
AcDbSpline
 70
8
 71
3
 72
8
 73
4
 74
0
 40
0
 40
0
 40
0
 40
0
 40
1
 40
1
 40
1
 40
1
 10
119.722627
 20
176.521457
 30
0.0
 10
119.797737
 20
176.446347
 30
0.0
 10
119.899638
 20
176.404196
 30
0.0
 10
120.005860
 20
176.404300
 30
0.0
  0
LINE
  5
1c0
100
AcDbEntity
  8
LCD
 62
7
100
AcDbLine
 10
120.005860
 20
176.404300
 30
0.0
 11
120.853520
 21
176.404300
 31
0.0
  0
SPLINE
  5
1c1
100
AcDbEntity
  8
LCD
 62
7
100
AcDbSpline
 70
8
 71
3
 72
8
 73
4
 74
0
 40
0
 40
0
 40
0
 40
0
 40
1
 40
1
 40
1
 40
1
 10
120.853520
 20
176.404300
 30
0.0
 10
120.959742
 20
176.404196
 30
0.0
 10
121.061643
 20
176.446347
 30
0.0
 10
121.136753
 20
176.521457
 30
0.0
  0
SPLINE
  5
1c2
100
AcDbEntity
  8
LCD
 62
7
100
AcDbSpline
 70
8
 71
3
 72
8
 73
4
 74
0
 40
0
 40
0
 40
0
 40
0
 40
1
 40
1
 40
1
 40
1
 10
121.136753
 20
176.521457
 30
0.0
 10
121.211863
 20
176.596567
 30
0.0
 10
121.254014
 20
176.698468
 30
0.0
 10
121.253910
 20
176.804690
 30
0.0
  0
SPLINE
  5
1c3
100
AcDbEntity
  8
LCD
 62
7
100
AcDbSpline
 70
8
 71
3
 72
8
 73
4
 74
0
 40
0
 40
0
 40
0
 40
0
 40
1
 40
1
 40
1
 40
1
 10
121.253910
 20
176.804690
 30
0.0
 10
121.254014
 20
176.910912
 30
0.0
 10
121.211863
 20
177.012813
 30
0.0
 10
121.136753
 20
177.087923
 30
0.0
  0
SPLINE
  5
1c4
100
AcDbEntity
  8
LCD
 62
7
100
AcDbSpline
 70
8
 71
3
 72
8
 73
4
 74
0
 40
0
 40
0
 40
0
 40
0
 40
1
 40
1
 40
1
 40
1
 10
121.136753
 20
177.087923
 30
0.0
 10
121.061643
 20
177.163033
 30
0.0
 10
120.959742
 20
177.205184
 30
0.0
 10
120.853520
 20
177.205080
 30
0.0
  0
LINE
  5
1c5
100
AcDbEntity
  8
LCD
 62
7
100
AcDbLine
 10
120.853520
 20
177.205080
 30
0.0
 11
120.005860
 21
177.205080
 31
0.0
  0
SPLINE
  5
1c6
100
AcDbEntity
  8
LCD
 62
7
100
AcDbSpline
 70
8
 71
3
 72
8
 73
4
 74
0
 40
0
 40
0
 40
0
 40
0
 40
1
 40
1
 40
1
 40
1
 10
120.005860
 20
176.005860
 30
0.0
 10
119.899638
 20
176.005964
 30
0.0
 10
119.797737
 20
175.963813
 30
0.0
 10
119.722627
 20
175.888703
 30
0.0
  0
SPLINE
  5
1c7
100
AcDbEntity
  8
LCD
 62
7
100
AcDbSpline
 70
8
 71
3
 72
8
 73
4
 74
0
 40
0
 40
0
 40
0
 40
0
 40
1
 40
1
 40
1
 40
1
 10
119.722627
 20
175.888703
 30
0.0
 10
119.647517
 20
175.813593
 30
0.0
 10
119.605366
 20
175.711692
 30
0.0
 10
119.605470
 20
175.605470
 30
0.0
  0
SPLINE
  5
1c8
100
AcDbEntity
  8
LCD
 62
7
100
AcDbSpline
 70
8
 71
3
 72
8
 73
4
 74
0
 40
0
 40
0
 40
0
 40
0
 40
1
 40
1
 40
1
 40
1
 10
119.605470
 20
175.605470
 30
0.0
 10
119.605366
 20
175.499248
 30
0.0
 10
119.647517
 20
175.397347
 30
0.0
 10
119.722627
 20
175.322237
 30
0.0
  0
SPLINE
  5
1c9
100
AcDbEntity
  8
LCD
 62
7
100
AcDbSpline
 70
8
 71
3
 72
8
 73
4
 74
0
 40
0
 40
0
 40
0
 40
0
 40
1
 40
1
 40
1
 40
1
 10
119.722627
 20
175.322237
 30
0.0
 10
119.797737
 20
175.247127
 30
0.0
 10
119.899638
 20
175.204976
 30
0.0
 10
120.005860
 20
175.205080
 30
0.0
  0
LINE
  5
1ca
100
AcDbEntity
  8
LCD
 62
7
100
AcDbLine
 10
120.005860
 20
175.205080
 30
0.0
 11
120.853520
 21
175.205080
 31
0.0
  0
SPLINE
  5
1cb
100
AcDbEntity
  8
LCD
 62
7
100
AcDbSpline
 70
8
 71
3
 72
8
 73
4
 74
0
 40
0
 40
0
 40
0
 40
0
 40
1
 40
1
 40
1
 40
1
 10
120.853520
 20
175.205080
 30
0.0
 10
120.959742
 20
175.204976
 30
0.0
 10
121.061643
 20
175.247127
 30
0.0
 10
121.136753
 20
175.322237
 30
0.0
  0
SPLINE
  5
1cc
100
AcDbEntity
  8
LCD
 62
7
100
AcDbSpline
 70
8
 71
3
 72
8
 73
4
 74
0
 40
0
 40
0
 40
0
 40
0
 40
1
 40
1
 40
1
 40
1
 10
121.136753
 20
175.322237
 30
0.0
 10
121.211863
 20
175.397347
 30
0.0
 10
121.254014
 20
175.499248
 30
0.0
 10
121.253910
 20
175.605470
 30
0.0
  0
SPLINE
  5
1cd
100
AcDbEntity
  8
LCD
 62
7
100
AcDbSpline
 70
8
 71
3
 72
8
 73
4
 74
0
 40
0
 40
0
 40
0
 40
0
 40
1
 40
1
 40
1
 40
1
 10
121.253910
 20
175.605470
 30
0.0
 10
121.254014
 20
175.711692
 30
0.0
 10
121.211863
 20
175.813593
 30
0.0
 10
121.136753
 20
175.888703
 30
0.0
  0
SPLINE
  5
1ce
100
AcDbEntity
  8
LCD
 62
7
100
AcDbSpline
 70
8
 71
3
 72
8
 73
4
 74
0
 40
0
 40
0
 40
0
 40
0
 40
1
 40
1
 40
1
 40
1
 10
121.136753
 20
175.888703
 30
0.0
 10
121.061643
 20
175.963813
 30
0.0
 10
120.959742
 20
176.005964
 30
0.0
 10
120.853520
 20
176.005860
 30
0.0
  0
LINE
  5
1cf
100
AcDbEntity
  8
LCD
 62
7
100
AcDbLine
 10
120.853520
 20
176.005860
 30
0.0
 11
120.005860
 21
176.005860
 31
0.0
  0
SPLINE
  5
1d0
100
AcDbEntity
  8
LCD
 62
7
100
AcDbSpline
 70
8
 71
3
 72
8
 73
4
 74
0
 40
0
 40
0
 40
0
 40
0
 40
1
 40
1
 40
1
 40
1
 10
120.005860
 20
174.804690
 30
0.0
 10
119.899638
 20
174.804794
 30
0.0
 10
119.797737
 20
174.762643
 30
0.0
 10
119.722627
 20
174.687533
 30
0.0
  0
SPLINE
  5
1d1
100
AcDbEntity
  8
LCD
 62
7
100
AcDbSpline
 70
8
 71
3
 72
8
 73
4
 74
0
 40
0
 40
0
 40
0
 40
0
 40
1
 40
1
 40
1
 40
1
 10
119.722627
 20
174.687533
 30
0.0
 10
119.647517
 20
174.612423
 30
0.0
 10
119.605366
 20
174.510522
 30
0.0
 10
119.605470
 20
174.404300
 30
0.0
  0
SPLINE
  5
1d2
100
AcDbEntity
  8
LCD
 62
7
100
AcDbSpline
 70
8
 71
3
 72
8
 73
4
 74
0
 40
0
 40
0
 40
0
 40
0
 40
1
 40
1
 40
1
 40
1
 10
119.605470
 20
174.404300
 30
0.0
 10
119.606330
 20
174.183843
 30
0.0
 10
119.785402
 20
174.005643
 30
0.0
 10
120.005860
 20
174.005860
 30
0.0
  0
LINE
  5
1d3
100
AcDbEntity
  8
LCD
 62
7
100
AcDbLine
 10
120.005860
 20
174.005860
 30
0.0
 11
120.853520
 21
174.005860
 31
0.0
  0
SPLINE
  5
1d4
100
AcDbEntity
  8
LCD
 62
7
100
AcDbSpline
 70
8
 71
3
 72
8
 73
4
 74
0
 40
0
 40
0
 40
0
 40
0
 40
1
 40
1
 40
1
 40
1
 10
120.853520
 20
174.005860
 30
0.0
 10
121.073978
 20
174.005643
 30
0.0
 10
121.253050
 20
174.183843
 30
0.0
 10
121.253910
 20
174.404300
 30
0.0
  0
SPLINE
  5
1d5
100
AcDbEntity
  8
LCD
 62
7
100
AcDbSpline
 70
8
 71
3
 72
8
 73
4
 74
0
 40
0
 40
0
 40
0
 40
0
 40
1
 40
1
 40
1
 40
1
 10
121.253910
 20
174.404300
 30
0.0
 10
121.254014
 20
174.510522
 30
0.0
 10
121.211863
 20
174.612423
 30
0.0
 10
121.136753
 20
174.687533
 30
0.0
  0
SPLINE
  5
1d6
100
AcDbEntity
  8
LCD
 62
7
100
AcDbSpline
 70
8
 71
3
 72
8
 73
4
 74
0
 40
0
 40
0
 40
0
 40
0
 40
1
 40
1
 40
1
 40
1
 10
121.136753
 20
174.687533
 30
0.0
 10
121.061643
 20
174.762643
 30
0.0
 10
120.959742
 20
174.804794
 30
0.0
 10
120.853520
 20
174.804690
 30
0.0
  0
LINE
  5
1d7
100
AcDbEntity
  8
LCD
 62
7
100
AcDbLine
 10
120.853520
 20
174.804690
 30
0.0
 11
120.005860
 21
174.804690
 31
0.0
  0
SPLINE
  5
1d8
100
AcDbEntity
  8
LCD
 62
7
100
AcDbSpline
 70
8
 71
3
 72
8
 73
4
 74
0
 40
0
 40
0
 40
0
 40
0
 40
1
 40
1
 40
1
 40
1
 10
120.005860
 20
173.605470
 30
0.0
 10
119.899638
 20
173.605574
 30
0.0
 10
119.797737
 20
173.563423
 30
0.0
 10
119.722627
 20
173.488313
 30
0.0
  0
SPLINE
  5
1d9
100
AcDbEntity
  8
LCD
 62
7
100
AcDbSpline
 70
8
 71
3
 72
8
 73
4
 74
0
 40
0
 40
0
 40
0
 40
0
 40
1
 40
1
 40
1
 40
1
 10
119.722627
 20
173.488313
 30
0.0
 10
119.647517
 20
173.413203
 30
0.0
 10
119.605366
 20
173.311302
 30
0.0
 10
119.605470
 20
173.205080
 30
0.0
  0
SPLINE
  5
1da
100
AcDbEntity
  8
LCD
 62
7
100
AcDbSpline
 70
8
 71
3
 72
8
 73
4
 74
0
 40
0
 40
0
 40
0
 40
0
 40
1
 40
1
 40
1
 40
1
 10
119.605470
 20
173.205080
 30
0.0
 10
119.605366
 20
173.098858
 30
0.0
 10
119.647517
 20
172.996957
 30
0.0
 10
119.722627
 20
172.921847
 30
0.0
  0
SPLINE
  5
1db
100
AcDbEntity
  8
LCD
 62
7
100
AcDbSpline
 70
8
 71
3
 72
8
 73
4
 74
0
 40
0
 40
0
 40
0
 40
0
 40
1
 40
1
 40
1
 40
1
 10
119.722627
 20
172.921847
 30
0.0
 10
119.797737
 20
172.846737
 30
0.0
 10
119.899638
 20
172.804586
 30
0.0
 10
120.005860
 20
172.804690
 30
0.0
  0
LINE
  5
1dc
100
AcDbEntity
  8
LCD
 62
7
100
AcDbLine
 10
120.005860
 20
172.804690
 30
0.0
 11
120.853520
 21
172.804690
 31
0.0
  0
SPLINE
  5
1dd
100
AcDbEntity
  8
LCD
 62
7
100
AcDbSpline
 70
8
 71
3
 72
8
 73
4
 74
0
 40
0
 40
0
 40
0
 40
0
 40
1
 40
1
 40
1
 40
1
 10
120.853520
 20
172.804690
 30
0.0
 10
120.959742
 20
172.804586
 30
0.0
 10
121.061643
 20
172.846737
 30
0.0
 10
121.136753
 20
172.921847
 30
0.0
  0
SPLINE
  5
1de
100
AcDbEntity
  8
LCD
 62
7
100
AcDbSpline
 70
8
 71
3
 72
8
 73
4
 74
0
 40
0
 40
0
 40
0
 40
0
 40
1
 40
1
 40
1
 40
1
 10
121.136753
 20
172.921847
 30
0.0
 10
121.211863
 20
172.996957
 30
0.0
 10
121.254014
 20
173.098858
 30
0.0
 10
121.253910
 20
173.205080
 30
0.0
  0
SPLINE
  5
1df
100
AcDbEntity
  8
LCD
 62
7
100
AcDbSpline
 70
8
 71
3
 72
8
 73
4
 74
0
 40
0
 40
0
 40
0
 40
0
 40
1
 40
1
 40
1
 40
1
 10
121.253910
 20
173.205080
 30
0.0
 10
121.254014
 20
173.311302
 30
0.0
 10
121.211863
 20
173.413203
 30
0.0
 10
121.136753
 20
173.488313
 30
0.0
  0
SPLINE
  5
1e0
100
AcDbEntity
  8
LCD
 62
7
100
AcDbSpline
 70
8
 71
3
 72
8
 73
4
 74
0
 40
0
 40
0
 40
0
 40
0
 40
1
 40
1
 40
1
 40
1
 10
121.136753
 20
173.488313
 30
0.0
 10
121.061643
 20
173.563423
 30
0.0
 10
120.959742
 20
173.605574
 30
0.0
 10
120.853520
 20
173.605470
 30
0.0
  0
LINE
  5
1e1
100
AcDbEntity
  8
LCD
 62
7
100
AcDbLine
 10
120.853520
 20
173.605470
 30
0.0
 11
120.005860
 21
173.605470
 31
0.0
  0
SPLINE
  5
1e2
100
AcDbEntity
  8
LCD
 62
7
100
AcDbSpline
 70
8
 71
3
 72
8
 73
4
 74
0
 40
0
 40
0
 40
0
 40
0
 40
1
 40
1
 40
1
 40
1
 10
120.005860
 20
172.404300
 30
0.0
 10
119.785402
 20
172.404517
 30
0.0
 10
119.606330
 20
172.226317
 30
0.0
 10
119.605470
 20
172.005860
 30
0.0
  0
SPLINE
  5
1e3
100
AcDbEntity
  8
LCD
 62
7
100
AcDbSpline
 70
8
 71
3
 72
8
 73
4
 74
0
 40
0
 40
0
 40
0
 40
0
 40
1
 40
1
 40
1
 40
1
 10
119.605470
 20
172.005860
 30
0.0
 10
119.605366
 20
171.899638
 30
0.0
 10
119.647517
 20
171.797737
 30
0.0
 10
119.722627
 20
171.722627
 30
0.0
  0
SPLINE
  5
1e4
100
AcDbEntity
  8
LCD
 62
7
100
AcDbSpline
 70
8
 71
3
 72
8
 73
4
 74
0
 40
0
 40
0
 40
0
 40
0
 40
1
 40
1
 40
1
 40
1
 10
119.722627
 20
171.722627
 30
0.0
 10
119.797737
 20
171.647517
 30
0.0
 10
119.899638
 20
171.605366
 30
0.0
 10
120.005860
 20
171.605470
 30
0.0
  0
LINE
  5
1e5
100
AcDbEntity
  8
LCD
 62
7
100
AcDbLine
 10
120.005860
 20
171.605470
 30
0.0
 11
120.853520
 21
171.605470
 31
0.0
  0
SPLINE
  5
1e6
100
AcDbEntity
  8
LCD
 62
7
100
AcDbSpline
 70
8
 71
3
 72
8
 73
4
 74
0
 40
0
 40
0
 40
0
 40
0
 40
1
 40
1
 40
1
 40
1
 10
120.853520
 20
171.605470
 30
0.0
 10
120.959742
 20
171.605366
 30
0.0
 10
121.061643
 20
171.647517
 30
0.0
 10
121.136753
 20
171.722627
 30
0.0
  0
SPLINE
  5
1e7
100
AcDbEntity
  8
LCD
 62
7
100
AcDbSpline
 70
8
 71
3
 72
8
 73
4
 74
0
 40
0
 40
0
 40
0
 40
0
 40
1
 40
1
 40
1
 40
1
 10
121.136753
 20
171.722627
 30
0.0
 10
121.211863
 20
171.797737
 30
0.0
 10
121.254014
 20
171.899638
 30
0.0
 10
121.253910
 20
172.005860
 30
0.0
  0
SPLINE
  5
1e8
100
AcDbEntity
  8
LCD
 62
7
100
AcDbSpline
 70
8
 71
3
 72
8
 73
4
 74
0
 40
0
 40
0
 40
0
 40
0
 40
1
 40
1
 40
1
 40
1
 10
121.253910
 20
172.005860
 30
0.0
 10
121.253050
 20
172.226317
 30
0.0
 10
121.073978
 20
172.404517
 30
0.0
 10
120.853520
 20
172.404300
 30
0.0
  0
LINE
  5
1e9
100
AcDbEntity
  8
LCD
 62
7
100
AcDbLine
 10
120.853520
 20
172.404300
 30
0.0
 11
120.005860
 21
172.404300
 31
0.0
  0
SPLINE
  5
1ea
100
AcDbEntity
  8
LCD
 62
7
100
AcDbSpline
 70
8
 71
3
 72
8
 73
4
 74
0
 40
0
 40
0
 40
0
 40
0
 40
1
 40
1
 40
1
 40
1
 10
119.302730
 20
171.501950
 30
0.0
 10
119.196508
 20
171.502054
 30
0.0
 10
119.094607
 20
171.459903
 30
0.0
 10
119.019497
 20
171.384793
 30
0.0
  0
SPLINE
  5
1eb
100
AcDbEntity
  8
LCD
 62
7
100
AcDbSpline
 70
8
 71
3
 72
8
 73
4
 74
0
 40
0
 40
0
 40
0
 40
0
 40
1
 40
1
 40
1
 40
1
 10
119.019497
 20
171.384793
 30
0.0
 10
118.944387
 20
171.309683
 30
0.0
 10
118.902236
 20
171.207782
 30
0.0
 10
118.902340
 20
171.101560
 30
0.0
  0
LINE
  5
1ec
100
AcDbEntity
  8
LCD
 62
7
100
AcDbLine
 10
118.902340
 20
171.101560
 30
0.0
 11
118.902340
 21
170.253910
 31
0.0
  0
SPLINE
  5
1ed
100
AcDbEntity
  8
LCD
 62
7
100
AcDbSpline
 70
8
 71
3
 72
8
 73
4
 74
0
 40
0
 40
0
 40
0
 40
0
 40
1
 40
1
 40
1
 40
1
 10
118.902340
 20
170.253910
 30
0.0
 10
118.902236
 20
170.147688
 30
0.0
 10
118.944387
 20
170.045787
 30
0.0
 10
119.019497
 20
169.970677
 30
0.0
  0
SPLINE
  5
1ee
100
AcDbEntity
  8
LCD
 62
7
100
AcDbSpline
 70
8
 71
3
 72
8
 73
4
 74
0
 40
0
 40
0
 40
0
 40
0
 40
1
 40
1
 40
1
 40
1
 10
119.019497
 20
169.970677
 30
0.0
 10
119.094607
 20
169.895567
 30
0.0
 10
119.196508
 20
169.853416
 30
0.0
 10
119.302730
 20
169.853520
 30
0.0
  0
SPLINE
  5
1ef
100
AcDbEntity
  8
LCD
 62
7
100
AcDbSpline
 70
8
 71
3
 72
8
 73
4
 74
0
 40
0
 40
0
 40
0
 40
0
 40
1
 40
1
 40
1
 40
1
 10
119.302730
 20
169.853520
 30
0.0
 10
119.408953
 20
169.853414
 30
0.0
 10
119.510857
 20
169.895563
 30
0.0
 10
119.585969
 20
169.970674
 30
0.0
  0
SPLINE
  5
1f0
100
AcDbEntity
  8
LCD
 62
7
100
AcDbSpline
 70
8
 71
3
 72
8
 73
4
 74
0
 40
0
 40
0
 40
0
 40
0
 40
1
 40
1
 40
1
 40
1
 10
119.585969
 20
169.970674
 30
0.0
 10
119.661082
 20
170.045784
 30
0.0
 10
119.703234
 20
170.147687
 30
0.0
 10
119.703130
 20
170.253910
 30
0.0
  0
LINE
  5
1f1
100
AcDbEntity
  8
LCD
 62
7
100
AcDbLine
 10
119.703130
 20
170.253910
 30
0.0
 11
119.703130
 21
171.101560
 31
0.0
  0
SPLINE
  5
1f2
100
AcDbEntity
  8
LCD
 62
7
100
AcDbSpline
 70
8
 71
3
 72
8
 73
4
 74
0
 40
0
 40
0
 40
0
 40
0
 40
1
 40
1
 40
1
 40
1
 10
119.703130
 20
171.101560
 30
0.0
 10
119.703234
 20
171.207783
 30
0.0
 10
119.661082
 20
171.309686
 30
0.0
 10
119.585969
 20
171.384796
 30
0.0
  0
SPLINE
  5
1f3
100
AcDbEntity
  8
LCD
 62
7
100
AcDbSpline
 70
8
 71
3
 72
8
 73
4
 74
0
 40
0
 40
0
 40
0
 40
0
 40
1
 40
1
 40
1
 40
1
 10
119.585969
 20
171.384796
 30
0.0
 10
119.510857
 20
171.459907
 30
0.0
 10
119.408953
 20
171.502056
 30
0.0
 10
119.302730
 20
171.501950
 30
0.0
  0
LINE
  5
1f4
100
AcDbEntity
  8
LCD
 62
7
100
AcDbLine
 10
119.302730
 20
171.501950
 30
0.0
 11
119.302730
 21
171.501950
 31
0.0
  0
SPLINE
  5
1f5
100
AcDbEntity
  8
LCD
 62
7
100
AcDbSpline
 70
8
 71
3
 72
8
 73
4
 74
0
 40
0
 40
0
 40
0
 40
0
 40
1
 40
1
 40
1
 40
1
 10
118.103520
 20
171.501950
 30
0.0
 10
117.997298
 20
171.502054
 30
0.0
 10
117.895397
 20
171.459903
 30
0.0
 10
117.820287
 20
171.384793
 30
0.0
  0
SPLINE
  5
1f6
100
AcDbEntity
  8
LCD
 62
7
100
AcDbSpline
 70
8
 71
3
 72
8
 73
4
 74
0
 40
0
 40
0
 40
0
 40
0
 40
1
 40
1
 40
1
 40
1
 10
117.820287
 20
171.384793
 30
0.0
 10
117.745177
 20
171.309683
 30
0.0
 10
117.703026
 20
171.207782
 30
0.0
 10
117.703130
 20
171.101560
 30
0.0
  0
LINE
  5
1f7
100
AcDbEntity
  8
LCD
 62
7
100
AcDbLine
 10
117.703130
 20
171.101560
 30
0.0
 11
117.703130
 21
170.253910
 31
0.0
  0
SPLINE
  5
1f8
100
AcDbEntity
  8
LCD
 62
7
100
AcDbSpline
 70
8
 71
3
 72
8
 73
4
 74
0
 40
0
 40
0
 40
0
 40
0
 40
1
 40
1
 40
1
 40
1
 10
117.703130
 20
170.253910
 30
0.0
 10
117.703026
 20
170.147688
 30
0.0
 10
117.745177
 20
170.045787
 30
0.0
 10
117.820287
 20
169.970677
 30
0.0
  0
SPLINE
  5
1f9
100
AcDbEntity
  8
LCD
 62
7
100
AcDbSpline
 70
8
 71
3
 72
8
 73
4
 74
0
 40
0
 40
0
 40
0
 40
0
 40
1
 40
1
 40
1
 40
1
 10
117.820287
 20
169.970677
 30
0.0
 10
117.895397
 20
169.895567
 30
0.0
 10
117.997298
 20
169.853416
 30
0.0
 10
118.103520
 20
169.853520
 30
0.0
  0
SPLINE
  5
1fa
100
AcDbEntity
  8
LCD
 62
7
100
AcDbSpline
 70
8
 71
3
 72
8
 73
4
 74
0
 40
0
 40
0
 40
0
 40
0
 40
1
 40
1
 40
1
 40
1
 10
118.103520
 20
169.853520
 30
0.0
 10
118.323973
 20
169.854385
 30
0.0
 10
118.502167
 20
170.033456
 30
0.0
 10
118.501950
 20
170.253910
 30
0.0
  0
LINE
  5
1fb
100
AcDbEntity
  8
LCD
 62
7
100
AcDbLine
 10
118.501950
 20
170.253910
 30
0.0
 11
118.501950
 21
171.101560
 31
0.0
  0
SPLINE
  5
1fc
100
AcDbEntity
  8
LCD
 62
7
100
AcDbSpline
 70
8
 71
3
 72
8
 73
4
 74
0
 40
0
 40
0
 40
0
 40
0
 40
1
 40
1
 40
1
 40
1
 10
118.501950
 20
171.101560
 30
0.0
 10
118.502167
 20
171.322014
 30
0.0
 10
118.323973
 20
171.501085
 30
0.0
 10
118.103520
 20
171.501950
 30
0.0
  0
LINE
  5
1fd
100
AcDbEntity
  8
LCD
 62
7
100
AcDbLine
 10
118.103520
 20
171.501950
 30
0.0
 11
118.103520
 21
171.501950
 31
0.0
  0
SPLINE
  5
1fe
100
AcDbEntity
  8
LCD
 62
7
100
AcDbSpline
 70
8
 71
3
 72
8
 73
4
 74
0
 40
0
 40
0
 40
0
 40
0
 40
1
 40
1
 40
1
 40
1
 10
116.902340
 20
171.501950
 30
0.0
 10
116.796118
 20
171.502054
 30
0.0
 10
116.694217
 20
171.459903
 30
0.0
 10
116.619107
 20
171.384793
 30
0.0
  0
SPLINE
  5
1ff
100
AcDbEntity
  8
LCD
 62
7
100
AcDbSpline
 70
8
 71
3
 72
8
 73
4
 74
0
 40
0
 40
0
 40
0
 40
0
 40
1
 40
1
 40
1
 40
1
 10
116.619107
 20
171.384793
 30
0.0
 10
116.543997
 20
171.309683
 30
0.0
 10
116.501846
 20
171.207782
 30
0.0
 10
116.501950
 20
171.101560
 30
0.0
  0
LINE
  5
200
100
AcDbEntity
  8
LCD
 62
7
100
AcDbLine
 10
116.501950
 20
171.101560
 30
0.0
 11
116.501950
 21
170.253910
 31
0.0
  0
SPLINE
  5
201
100
AcDbEntity
  8
LCD
 62
7
100
AcDbSpline
 70
8
 71
3
 72
8
 73
4
 74
0
 40
0
 40
0
 40
0
 40
0
 40
1
 40
1
 40
1
 40
1
 10
116.501950
 20
170.253910
 30
0.0
 10
116.501846
 20
170.147688
 30
0.0
 10
116.543997
 20
170.045787
 30
0.0
 10
116.619107
 20
169.970677
 30
0.0
  0
SPLINE
  5
202
100
AcDbEntity
  8
LCD
 62
7
100
AcDbSpline
 70
8
 71
3
 72
8
 73
4
 74
0
 40
0
 40
0
 40
0
 40
0
 40
1
 40
1
 40
1
 40
1
 10
116.619107
 20
169.970677
 30
0.0
 10
116.694217
 20
169.895567
 30
0.0
 10
116.796118
 20
169.853416
 30
0.0
 10
116.902340
 20
169.853520
 30
0.0
  0
SPLINE
  5
203
100
AcDbEntity
  8
LCD
 62
7
100
AcDbSpline
 70
8
 71
3
 72
8
 73
4
 74
0
 40
0
 40
0
 40
0
 40
0
 40
1
 40
1
 40
1
 40
1
 10
116.902340
 20
169.853520
 30
0.0
 10
117.008562
 20
169.853416
 30
0.0
 10
117.110463
 20
169.895567
 30
0.0
 10
117.185573
 20
169.970677
 30
0.0
  0
SPLINE
  5
204
100
AcDbEntity
  8
LCD
 62
7
100
AcDbSpline
 70
8
 71
3
 72
8
 73
4
 74
0
 40
0
 40
0
 40
0
 40
0
 40
1
 40
1
 40
1
 40
1
 10
117.185573
 20
169.970677
 30
0.0
 10
117.260683
 20
170.045787
 30
0.0
 10
117.302834
 20
170.147688
 30
0.0
 10
117.302730
 20
170.253910
 30
0.0
  0
LINE
  5
205
100
AcDbEntity
  8
LCD
 62
7
100
AcDbLine
 10
117.302730
 20
170.253910
 30
0.0
 11
117.302730
 21
171.101560
 31
0.0
  0
SPLINE
  5
206
100
AcDbEntity
  8
LCD
 62
7
100
AcDbSpline
 70
8
 71
3
 72
8
 73
4
 74
0
 40
0
 40
0
 40
0
 40
0
 40
1
 40
1
 40
1
 40
1
 10
117.302730
 20
171.101560
 30
0.0
 10
117.302834
 20
171.207782
 30
0.0
 10
117.260683
 20
171.309683
 30
0.0
 10
117.185573
 20
171.384793
 30
0.0
  0
SPLINE
  5
207
100
AcDbEntity
  8
LCD
 62
7
100
AcDbSpline
 70
8
 71
3
 72
8
 73
4
 74
0
 40
0
 40
0
 40
0
 40
0
 40
1
 40
1
 40
1
 40
1
 10
117.185573
 20
171.384793
 30
0.0
 10
117.110463
 20
171.459903
 30
0.0
 10
117.008562
 20
171.502054
 30
0.0
 10
116.902340
 20
171.501950
 30
0.0
  0
LINE
  5
208
100
AcDbEntity
  8
LCD
 62
7
100
AcDbLine
 10
116.902340
 20
171.501950
 30
0.0
 11
116.902340
 21
171.501950
 31
0.0
  0
SPLINE
  5
209
100
AcDbEntity
  8
LCD
 62
7
100
AcDbSpline
 70
8
 71
3
 72
8
 73
4
 74
0
 40
0
 40
0
 40
0
 40
0
 40
1
 40
1
 40
1
 40
1
 10
115.703130
 20
171.501950
 30
0.0
 10
115.596907
 20
171.502056
 30
0.0
 10
115.495003
 20
171.459907
 30
0.0
 10
115.419891
 20
171.384796
 30
0.0
  0
SPLINE
  5
20a
100
AcDbEntity
  8
LCD
 62
7
100
AcDbSpline
 70
8
 71
3
 72
8
 73
4
 74
0
 40
0
 40
0
 40
0
 40
0
 40
1
 40
1
 40
1
 40
1
 10
115.419891
 20
171.384796
 30
0.0
 10
115.344778
 20
171.309686
 30
0.0
 10
115.302626
 20
171.207783
 30
0.0
 10
115.302730
 20
171.101560
 30
0.0
  0
LINE
  5
20b
100
AcDbEntity
  8
LCD
 62
7
100
AcDbLine
 10
115.302730
 20
171.101560
 30
0.0
 11
115.302730
 21
170.253910
 31
0.0
  0
SPLINE
  5
20c
100
AcDbEntity
  8
LCD
 62
7
100
AcDbSpline
 70
8
 71
3
 72
8
 73
4
 74
0
 40
0
 40
0
 40
0
 40
0
 40
1
 40
1
 40
1
 40
1
 10
115.302730
 20
170.253910
 30
0.0
 10
115.302626
 20
170.147687
 30
0.0
 10
115.344778
 20
170.045784
 30
0.0
 10
115.419891
 20
169.970674
 30
0.0
  0
SPLINE
  5
20d
100
AcDbEntity
  8
LCD
 62
7
100
AcDbSpline
 70
8
 71
3
 72
8
 73
4
 74
0
 40
0
 40
0
 40
0
 40
0
 40
1
 40
1
 40
1
 40
1
 10
115.419891
 20
169.970674
 30
0.0
 10
115.495003
 20
169.895563
 30
0.0
 10
115.596907
 20
169.853414
 30
0.0
 10
115.703130
 20
169.853520
 30
0.0
  0
SPLINE
  5
20e
100
AcDbEntity
  8
LCD
 62
7
100
AcDbSpline
 70
8
 71
3
 72
8
 73
4
 74
0
 40
0
 40
0
 40
0
 40
0
 40
1
 40
1
 40
1
 40
1
 10
115.703130
 20
169.853520
 30
0.0
 10
115.809352
 20
169.853416
 30
0.0
 10
115.911253
 20
169.895567
 30
0.0
 10
115.986363
 20
169.970677
 30
0.0
  0
SPLINE
  5
20f
100
AcDbEntity
  8
LCD
 62
7
100
AcDbSpline
 70
8
 71
3
 72
8
 73
4
 74
0
 40
0
 40
0
 40
0
 40
0
 40
1
 40
1
 40
1
 40
1
 10
115.986363
 20
169.970677
 30
0.0
 10
116.061473
 20
170.045787
 30
0.0
 10
116.103624
 20
170.147688
 30
0.0
 10
116.103520
 20
170.253910
 30
0.0
  0
LINE
  5
210
100
AcDbEntity
  8
LCD
 62
7
100
AcDbLine
 10
116.103520
 20
170.253910
 30
0.0
 11
116.103520
 21
171.101560
 31
0.0
  0
SPLINE
  5
211
100
AcDbEntity
  8
LCD
 62
7
100
AcDbSpline
 70
8
 71
3
 72
8
 73
4
 74
0
 40
0
 40
0
 40
0
 40
0
 40
1
 40
1
 40
1
 40
1
 10
116.103520
 20
171.101560
 30
0.0
 10
116.103624
 20
171.207782
 30
0.0
 10
116.061473
 20
171.309683
 30
0.0
 10
115.986363
 20
171.384793
 30
0.0
  0
SPLINE
  5
212
100
AcDbEntity
  8
LCD
 62
7
100
AcDbSpline
 70
8
 71
3
 72
8
 73
4
 74
0
 40
0
 40
0
 40
0
 40
0
 40
1
 40
1
 40
1
 40
1
 10
115.986363
 20
171.384793
 30
0.0
 10
115.911253
 20
171.459903
 30
0.0
 10
115.809352
 20
171.502054
 30
0.0
 10
115.703130
 20
171.501950
 30
0.0
  0
LINE
  5
213
100
AcDbEntity
  8
LCD
 62
7
100
AcDbLine
 10
115.703130
 20
171.501950
 30
0.0
 11
115.703130
 21
171.501950
 31
0.0
  0
SPLINE
  5
214
100
AcDbEntity
  8
LCD
 62
7
100
AcDbSpline
 70
8
 71
3
 72
8
 73
4
 74
0
 40
0
 40
0
 40
0
 40
0
 40
1
 40
1
 40
1
 40
1
 10
114.501950
 20
171.501950
 30
0.0
 10
114.281497
 20
171.501085
 30
0.0
 10
114.103303
 20
171.322014
 30
0.0
 10
114.103520
 20
171.101560
 30
0.0
  0
LINE
  5
215
100
AcDbEntity
  8
LCD
 62
7
100
AcDbLine
 10
114.103520
 20
171.101560
 30
0.0
 11
114.103520
 21
170.253910
 31
0.0
  0
SPLINE
  5
216
100
AcDbEntity
  8
LCD
 62
7
100
AcDbSpline
 70
8
 71
3
 72
8
 73
4
 74
0
 40
0
 40
0
 40
0
 40
0
 40
1
 40
1
 40
1
 40
1
 10
114.103520
 20
170.253910
 30
0.0
 10
114.103303
 20
170.033456
 30
0.0
 10
114.281497
 20
169.854385
 30
0.0
 10
114.501950
 20
169.853520
 30
0.0
  0
SPLINE
  5
217
100
AcDbEntity
  8
LCD
 62
7
100
AcDbSpline
 70
8
 71
3
 72
8
 73
4
 74
0
 40
0
 40
0
 40
0
 40
0
 40
1
 40
1
 40
1
 40
1
 10
114.501950
 20
169.853520
 30
0.0
 10
114.608172
 20
169.853416
 30
0.0
 10
114.710073
 20
169.895567
 30
0.0
 10
114.785183
 20
169.970677
 30
0.0
  0
SPLINE
  5
218
100
AcDbEntity
  8
LCD
 62
7
100
AcDbSpline
 70
8
 71
3
 72
8
 73
4
 74
0
 40
0
 40
0
 40
0
 40
0
 40
1
 40
1
 40
1
 40
1
 10
114.785183
 20
169.970677
 30
0.0
 10
114.860293
 20
170.045787
 30
0.0
 10
114.902444
 20
170.147688
 30
0.0
 10
114.902340
 20
170.253910
 30
0.0
  0
LINE
  5
219
100
AcDbEntity
  8
LCD
 62
7
100
AcDbLine
 10
114.902340
 20
170.253910
 30
0.0
 11
114.902340
 21
171.101560
 31
0.0
  0
SPLINE
  5
21a
100
AcDbEntity
  8
LCD
 62
7
100
AcDbSpline
 70
8
 71
3
 72
8
 73
4
 74
0
 40
0
 40
0
 40
0
 40
0
 40
1
 40
1
 40
1
 40
1
 10
114.902340
 20
171.101560
 30
0.0
 10
114.902444
 20
171.207782
 30
0.0
 10
114.860293
 20
171.309683
 30
0.0
 10
114.785183
 20
171.384793
 30
0.0
  0
SPLINE
  5
21b
100
AcDbEntity
  8
LCD
 62
7
100
AcDbSpline
 70
8
 71
3
 72
8
 73
4
 74
0
 40
0
 40
0
 40
0
 40
0
 40
1
 40
1
 40
1
 40
1
 10
114.785183
 20
171.384793
 30
0.0
 10
114.710073
 20
171.459903
 30
0.0
 10
114.608172
 20
171.502054
 30
0.0
 10
114.501950
 20
171.501950
 30
0.0
  0
LINE
  5
21c
100
AcDbEntity
  8
LCD
 62
7
100
AcDbLine
 10
114.501950
 20
171.501950
 30
0.0
 11
114.501950
 21
171.501950
 31
0.0
  0
SPLINE
  5
21d
100
AcDbEntity
  8
LCD
 62
7
100
AcDbSpline
 70
8
 71
3
 72
8
 73
4
 74
0
 40
0
 40
0
 40
0
 40
0
 40
1
 40
1
 40
1
 40
1
 10
113.302730
 20
171.501950
 30
0.0
 10
113.196508
 20
171.502054
 30
0.0
 10
113.094607
 20
171.459903
 30
0.0
 10
113.019497
 20
171.384793
 30
0.0
  0
SPLINE
  5
21e
100
AcDbEntity
  8
LCD
 62
7
100
AcDbSpline
 70
8
 71
3
 72
8
 73
4
 74
0
 40
0
 40
0
 40
0
 40
0
 40
1
 40
1
 40
1
 40
1
 10
113.019497
 20
171.384793
 30
0.0
 10
112.944387
 20
171.309683
 30
0.0
 10
112.902236
 20
171.207782
 30
0.0
 10
112.902340
 20
171.101560
 30
0.0
  0
LINE
  5
21f
100
AcDbEntity
  8
LCD
 62
7
100
AcDbLine
 10
112.902340
 20
171.101560
 30
0.0
 11
112.902340
 21
170.253910
 31
0.0
  0
SPLINE
  5
220
100
AcDbEntity
  8
LCD
 62
7
100
AcDbSpline
 70
8
 71
3
 72
8
 73
4
 74
0
 40
0
 40
0
 40
0
 40
0
 40
1
 40
1
 40
1
 40
1
 10
112.902340
 20
170.253910
 30
0.0
 10
112.902236
 20
170.147688
 30
0.0
 10
112.944387
 20
170.045787
 30
0.0
 10
113.019497
 20
169.970677
 30
0.0
  0
SPLINE
  5
221
100
AcDbEntity
  8
LCD
 62
7
100
AcDbSpline
 70
8
 71
3
 72
8
 73
4
 74
0
 40
0
 40
0
 40
0
 40
0
 40
1
 40
1
 40
1
 40
1
 10
113.019497
 20
169.970677
 30
0.0
 10
113.094607
 20
169.895567
 30
0.0
 10
113.196508
 20
169.853416
 30
0.0
 10
113.302730
 20
169.853520
 30
0.0
  0
SPLINE
  5
222
100
AcDbEntity
  8
LCD
 62
7
100
AcDbSpline
 70
8
 71
3
 72
8
 73
4
 74
0
 40
0
 40
0
 40
0
 40
0
 40
1
 40
1
 40
1
 40
1
 10
113.302730
 20
169.853520
 30
0.0
 10
113.408953
 20
169.853414
 30
0.0
 10
113.510857
 20
169.895563
 30
0.0
 10
113.585969
 20
169.970674
 30
0.0
  0
SPLINE
  5
223
100
AcDbEntity
  8
LCD
 62
7
100
AcDbSpline
 70
8
 71
3
 72
8
 73
4
 74
0
 40
0
 40
0
 40
0
 40
0
 40
1
 40
1
 40
1
 40
1
 10
113.585969
 20
169.970674
 30
0.0
 10
113.661082
 20
170.045784
 30
0.0
 10
113.703234
 20
170.147687
 30
0.0
 10
113.703130
 20
170.253910
 30
0.0
  0
LINE
  5
224
100
AcDbEntity
  8
LCD
 62
7
100
AcDbLine
 10
113.703130
 20
170.253910
 30
0.0
 11
113.703130
 21
171.101560
 31
0.0
  0
SPLINE
  5
225
100
AcDbEntity
  8
LCD
 62
7
100
AcDbSpline
 70
8
 71
3
 72
8
 73
4
 74
0
 40
0
 40
0
 40
0
 40
0
 40
1
 40
1
 40
1
 40
1
 10
113.703130
 20
171.101560
 30
0.0
 10
113.703234
 20
171.207783
 30
0.0
 10
113.661082
 20
171.309686
 30
0.0
 10
113.585969
 20
171.384796
 30
0.0
  0
SPLINE
  5
226
100
AcDbEntity
  8
LCD
 62
7
100
AcDbSpline
 70
8
 71
3
 72
8
 73
4
 74
0
 40
0
 40
0
 40
0
 40
0
 40
1
 40
1
 40
1
 40
1
 10
113.585969
 20
171.384796
 30
0.0
 10
113.510857
 20
171.459907
 30
0.0
 10
113.408953
 20
171.502056
 30
0.0
 10
113.302730
 20
171.501950
 30
0.0
  0
LINE
  5
227
100
AcDbEntity
  8
LCD
 62
7
100
AcDbLine
 10
113.302730
 20
171.501950
 30
0.0
 11
113.302730
 21
171.501950
 31
0.0
  0
SPLINE
  5
228
100
AcDbEntity
  8
LCD
 62
7
100
AcDbSpline
 70
8
 71
3
 72
8
 73
4
 74
0
 40
0
 40
0
 40
0
 40
0
 40
1
 40
1
 40
1
 40
1
 10
112.103520
 20
171.501950
 30
0.0
 10
111.997298
 20
171.502054
 30
0.0
 10
111.895397
 20
171.459903
 30
0.0
 10
111.820287
 20
171.384793
 30
0.0
  0
SPLINE
  5
229
100
AcDbEntity
  8
LCD
 62
7
100
AcDbSpline
 70
8
 71
3
 72
8
 73
4
 74
0
 40
0
 40
0
 40
0
 40
0
 40
1
 40
1
 40
1
 40
1
 10
111.820287
 20
171.384793
 30
0.0
 10
111.745177
 20
171.309683
 30
0.0
 10
111.703026
 20
171.207782
 30
0.0
 10
111.703130
 20
171.101560
 30
0.0
  0
LINE
  5
22a
100
AcDbEntity
  8
LCD
 62
7
100
AcDbLine
 10
111.703130
 20
171.101560
 30
0.0
 11
111.703130
 21
170.253910
 31
0.0
  0
SPLINE
  5
22b
100
AcDbEntity
  8
LCD
 62
7
100
AcDbSpline
 70
8
 71
3
 72
8
 73
4
 74
0
 40
0
 40
0
 40
0
 40
0
 40
1
 40
1
 40
1
 40
1
 10
111.703130
 20
170.253910
 30
0.0
 10
111.703026
 20
170.147688
 30
0.0
 10
111.745177
 20
170.045787
 30
0.0
 10
111.820287
 20
169.970677
 30
0.0
  0
SPLINE
  5
22c
100
AcDbEntity
  8
LCD
 62
7
100
AcDbSpline
 70
8
 71
3
 72
8
 73
4
 74
0
 40
0
 40
0
 40
0
 40
0
 40
1
 40
1
 40
1
 40
1
 10
111.820287
 20
169.970677
 30
0.0
 10
111.895397
 20
169.895567
 30
0.0
 10
111.997298
 20
169.853416
 30
0.0
 10
112.103520
 20
169.853520
 30
0.0
  0
SPLINE
  5
22d
100
AcDbEntity
  8
LCD
 62
7
100
AcDbSpline
 70
8
 71
3
 72
8
 73
4
 74
0
 40
0
 40
0
 40
0
 40
0
 40
1
 40
1
 40
1
 40
1
 10
112.103520
 20
169.853520
 30
0.0
 10
112.323973
 20
169.854385
 30
0.0
 10
112.502167
 20
170.033456
 30
0.0
 10
112.501950
 20
170.253910
 30
0.0
  0
LINE
  5
22e
100
AcDbEntity
  8
LCD
 62
7
100
AcDbLine
 10
112.501950
 20
170.253910
 30
0.0
 11
112.501950
 21
171.101560
 31
0.0
  0
SPLINE
  5
22f
100
AcDbEntity
  8
LCD
 62
7
100
AcDbSpline
 70
8
 71
3
 72
8
 73
4
 74
0
 40
0
 40
0
 40
0
 40
0
 40
1
 40
1
 40
1
 40
1
 10
112.501950
 20
171.101560
 30
0.0
 10
112.502167
 20
171.322014
 30
0.0
 10
112.323973
 20
171.501085
 30
0.0
 10
112.103520
 20
171.501950
 30
0.0
  0
LINE
  5
230
100
AcDbEntity
  8
LCD
 62
7
100
AcDbLine
 10
112.103520
 20
171.501950
 30
0.0
 11
112.103520
 21
171.501950
 31
0.0
  0
SPLINE
  5
231
100
AcDbEntity
  8
LCD
 62
7
100
AcDbSpline
 70
8
 71
3
 72
8
 73
4
 74
0
 40
0
 40
0
 40
0
 40
0
 40
1
 40
1
 40
1
 40
1
 10
110.902340
 20
171.501950
 30
0.0
 10
110.796118
 20
171.502054
 30
0.0
 10
110.694217
 20
171.459903
 30
0.0
 10
110.619107
 20
171.384793
 30
0.0
  0
SPLINE
  5
232
100
AcDbEntity
  8
LCD
 62
7
100
AcDbSpline
 70
8
 71
3
 72
8
 73
4
 74
0
 40
0
 40
0
 40
0
 40
0
 40
1
 40
1
 40
1
 40
1
 10
110.619107
 20
171.384793
 30
0.0
 10
110.543997
 20
171.309683
 30
0.0
 10
110.501846
 20
171.207782
 30
0.0
 10
110.501950
 20
171.101560
 30
0.0
  0
LINE
  5
233
100
AcDbEntity
  8
LCD
 62
7
100
AcDbLine
 10
110.501950
 20
171.101560
 30
0.0
 11
110.501950
 21
170.253910
 31
0.0
  0
SPLINE
  5
234
100
AcDbEntity
  8
LCD
 62
7
100
AcDbSpline
 70
8
 71
3
 72
8
 73
4
 74
0
 40
0
 40
0
 40
0
 40
0
 40
1
 40
1
 40
1
 40
1
 10
110.501950
 20
170.253910
 30
0.0
 10
110.501846
 20
170.147688
 30
0.0
 10
110.543997
 20
170.045787
 30
0.0
 10
110.619107
 20
169.970677
 30
0.0
  0
SPLINE
  5
235
100
AcDbEntity
  8
LCD
 62
7
100
AcDbSpline
 70
8
 71
3
 72
8
 73
4
 74
0
 40
0
 40
0
 40
0
 40
0
 40
1
 40
1
 40
1
 40
1
 10
110.619107
 20
169.970677
 30
0.0
 10
110.694217
 20
169.895567
 30
0.0
 10
110.796118
 20
169.853416
 30
0.0
 10
110.902340
 20
169.853520
 30
0.0
  0
SPLINE
  5
236
100
AcDbEntity
  8
LCD
 62
7
100
AcDbSpline
 70
8
 71
3
 72
8
 73
4
 74
0
 40
0
 40
0
 40
0
 40
0
 40
1
 40
1
 40
1
 40
1
 10
110.902340
 20
169.853520
 30
0.0
 10
111.008562
 20
169.853416
 30
0.0
 10
111.110463
 20
169.895567
 30
0.0
 10
111.185573
 20
169.970677
 30
0.0
  0
SPLINE
  5
237
100
AcDbEntity
  8
LCD
 62
7
100
AcDbSpline
 70
8
 71
3
 72
8
 73
4
 74
0
 40
0
 40
0
 40
0
 40
0
 40
1
 40
1
 40
1
 40
1
 10
111.185573
 20
169.970677
 30
0.0
 10
111.260683
 20
170.045787
 30
0.0
 10
111.302834
 20
170.147688
 30
0.0
 10
111.302730
 20
170.253910
 30
0.0
  0
LINE
  5
238
100
AcDbEntity
  8
LCD
 62
7
100
AcDbLine
 10
111.302730
 20
170.253910
 30
0.0
 11
111.302730
 21
171.101560
 31
0.0
  0
SPLINE
  5
239
100
AcDbEntity
  8
LCD
 62
7
100
AcDbSpline
 70
8
 71
3
 72
8
 73
4
 74
0
 40
0
 40
0
 40
0
 40
0
 40
1
 40
1
 40
1
 40
1
 10
111.302730
 20
171.101560
 30
0.0
 10
111.302834
 20
171.207782
 30
0.0
 10
111.260683
 20
171.309683
 30
0.0
 10
111.185573
 20
171.384793
 30
0.0
  0
SPLINE
  5
23a
100
AcDbEntity
  8
LCD
 62
7
100
AcDbSpline
 70
8
 71
3
 72
8
 73
4
 74
0
 40
0
 40
0
 40
0
 40
0
 40
1
 40
1
 40
1
 40
1
 10
111.185573
 20
171.384793
 30
0.0
 10
111.110463
 20
171.459903
 30
0.0
 10
111.008562
 20
171.502054
 30
0.0
 10
110.902340
 20
171.501950
 30
0.0
  0
LINE
  5
23b
100
AcDbEntity
  8
LCD
 62
7
100
AcDbLine
 10
110.902340
 20
171.501950
 30
0.0
 11
110.902340
 21
171.501950
 31
0.0
  0
SPLINE
  5
23c
100
AcDbEntity
  8
LCD
 62
7
100
AcDbSpline
 70
8
 71
3
 72
8
 73
4
 74
0
 40
0
 40
0
 40
0
 40
0
 40
1
 40
1
 40
1
 40
1
 10
119.302730
 20
182.601560
 30
0.0
 10
119.196508
 20
182.601664
 30
0.0
 10
119.094607
 20
182.559513
 30
0.0
 10
119.019497
 20
182.484403
 30
0.0
  0
SPLINE
  5
23d
100
AcDbEntity
  8
LCD
 62
7
100
AcDbSpline
 70
8
 71
3
 72
8
 73
4
 74
0
 40
0
 40
0
 40
0
 40
0
 40
1
 40
1
 40
1
 40
1
 10
119.019497
 20
182.484403
 30
0.0
 10
118.944387
 20
182.409293
 30
0.0
 10
118.902236
 20
182.307392
 30
0.0
 10
118.902340
 20
182.201170
 30
0.0
  0
LINE
  5
23e
100
AcDbEntity
  8
LCD
 62
7
100
AcDbLine
 10
118.902340
 20
182.201170
 30
0.0
 11
118.902340
 21
181.353520
 31
0.0
  0
SPLINE
  5
23f
100
AcDbEntity
  8
LCD
 62
7
100
AcDbSpline
 70
8
 71
3
 72
8
 73
4
 74
0
 40
0
 40
0
 40
0
 40
0
 40
1
 40
1
 40
1
 40
1
 10
118.902340
 20
181.353520
 30
0.0
 10
118.902234
 20
181.247297
 30
0.0
 10
118.944383
 20
181.145393
 30
0.0
 10
119.019494
 20
181.070281
 30
0.0
  0
SPLINE
  5
240
100
AcDbEntity
  8
LCD
 62
7
100
AcDbSpline
 70
8
 71
3
 72
8
 73
4
 74
0
 40
0
 40
0
 40
0
 40
0
 40
1
 40
1
 40
1
 40
1
 10
119.019494
 20
181.070281
 30
0.0
 10
119.094604
 20
180.995168
 30
0.0
 10
119.196507
 20
180.953016
 30
0.0
 10
119.302730
 20
180.953120
 30
0.0
  0
SPLINE
  5
241
100
AcDbEntity
  8
LCD
 62
7
100
AcDbSpline
 70
8
 71
3
 72
8
 73
4
 74
0
 40
0
 40
0
 40
0
 40
0
 40
1
 40
1
 40
1
 40
1
 10
119.302730
 20
180.953120
 30
0.0
 10
119.408955
 20
180.953014
 30
0.0
 10
119.510860
 20
180.995164
 30
0.0
 10
119.585973
 20
181.070277
 30
0.0
  0
SPLINE
  5
242
100
AcDbEntity
  8
LCD
 62
7
100
AcDbSpline
 70
8
 71
3
 72
8
 73
4
 74
0
 40
0
 40
0
 40
0
 40
0
 40
1
 40
1
 40
1
 40
1
 10
119.585973
 20
181.070277
 30
0.0
 10
119.661086
 20
181.145390
 30
0.0
 10
119.703236
 20
181.247295
 30
0.0
 10
119.703130
 20
181.353520
 30
0.0
  0
LINE
  5
243
100
AcDbEntity
  8
LCD
 62
7
100
AcDbLine
 10
119.703130
 20
181.353520
 30
0.0
 11
119.703130
 21
182.201170
 31
0.0
  0
SPLINE
  5
244
100
AcDbEntity
  8
LCD
 62
7
100
AcDbSpline
 70
8
 71
3
 72
8
 73
4
 74
0
 40
0
 40
0
 40
0
 40
0
 40
1
 40
1
 40
1
 40
1
 10
119.703130
 20
182.201170
 30
0.0
 10
119.703234
 20
182.307393
 30
0.0
 10
119.661082
 20
182.409296
 30
0.0
 10
119.585969
 20
182.484406
 30
0.0
  0
SPLINE
  5
245
100
AcDbEntity
  8
LCD
 62
7
100
AcDbSpline
 70
8
 71
3
 72
8
 73
4
 74
0
 40
0
 40
0
 40
0
 40
0
 40
1
 40
1
 40
1
 40
1
 10
119.585969
 20
182.484406
 30
0.0
 10
119.510857
 20
182.559517
 30
0.0
 10
119.408953
 20
182.601666
 30
0.0
 10
119.302730
 20
182.601560
 30
0.0
  0
LINE
  5
246
100
AcDbEntity
  8
LCD
 62
7
100
AcDbLine
 10
119.302730
 20
182.601560
 30
0.0
 11
119.302730
 21
182.601560
 31
0.0
  0
SPLINE
  5
247
100
AcDbEntity
  8
LCD
 62
7
100
AcDbSpline
 70
8
 71
3
 72
8
 73
4
 74
0
 40
0
 40
0
 40
0
 40
0
 40
1
 40
1
 40
1
 40
1
 10
118.103520
 20
182.601560
 30
0.0
 10
117.997298
 20
182.601664
 30
0.0
 10
117.895397
 20
182.559513
 30
0.0
 10
117.820287
 20
182.484403
 30
0.0
  0
SPLINE
  5
248
100
AcDbEntity
  8
LCD
 62
7
100
AcDbSpline
 70
8
 71
3
 72
8
 73
4
 74
0
 40
0
 40
0
 40
0
 40
0
 40
1
 40
1
 40
1
 40
1
 10
117.820287
 20
182.484403
 30
0.0
 10
117.745177
 20
182.409293
 30
0.0
 10
117.703026
 20
182.307392
 30
0.0
 10
117.703130
 20
182.201170
 30
0.0
  0
LINE
  5
249
100
AcDbEntity
  8
LCD
 62
7
100
AcDbLine
 10
117.703130
 20
182.201170
 30
0.0
 11
117.703130
 21
181.353520
 31
0.0
  0
SPLINE
  5
24a
100
AcDbEntity
  8
LCD
 62
7
100
AcDbSpline
 70
8
 71
3
 72
8
 73
4
 74
0
 40
0
 40
0
 40
0
 40
0
 40
1
 40
1
 40
1
 40
1
 10
117.703130
 20
181.353520
 30
0.0
 10
117.703024
 20
181.247297
 30
0.0
 10
117.745173
 20
181.145393
 30
0.0
 10
117.820284
 20
181.070281
 30
0.0
  0
SPLINE
  5
24b
100
AcDbEntity
  8
LCD
 62
7
100
AcDbSpline
 70
8
 71
3
 72
8
 73
4
 74
0
 40
0
 40
0
 40
0
 40
0
 40
1
 40
1
 40
1
 40
1
 10
117.820284
 20
181.070281
 30
0.0
 10
117.895394
 20
180.995168
 30
0.0
 10
117.997297
 20
180.953016
 30
0.0
 10
118.103520
 20
180.953120
 30
0.0
  0
SPLINE
  5
24c
100
AcDbEntity
  8
LCD
 62
7
100
AcDbSpline
 70
8
 71
3
 72
8
 73
4
 74
0
 40
0
 40
0
 40
0
 40
0
 40
1
 40
1
 40
1
 40
1
 10
118.103520
 20
180.953120
 30
0.0
 10
118.323977
 20
180.953985
 30
0.0
 10
118.502172
 20
181.133062
 30
0.0
 10
118.501950
 20
181.353520
 30
0.0
  0
LINE
  5
24d
100
AcDbEntity
  8
LCD
 62
7
100
AcDbLine
 10
118.501950
 20
181.353520
 30
0.0
 11
118.501950
 21
182.201170
 31
0.0
  0
SPLINE
  5
24e
100
AcDbEntity
  8
LCD
 62
7
100
AcDbSpline
 70
8
 71
3
 72
8
 73
4
 74
0
 40
0
 40
0
 40
0
 40
0
 40
1
 40
1
 40
1
 40
1
 10
118.501950
 20
182.201170
 30
0.0
 10
118.502167
 20
182.421624
 30
0.0
 10
118.323973
 20
182.600695
 30
0.0
 10
118.103520
 20
182.601560
 30
0.0
  0
LINE
  5
24f
100
AcDbEntity
  8
LCD
 62
7
100
AcDbLine
 10
118.103520
 20
182.601560
 30
0.0
 11
118.103520
 21
182.601560
 31
0.0
  0
SPLINE
  5
250
100
AcDbEntity
  8
LCD
 62
7
100
AcDbSpline
 70
8
 71
3
 72
8
 73
4
 74
0
 40
0
 40
0
 40
0
 40
0
 40
1
 40
1
 40
1
 40
1
 10
116.902340
 20
182.601560
 30
0.0
 10
116.796118
 20
182.601664
 30
0.0
 10
116.694217
 20
182.559513
 30
0.0
 10
116.619107
 20
182.484403
 30
0.0
  0
SPLINE
  5
251
100
AcDbEntity
  8
LCD
 62
7
100
AcDbSpline
 70
8
 71
3
 72
8
 73
4
 74
0
 40
0
 40
0
 40
0
 40
0
 40
1
 40
1
 40
1
 40
1
 10
116.619107
 20
182.484403
 30
0.0
 10
116.543997
 20
182.409293
 30
0.0
 10
116.501846
 20
182.307392
 30
0.0
 10
116.501950
 20
182.201170
 30
0.0
  0
LINE
  5
252
100
AcDbEntity
  8
LCD
 62
7
100
AcDbLine
 10
116.501950
 20
182.201170
 30
0.0
 11
116.501950
 21
181.353520
 31
0.0
  0
SPLINE
  5
253
100
AcDbEntity
  8
LCD
 62
7
100
AcDbSpline
 70
8
 71
3
 72
8
 73
4
 74
0
 40
0
 40
0
 40
0
 40
0
 40
1
 40
1
 40
1
 40
1
 10
116.501950
 20
181.353520
 30
0.0
 10
116.501844
 20
181.247297
 30
0.0
 10
116.543993
 20
181.145393
 30
0.0
 10
116.619104
 20
181.070281
 30
0.0
  0
SPLINE
  5
254
100
AcDbEntity
  8
LCD
 62
7
100
AcDbSpline
 70
8
 71
3
 72
8
 73
4
 74
0
 40
0
 40
0
 40
0
 40
0
 40
1
 40
1
 40
1
 40
1
 10
116.619104
 20
181.070281
 30
0.0
 10
116.694214
 20
180.995168
 30
0.0
 10
116.796117
 20
180.953016
 30
0.0
 10
116.902340
 20
180.953120
 30
0.0
  0
SPLINE
  5
255
100
AcDbEntity
  8
LCD
 62
7
100
AcDbSpline
 70
8
 71
3
 72
8
 73
4
 74
0
 40
0
 40
0
 40
0
 40
0
 40
1
 40
1
 40
1
 40
1
 10
116.902340
 20
180.953120
 30
0.0
 10
117.008563
 20
180.953016
 30
0.0
 10
117.110466
 20
180.995168
 30
0.0
 10
117.185576
 20
181.070281
 30
0.0
  0
SPLINE
  5
256
100
AcDbEntity
  8
LCD
 62
7
100
AcDbSpline
 70
8
 71
3
 72
8
 73
4
 74
0
 40
0
 40
0
 40
0
 40
0
 40
1
 40
1
 40
1
 40
1
 10
117.185576
 20
181.070281
 30
0.0
 10
117.260687
 20
181.145393
 30
0.0
 10
117.302836
 20
181.247297
 30
0.0
 10
117.302730
 20
181.353520
 30
0.0
  0
LINE
  5
257
100
AcDbEntity
  8
LCD
 62
7
100
AcDbLine
 10
117.302730
 20
181.353520
 30
0.0
 11
117.302730
 21
182.201170
 31
0.0
  0
SPLINE
  5
258
100
AcDbEntity
  8
LCD
 62
7
100
AcDbSpline
 70
8
 71
3
 72
8
 73
4
 74
0
 40
0
 40
0
 40
0
 40
0
 40
1
 40
1
 40
1
 40
1
 10
117.302730
 20
182.201170
 30
0.0
 10
117.302834
 20
182.307392
 30
0.0
 10
117.260683
 20
182.409293
 30
0.0
 10
117.185573
 20
182.484403
 30
0.0
  0
SPLINE
  5
259
100
AcDbEntity
  8
LCD
 62
7
100
AcDbSpline
 70
8
 71
3
 72
8
 73
4
 74
0
 40
0
 40
0
 40
0
 40
0
 40
1
 40
1
 40
1
 40
1
 10
117.185573
 20
182.484403
 30
0.0
 10
117.110463
 20
182.559513
 30
0.0
 10
117.008562
 20
182.601664
 30
0.0
 10
116.902340
 20
182.601560
 30
0.0
  0
LINE
  5
25a
100
AcDbEntity
  8
LCD
 62
7
100
AcDbLine
 10
116.902340
 20
182.601560
 30
0.0
 11
116.902340
 21
182.601560
 31
0.0
  0
SPLINE
  5
25b
100
AcDbEntity
  8
LCD
 62
7
100
AcDbSpline
 70
8
 71
3
 72
8
 73
4
 74
0
 40
0
 40
0
 40
0
 40
0
 40
1
 40
1
 40
1
 40
1
 10
115.703130
 20
182.601560
 30
0.0
 10
115.596907
 20
182.601666
 30
0.0
 10
115.495003
 20
182.559517
 30
0.0
 10
115.419891
 20
182.484406
 30
0.0
  0
SPLINE
  5
25c
100
AcDbEntity
  8
LCD
 62
7
100
AcDbSpline
 70
8
 71
3
 72
8
 73
4
 74
0
 40
0
 40
0
 40
0
 40
0
 40
1
 40
1
 40
1
 40
1
 10
115.419891
 20
182.484406
 30
0.0
 10
115.344778
 20
182.409296
 30
0.0
 10
115.302626
 20
182.307393
 30
0.0
 10
115.302730
 20
182.201170
 30
0.0
  0
LINE
  5
25d
100
AcDbEntity
  8
LCD
 62
7
100
AcDbLine
 10
115.302730
 20
182.201170
 30
0.0
 11
115.302730
 21
181.353520
 31
0.0
  0
SPLINE
  5
25e
100
AcDbEntity
  8
LCD
 62
7
100
AcDbSpline
 70
8
 71
3
 72
8
 73
4
 74
0
 40
0
 40
0
 40
0
 40
0
 40
1
 40
1
 40
1
 40
1
 10
115.302730
 20
181.353520
 30
0.0
 10
115.302624
 20
181.247295
 30
0.0
 10
115.344774
 20
181.145390
 30
0.0
 10
115.419887
 20
181.070277
 30
0.0
  0
SPLINE
  5
25f
100
AcDbEntity
  8
LCD
 62
7
100
AcDbSpline
 70
8
 71
3
 72
8
 73
4
 74
0
 40
0
 40
0
 40
0
 40
0
 40
1
 40
1
 40
1
 40
1
 10
115.419887
 20
181.070277
 30
0.0
 10
115.495000
 20
180.995164
 30
0.0
 10
115.596905
 20
180.953014
 30
0.0
 10
115.703130
 20
180.953120
 30
0.0
  0
SPLINE
  5
260
100
AcDbEntity
  8
LCD
 62
7
100
AcDbSpline
 70
8
 71
3
 72
8
 73
4
 74
0
 40
0
 40
0
 40
0
 40
0
 40
1
 40
1
 40
1
 40
1
 10
115.703130
 20
180.953120
 30
0.0
 10
115.809353
 20
180.953016
 30
0.0
 10
115.911256
 20
180.995168
 30
0.0
 10
115.986366
 20
181.070281
 30
0.0
  0
SPLINE
  5
261
100
AcDbEntity
  8
LCD
 62
7
100
AcDbSpline
 70
8
 71
3
 72
8
 73
4
 74
0
 40
0
 40
0
 40
0
 40
0
 40
1
 40
1
 40
1
 40
1
 10
115.986366
 20
181.070281
 30
0.0
 10
116.061477
 20
181.145393
 30
0.0
 10
116.103626
 20
181.247297
 30
0.0
 10
116.103520
 20
181.353520
 30
0.0
  0
LINE
  5
262
100
AcDbEntity
  8
LCD
 62
7
100
AcDbLine
 10
116.103520
 20
181.353520
 30
0.0
 11
116.103520
 21
182.201170
 31
0.0
  0
SPLINE
  5
263
100
AcDbEntity
  8
LCD
 62
7
100
AcDbSpline
 70
8
 71
3
 72
8
 73
4
 74
0
 40
0
 40
0
 40
0
 40
0
 40
1
 40
1
 40
1
 40
1
 10
116.103520
 20
182.201170
 30
0.0
 10
116.103624
 20
182.307392
 30
0.0
 10
116.061473
 20
182.409293
 30
0.0
 10
115.986363
 20
182.484403
 30
0.0
  0
SPLINE
  5
264
100
AcDbEntity
  8
LCD
 62
7
100
AcDbSpline
 70
8
 71
3
 72
8
 73
4
 74
0
 40
0
 40
0
 40
0
 40
0
 40
1
 40
1
 40
1
 40
1
 10
115.986363
 20
182.484403
 30
0.0
 10
115.911253
 20
182.559513
 30
0.0
 10
115.809352
 20
182.601664
 30
0.0
 10
115.703130
 20
182.601560
 30
0.0
  0
LINE
  5
265
100
AcDbEntity
  8
LCD
 62
7
100
AcDbLine
 10
115.703130
 20
182.601560
 30
0.0
 11
115.703130
 21
182.601560
 31
0.0
  0
SPLINE
  5
266
100
AcDbEntity
  8
LCD
 62
7
100
AcDbSpline
 70
8
 71
3
 72
8
 73
4
 74
0
 40
0
 40
0
 40
0
 40
0
 40
1
 40
1
 40
1
 40
1
 10
114.501950
 20
182.601560
 30
0.0
 10
114.281497
 20
182.600695
 30
0.0
 10
114.103303
 20
182.421624
 30
0.0
 10
114.103520
 20
182.201170
 30
0.0
  0
LINE
  5
267
100
AcDbEntity
  8
LCD
 62
7
100
AcDbLine
 10
114.103520
 20
182.201170
 30
0.0
 11
114.103520
 21
181.353520
 31
0.0
  0
SPLINE
  5
268
100
AcDbEntity
  8
LCD
 62
7
100
AcDbSpline
 70
8
 71
3
 72
8
 73
4
 74
0
 40
0
 40
0
 40
0
 40
0
 40
1
 40
1
 40
1
 40
1
 10
114.103520
 20
181.353520
 30
0.0
 10
114.103298
 20
181.133062
 30
0.0
 10
114.281493
 20
180.953985
 30
0.0
 10
114.501950
 20
180.953120
 30
0.0
  0
SPLINE
  5
269
100
AcDbEntity
  8
LCD
 62
7
100
AcDbSpline
 70
8
 71
3
 72
8
 73
4
 74
0
 40
0
 40
0
 40
0
 40
0
 40
1
 40
1
 40
1
 40
1
 10
114.501950
 20
180.953120
 30
0.0
 10
114.608173
 20
180.953016
 30
0.0
 10
114.710076
 20
180.995168
 30
0.0
 10
114.785186
 20
181.070281
 30
0.0
  0
SPLINE
  5
26a
100
AcDbEntity
  8
LCD
 62
7
100
AcDbSpline
 70
8
 71
3
 72
8
 73
4
 74
0
 40
0
 40
0
 40
0
 40
0
 40
1
 40
1
 40
1
 40
1
 10
114.785186
 20
181.070281
 30
0.0
 10
114.860297
 20
181.145393
 30
0.0
 10
114.902446
 20
181.247297
 30
0.0
 10
114.902340
 20
181.353520
 30
0.0
  0
LINE
  5
26b
100
AcDbEntity
  8
LCD
 62
7
100
AcDbLine
 10
114.902340
 20
181.353520
 30
0.0
 11
114.902340
 21
182.201170
 31
0.0
  0
SPLINE
  5
26c
100
AcDbEntity
  8
LCD
 62
7
100
AcDbSpline
 70
8
 71
3
 72
8
 73
4
 74
0
 40
0
 40
0
 40
0
 40
0
 40
1
 40
1
 40
1
 40
1
 10
114.902340
 20
182.201170
 30
0.0
 10
114.902444
 20
182.307392
 30
0.0
 10
114.860293
 20
182.409293
 30
0.0
 10
114.785183
 20
182.484403
 30
0.0
  0
SPLINE
  5
26d
100
AcDbEntity
  8
LCD
 62
7
100
AcDbSpline
 70
8
 71
3
 72
8
 73
4
 74
0
 40
0
 40
0
 40
0
 40
0
 40
1
 40
1
 40
1
 40
1
 10
114.785183
 20
182.484403
 30
0.0
 10
114.710073
 20
182.559513
 30
0.0
 10
114.608172
 20
182.601664
 30
0.0
 10
114.501950
 20
182.601560
 30
0.0
  0
LINE
  5
26e
100
AcDbEntity
  8
LCD
 62
7
100
AcDbLine
 10
114.501950
 20
182.601560
 30
0.0
 11
114.501950
 21
182.601560
 31
0.0
  0
SPLINE
  5
26f
100
AcDbEntity
  8
LCD
 62
7
100
AcDbSpline
 70
8
 71
3
 72
8
 73
4
 74
0
 40
0
 40
0
 40
0
 40
0
 40
1
 40
1
 40
1
 40
1
 10
113.302730
 20
182.601560
 30
0.0
 10
113.196508
 20
182.601664
 30
0.0
 10
113.094607
 20
182.559513
 30
0.0
 10
113.019497
 20
182.484403
 30
0.0
  0
SPLINE
  5
270
100
AcDbEntity
  8
LCD
 62
7
100
AcDbSpline
 70
8
 71
3
 72
8
 73
4
 74
0
 40
0
 40
0
 40
0
 40
0
 40
1
 40
1
 40
1
 40
1
 10
113.019497
 20
182.484403
 30
0.0
 10
112.944387
 20
182.409293
 30
0.0
 10
112.902236
 20
182.307392
 30
0.0
 10
112.902340
 20
182.201170
 30
0.0
  0
LINE
  5
271
100
AcDbEntity
  8
LCD
 62
7
100
AcDbLine
 10
112.902340
 20
182.201170
 30
0.0
 11
112.902340
 21
181.353520
 31
0.0
  0
SPLINE
  5
272
100
AcDbEntity
  8
LCD
 62
7
100
AcDbSpline
 70
8
 71
3
 72
8
 73
4
 74
0
 40
0
 40
0
 40
0
 40
0
 40
1
 40
1
 40
1
 40
1
 10
112.902340
 20
181.353520
 30
0.0
 10
112.902234
 20
181.247297
 30
0.0
 10
112.944383
 20
181.145393
 30
0.0
 10
113.019494
 20
181.070281
 30
0.0
  0
SPLINE
  5
273
100
AcDbEntity
  8
LCD
 62
7
100
AcDbSpline
 70
8
 71
3
 72
8
 73
4
 74
0
 40
0
 40
0
 40
0
 40
0
 40
1
 40
1
 40
1
 40
1
 10
113.019494
 20
181.070281
 30
0.0
 10
113.094604
 20
180.995168
 30
0.0
 10
113.196507
 20
180.953016
 30
0.0
 10
113.302730
 20
180.953120
 30
0.0
  0
SPLINE
  5
274
100
AcDbEntity
  8
LCD
 62
7
100
AcDbSpline
 70
8
 71
3
 72
8
 73
4
 74
0
 40
0
 40
0
 40
0
 40
0
 40
1
 40
1
 40
1
 40
1
 10
113.302730
 20
180.953120
 30
0.0
 10
113.408955
 20
180.953014
 30
0.0
 10
113.510860
 20
180.995164
 30
0.0
 10
113.585973
 20
181.070277
 30
0.0
  0
SPLINE
  5
275
100
AcDbEntity
  8
LCD
 62
7
100
AcDbSpline
 70
8
 71
3
 72
8
 73
4
 74
0
 40
0
 40
0
 40
0
 40
0
 40
1
 40
1
 40
1
 40
1
 10
113.585973
 20
181.070277
 30
0.0
 10
113.661086
 20
181.145390
 30
0.0
 10
113.703236
 20
181.247295
 30
0.0
 10
113.703130
 20
181.353520
 30
0.0
  0
LINE
  5
276
100
AcDbEntity
  8
LCD
 62
7
100
AcDbLine
 10
113.703130
 20
181.353520
 30
0.0
 11
113.703130
 21
182.201170
 31
0.0
  0
SPLINE
  5
277
100
AcDbEntity
  8
LCD
 62
7
100
AcDbSpline
 70
8
 71
3
 72
8
 73
4
 74
0
 40
0
 40
0
 40
0
 40
0
 40
1
 40
1
 40
1
 40
1
 10
113.703130
 20
182.201170
 30
0.0
 10
113.703234
 20
182.307393
 30
0.0
 10
113.661082
 20
182.409296
 30
0.0
 10
113.585969
 20
182.484406
 30
0.0
  0
SPLINE
  5
278
100
AcDbEntity
  8
LCD
 62
7
100
AcDbSpline
 70
8
 71
3
 72
8
 73
4
 74
0
 40
0
 40
0
 40
0
 40
0
 40
1
 40
1
 40
1
 40
1
 10
113.585969
 20
182.484406
 30
0.0
 10
113.510857
 20
182.559517
 30
0.0
 10
113.408953
 20
182.601666
 30
0.0
 10
113.302730
 20
182.601560
 30
0.0
  0
LINE
  5
279
100
AcDbEntity
  8
LCD
 62
7
100
AcDbLine
 10
113.302730
 20
182.601560
 30
0.0
 11
113.302730
 21
182.601560
 31
0.0
  0
SPLINE
  5
27a
100
AcDbEntity
  8
LCD
 62
7
100
AcDbSpline
 70
8
 71
3
 72
8
 73
4
 74
0
 40
0
 40
0
 40
0
 40
0
 40
1
 40
1
 40
1
 40
1
 10
112.103520
 20
182.601560
 30
0.0
 10
111.997298
 20
182.601664
 30
0.0
 10
111.895397
 20
182.559513
 30
0.0
 10
111.820287
 20
182.484403
 30
0.0
  0
SPLINE
  5
27b
100
AcDbEntity
  8
LCD
 62
7
100
AcDbSpline
 70
8
 71
3
 72
8
 73
4
 74
0
 40
0
 40
0
 40
0
 40
0
 40
1
 40
1
 40
1
 40
1
 10
111.820287
 20
182.484403
 30
0.0
 10
111.745177
 20
182.409293
 30
0.0
 10
111.703026
 20
182.307392
 30
0.0
 10
111.703130
 20
182.201170
 30
0.0
  0
LINE
  5
27c
100
AcDbEntity
  8
LCD
 62
7
100
AcDbLine
 10
111.703130
 20
182.201170
 30
0.0
 11
111.703130
 21
181.353520
 31
0.0
  0
SPLINE
  5
27d
100
AcDbEntity
  8
LCD
 62
7
100
AcDbSpline
 70
8
 71
3
 72
8
 73
4
 74
0
 40
0
 40
0
 40
0
 40
0
 40
1
 40
1
 40
1
 40
1
 10
111.703130
 20
181.353520
 30
0.0
 10
111.703024
 20
181.247297
 30
0.0
 10
111.745173
 20
181.145393
 30
0.0
 10
111.820284
 20
181.070281
 30
0.0
  0
SPLINE
  5
27e
100
AcDbEntity
  8
LCD
 62
7
100
AcDbSpline
 70
8
 71
3
 72
8
 73
4
 74
0
 40
0
 40
0
 40
0
 40
0
 40
1
 40
1
 40
1
 40
1
 10
111.820284
 20
181.070281
 30
0.0
 10
111.895394
 20
180.995168
 30
0.0
 10
111.997297
 20
180.953016
 30
0.0
 10
112.103520
 20
180.953120
 30
0.0
  0
SPLINE
  5
27f
100
AcDbEntity
  8
LCD
 62
7
100
AcDbSpline
 70
8
 71
3
 72
8
 73
4
 74
0
 40
0
 40
0
 40
0
 40
0
 40
1
 40
1
 40
1
 40
1
 10
112.103520
 20
180.953120
 30
0.0
 10
112.323977
 20
180.953985
 30
0.0
 10
112.502172
 20
181.133062
 30
0.0
 10
112.501950
 20
181.353520
 30
0.0
  0
LINE
  5
280
100
AcDbEntity
  8
LCD
 62
7
100
AcDbLine
 10
112.501950
 20
181.353520
 30
0.0
 11
112.501950
 21
182.201170
 31
0.0
  0
SPLINE
  5
281
100
AcDbEntity
  8
LCD
 62
7
100
AcDbSpline
 70
8
 71
3
 72
8
 73
4
 74
0
 40
0
 40
0
 40
0
 40
0
 40
1
 40
1
 40
1
 40
1
 10
112.501950
 20
182.201170
 30
0.0
 10
112.502167
 20
182.421624
 30
0.0
 10
112.323973
 20
182.600695
 30
0.0
 10
112.103520
 20
182.601560
 30
0.0
  0
LINE
  5
282
100
AcDbEntity
  8
LCD
 62
7
100
AcDbLine
 10
112.103520
 20
182.601560
 30
0.0
 11
112.103520
 21
182.601560
 31
0.0
  0
SPLINE
  5
283
100
AcDbEntity
  8
LCD
 62
7
100
AcDbSpline
 70
8
 71
3
 72
8
 73
4
 74
0
 40
0
 40
0
 40
0
 40
0
 40
1
 40
1
 40
1
 40
1
 10
110.902340
 20
182.601560
 30
0.0
 10
110.796118
 20
182.601664
 30
0.0
 10
110.694217
 20
182.559513
 30
0.0
 10
110.619107
 20
182.484403
 30
0.0
  0
SPLINE
  5
284
100
AcDbEntity
  8
LCD
 62
7
100
AcDbSpline
 70
8
 71
3
 72
8
 73
4
 74
0
 40
0
 40
0
 40
0
 40
0
 40
1
 40
1
 40
1
 40
1
 10
110.619107
 20
182.484403
 30
0.0
 10
110.543997
 20
182.409293
 30
0.0
 10
110.501846
 20
182.307392
 30
0.0
 10
110.501950
 20
182.201170
 30
0.0
  0
LINE
  5
285
100
AcDbEntity
  8
LCD
 62
7
100
AcDbLine
 10
110.501950
 20
182.201170
 30
0.0
 11
110.501950
 21
181.353520
 31
0.0
  0
SPLINE
  5
286
100
AcDbEntity
  8
LCD
 62
7
100
AcDbSpline
 70
8
 71
3
 72
8
 73
4
 74
0
 40
0
 40
0
 40
0
 40
0
 40
1
 40
1
 40
1
 40
1
 10
110.501950
 20
181.353520
 30
0.0
 10
110.501844
 20
181.247297
 30
0.0
 10
110.543993
 20
181.145393
 30
0.0
 10
110.619104
 20
181.070281
 30
0.0
  0
SPLINE
  5
287
100
AcDbEntity
  8
LCD
 62
7
100
AcDbSpline
 70
8
 71
3
 72
8
 73
4
 74
0
 40
0
 40
0
 40
0
 40
0
 40
1
 40
1
 40
1
 40
1
 10
110.619104
 20
181.070281
 30
0.0
 10
110.694214
 20
180.995168
 30
0.0
 10
110.796117
 20
180.953016
 30
0.0
 10
110.902340
 20
180.953120
 30
0.0
  0
SPLINE
  5
288
100
AcDbEntity
  8
LCD
 62
7
100
AcDbSpline
 70
8
 71
3
 72
8
 73
4
 74
0
 40
0
 40
0
 40
0
 40
0
 40
1
 40
1
 40
1
 40
1
 10
110.902340
 20
180.953120
 30
0.0
 10
111.008563
 20
180.953016
 30
0.0
 10
111.110466
 20
180.995168
 30
0.0
 10
111.185576
 20
181.070281
 30
0.0
  0
SPLINE
  5
289
100
AcDbEntity
  8
LCD
 62
7
100
AcDbSpline
 70
8
 71
3
 72
8
 73
4
 74
0
 40
0
 40
0
 40
0
 40
0
 40
1
 40
1
 40
1
 40
1
 10
111.185576
 20
181.070281
 30
0.0
 10
111.260687
 20
181.145393
 30
0.0
 10
111.302836
 20
181.247297
 30
0.0
 10
111.302730
 20
181.353520
 30
0.0
  0
LINE
  5
28a
100
AcDbEntity
  8
LCD
 62
7
100
AcDbLine
 10
111.302730
 20
181.353520
 30
0.0
 11
111.302730
 21
182.201170
 31
0.0
  0
SPLINE
  5
28b
100
AcDbEntity
  8
LCD
 62
7
100
AcDbSpline
 70
8
 71
3
 72
8
 73
4
 74
0
 40
0
 40
0
 40
0
 40
0
 40
1
 40
1
 40
1
 40
1
 10
111.302730
 20
182.201170
 30
0.0
 10
111.302834
 20
182.307392
 30
0.0
 10
111.260683
 20
182.409293
 30
0.0
 10
111.185573
 20
182.484403
 30
0.0
  0
SPLINE
  5
28c
100
AcDbEntity
  8
LCD
 62
7
100
AcDbSpline
 70
8
 71
3
 72
8
 73
4
 74
0
 40
0
 40
0
 40
0
 40
0
 40
1
 40
1
 40
1
 40
1
 10
111.185573
 20
182.484403
 30
0.0
 10
111.110463
 20
182.559513
 30
0.0
 10
111.008562
 20
182.601664
 30
0.0
 10
110.902340
 20
182.601560
 30
0.0
  0
LINE
  5
28d
100
AcDbEntity
  8
LCD
 62
7
100
AcDbLine
 10
110.902340
 20
182.601560
 30
0.0
 11
110.902340
 21
182.601560
 31
0.0
  0
LINE
  5
28e
100
AcDbEntity
  8
LCD
 62
7
100
AcDbLine
 10
17.085308
 20
201.924371
 30
0.0
 11
17.085308
 21
203.578012
 31
0.0
  0
SPLINE
  5
28f
100
AcDbEntity
  8
LCD
 62
7
100
AcDbSpline
 70
8
 71
3
 72
8
 73
4
 74
0
 40
0
 40
0
 40
0
 40
0
 40
1
 40
1
 40
1
 40
1
 10
17.085308
 20
203.578012
 30
0.0
 10
17.385030
 20
203.326521
 30
0.0
 10
17.710590
 20
203.137041
 30
0.0
 10
18.061989
 20
203.009573
 30
0.0
  0
SPLINE
  5
290
100
AcDbEntity
  8
LCD
 62
7
100
AcDbSpline
 70
8
 71
3
 72
8
 73
4
 74
0
 40
0
 40
0
 40
0
 40
0
 40
1
 40
1
 40
1
 40
1
 10
18.061989
 20
203.009573
 30
0.0
 10
18.413388
 20
202.885550
 30
0.0
 10
18.768231
 20
202.823539
 30
0.0
 10
19.126520
 20
202.823539
 30
0.0
  0
SPLINE
  5
291
100
AcDbEntity
  8
LCD
 62
7
100
AcDbSpline
 70
8
 71
3
 72
8
 73
4
 74
0
 40
0
 40
0
 40
0
 40
0
 40
1
 40
1
 40
1
 40
1
 10
19.126520
 20
202.823539
 30
0.0
 10
19.336671
 20
202.823539
 30
0.0
 10
19.519260
 20
202.842486
 30
0.0
 10
19.674289
 20
202.880379
 30
0.0
  0
SPLINE
  5
292
100
AcDbEntity
  8
LCD
 62
7
100
AcDbSpline
 70
8
 71
3
 72
8
 73
4
 74
0
 40
0
 40
0
 40
0
 40
0
 40
1
 40
1
 40
1
 40
1
 10
19.674289
 20
202.880379
 30
0.0
 10
19.832763
 20
202.918272
 30
0.0
 10
19.963676
 20
202.969949
 30
0.0
 10
20.067028
 20
203.035408
 30
0.0
  0
SPLINE
  5
293
100
AcDbEntity
  8
LCD
 62
7
100
AcDbSpline
 70
8
 71
3
 72
8
 73
4
 74
0
 40
0
 40
0
 40
0
 40
0
 40
1
 40
1
 40
1
 40
1
 10
20.067028
 20
203.035408
 30
0.0
 10
20.173826
 20
203.104310
 30
0.0
 10
20.253063
 20
203.183547
 30
0.0
 10
20.304739
 20
203.273119
 30
0.0
  0
SPLINE
  5
294
100
AcDbEntity
  8
LCD
 62
7
100
AcDbSpline
 70
8
 71
3
 72
8
 73
4
 74
0
 40
0
 40
0
 40
0
 40
0
 40
1
 40
1
 40
1
 40
1
 10
20.304739
 20
203.273119
 30
0.0
 10
20.356412
 20
203.366136
 30
0.0
 10
20.382249
 20
203.466044
 30
0.0
 10
20.382249
 20
203.572841
 30
0.0
  0
SPLINE
  5
295
100
AcDbEntity
  8
LCD
 62
7
100
AcDbSpline
 70
8
 71
3
 72
8
 73
4
 74
0
 40
0
 40
0
 40
0
 40
0
 40
1
 40
1
 40
1
 40
1
 10
20.382249
 20
203.572841
 30
0.0
 10
20.382249
 20
203.717535
 30
0.0
 10
20.340908
 20
203.846726
 30
0.0
 10
20.258226
 20
203.960413
 30
0.0
  0
SPLINE
  5
296
100
AcDbEntity
  8
LCD
 62
7
100
AcDbSpline
 70
8
 71
3
 72
8
 73
4
 74
0
 40
0
 40
0
 40
0
 40
0
 40
1
 40
1
 40
1
 40
1
 10
20.258226
 20
203.960413
 30
0.0
 10
20.175544
 20
204.074101
 30
0.0
 10
20.061856
 20
204.179176
 30
0.0
 10
19.917162
 20
204.275639
 30
0.0
  0
SPLINE
  5
297
100
AcDbEntity
  8
LCD
 62
7
100
AcDbSpline
 70
8
 71
3
 72
8
 73
4
 74
0
 40
0
 40
0
 40
0
 40
0
 40
1
 40
1
 40
1
 40
1
 10
19.917162
 20
204.275639
 30
0.0
 10
19.775914
 20
204.372101
 30
0.0
 10
19.607105
 20
204.465118
 30
0.0
 10
19.410735
 20
204.554690
 30
0.0
  0
SPLINE
  5
298
100
AcDbEntity
  8
LCD
 62
7
100
AcDbSpline
 70
8
 71
3
 72
8
 73
4
 74
0
 40
0
 40
0
 40
0
 40
0
 40
1
 40
1
 40
1
 40
1
 10
19.410735
 20
204.554690
 30
0.0
 10
19.214365
 20
204.644263
 30
0.0
 10
19.002492
 20
204.735558
 30
0.0
 10
18.775117
 20
204.828575
 30
0.0
  0
SPLINE
  5
299
100
AcDbEntity
  8
LCD
 62
7
100
AcDbSpline
 70
8
 71
3
 72
8
 73
4
 74
0
 40
0
 40
0
 40
0
 40
0
 40
1
 40
1
 40
1
 40
1
 10
18.775117
 20
204.828575
 30
0.0
 10
18.196342
 20
205.069731
 30
0.0
 10
17.763984
 20
205.364286
 30
0.0
 10
17.478042
 20
205.712239
 30
0.0
  0
SPLINE
  5
29a
100
AcDbEntity
  8
LCD
 62
7
100
AcDbSpline
 70
8
 71
3
 72
8
 73
4
 74
0
 40
0
 40
0
 40
0
 40
0
 40
1
 40
1
 40
1
 40
1
 10
17.478042
 20
205.712239
 30
0.0
 10
17.195545
 20
206.060192
 30
0.0
 10
17.054297
 20
206.480493
 30
0.0
 10
17.054297
 20
206.973140
 30
0.0
  0
SPLINE
  5
29b
100
AcDbEntity
  8
LCD
 62
7
100
AcDbSpline
 70
8
 71
3
 72
8
 73
4
 74
0
 40
0
 40
0
 40
0
 40
0
 40
1
 40
1
 40
1
 40
1
 10
17.054297
 20
206.973140
 30
0.0
 10
17.054297
 20
207.358989
 30
0.0
 10
17.131811
 20
207.689717
 30
0.0
 10
17.286840
 20
207.965324
 30
0.0
  0
SPLINE
  5
29c
100
AcDbEntity
  8
LCD
 62
7
100
AcDbSpline
 70
8
 71
3
 72
8
 73
4
 74
0
 40
0
 40
0
 40
0
 40
0
 40
1
 40
1
 40
1
 40
1
 10
17.286840
 20
207.965324
 30
0.0
 10
17.441869
 20
208.244376
 30
0.0
 10
17.652019
 20
208.473474
 30
0.0
 10
17.917291
 20
208.652619
 30
0.0
  0
SPLINE
  5
29d
100
AcDbEntity
  8
LCD
 62
7
100
AcDbSpline
 70
8
 71
3
 72
8
 73
4
 74
0
 40
0
 40
0
 40
0
 40
0
 40
1
 40
1
 40
1
 40
1
 10
17.917291
 20
208.652619
 30
0.0
 10
18.186008
 20
208.831763
 30
0.0
 10
18.496065
 20
208.962676
 30
0.0
 10
18.847463
 20
209.045358
 30
0.0
  0
SPLINE
  5
29e
100
AcDbEntity
  8
LCD
 62
7
100
AcDbSpline
 70
8
 71
3
 72
8
 73
4
 74
0
 40
0
 40
0
 40
0
 40
0
 40
1
 40
1
 40
1
 40
1
 10
18.847463
 20
209.045358
 30
0.0
 10
19.198862
 20
209.131485
 30
0.0
 10
19.570931
 20
209.174549
 30
0.0
 10
19.963671
 20
209.174549
 30
0.0
  0
SPLINE
  5
29f
100
AcDbEntity
  8
LCD
 62
7
100
AcDbSpline
 70
8
 71
3
 72
8
 73
4
 74
0
 40
0
 40
0
 40
0
 40
0
 40
1
 40
1
 40
1
 40
1
 10
19.963671
 20
209.174549
 30
0.0
 10
20.349520
 20
209.174549
 30
0.0
 10
20.690584
 20
209.150432
 30
0.0
 10
20.986861
 20
209.102199
 30
0.0
  0
SPLINE
  5
2a0
100
AcDbEntity
  8
LCD
 62
7
100
AcDbSpline
 70
8
 71
3
 72
8
 73
4
 74
0
 40
0
 40
0
 40
0
 40
0
 40
1
 40
1
 40
1
 40
1
 10
20.986861
 20
209.102199
 30
0.0
 10
21.286583
 20
209.057412
 30
0.0
 10
21.562190
 20
208.986788
 30
0.0
 10
21.813681
 20
208.890326
 30
0.0
  0
LINE
  5
2a1
100
AcDbEntity
  8
LCD
 62
7
100
AcDbLine
 10
21.813681
 20
208.890326
 30
0.0
 11
21.813681
 21
207.345206
 31
0.0
  0
SPLINE
  5
2a2
100
AcDbEntity
  8
LCD
 62
7
100
AcDbSpline
 70
8
 71
3
 72
8
 73
4
 74
0
 40
0
 40
0
 40
0
 40
0
 40
1
 40
1
 40
1
 40
1
 10
21.813681
 20
207.345206
 30
0.0
 10
21.689658
 20
207.431333
 30
0.0
 10
21.553578
 20
207.507125
 30
0.0
 10
21.405439
 20
207.572582
 30
0.0
  0
SPLINE
  5
2a3
100
AcDbEntity
  8
LCD
 62
7
100
AcDbSpline
 70
8
 71
3
 72
8
 73
4
 74
0
 40
0
 40
0
 40
0
 40
0
 40
1
 40
1
 40
1
 40
1
 10
21.405439
 20
207.572582
 30
0.0
 10
21.260745
 20
207.638035
 30
0.0
 10
21.110884
 20
207.691434
 30
0.0
 10
20.955855
 20
207.732778
 30
0.0
  0
SPLINE
  5
2a4
100
AcDbEntity
  8
LCD
 62
7
100
AcDbSpline
 70
8
 71
3
 72
8
 73
4
 74
0
 40
0
 40
0
 40
0
 40
0
 40
1
 40
1
 40
1
 40
1
 10
20.955855
 20
207.732778
 30
0.0
 10
20.800826
 20
207.777565
 30
0.0
 10
20.645798
 20
207.810295
 30
0.0
 10
20.490769
 20
207.830968
 30
0.0
  0
SPLINE
  5
2a5
100
AcDbEntity
  8
LCD
 62
7
100
AcDbSpline
 70
8
 71
3
 72
8
 73
4
 74
0
 40
0
 40
0
 40
0
 40
0
 40
1
 40
1
 40
1
 40
1
 10
20.490769
 20
207.830968
 30
0.0
 10
20.339185
 20
207.851641
 30
0.0
 10
20.194491
 20
207.861978
 30
0.0
 10
20.056688
 20
207.861978
 30
0.0
  0
SPLINE
  5
2a6
100
AcDbEntity
  8
LCD
 62
7
100
AcDbSpline
 70
8
 71
3
 72
8
 73
4
 74
0
 40
0
 40
0
 40
0
 40
0
 40
1
 40
1
 40
1
 40
1
 10
20.056688
 20
207.861978
 30
0.0
 10
19.867209
 20
207.861978
 30
0.0
 10
19.694954
 20
207.843031
 30
0.0
 10
19.539925
 20
207.805138
 30
0.0
  0
SPLINE
  5
2a7
100
AcDbEntity
  8
LCD
 62
7
100
AcDbSpline
 70
8
 71
3
 72
8
 73
4
 74
0
 40
0
 40
0
 40
0
 40
0
 40
1
 40
1
 40
1
 40
1
 10
19.539925
 20
207.805138
 30
0.0
 10
19.384896
 20
207.770685
 30
0.0
 10
19.253983
 20
207.720731
 30
0.0
 10
19.147186
 20
207.655277
 30
0.0
  0
SPLINE
  5
2a8
100
AcDbEntity
  8
LCD
 62
7
100
AcDbSpline
 70
8
 71
3
 72
8
 73
4
 74
0
 40
0
 40
0
 40
0
 40
0
 40
1
 40
1
 40
1
 40
1
 10
19.147186
 20
207.655277
 30
0.0
 10
19.040388
 20
207.589817
 30
0.0
 10
18.957706
 20
207.510580
 30
0.0
 10
18.899140
 20
207.417566
 30
0.0
  0
SPLINE
  5
2a9
100
AcDbEntity
  8
LCD
 62
7
100
AcDbSpline
 70
8
 71
3
 72
8
 73
4
 74
0
 40
0
 40
0
 40
0
 40
0
 40
1
 40
1
 40
1
 40
1
 10
18.899140
 20
207.417566
 30
0.0
 10
18.840573
 20
207.327993
 30
0.0
 10
18.811290
 20
207.226363
 30
0.0
 10
18.811290
 20
207.112676
 30
0.0
  0
SPLINE
  5
2aa
100
AcDbEntity
  8
LCD
 62
7
100
AcDbSpline
 70
8
 71
3
 72
8
 73
4
 74
0
 40
0
 40
0
 40
0
 40
0
 40
1
 40
1
 40
1
 40
1
 10
18.811290
 20
207.112676
 30
0.0
 10
18.811290
 20
206.988653
 30
0.0
 10
18.844017
 20
206.876687
 30
0.0
 10
18.909470
 20
206.776780
 30
0.0
  0
SPLINE
  5
2ab
100
AcDbEntity
  8
LCD
 62
7
100
AcDbSpline
 70
8
 71
3
 72
8
 73
4
 74
0
 40
0
 40
0
 40
0
 40
0
 40
1
 40
1
 40
1
 40
1
 10
18.909470
 20
206.776780
 30
0.0
 10
18.974930
 20
206.680317
 30
0.0
 10
19.067947
 20
206.587300
 30
0.0
 10
19.188522
 20
206.497728
 30
0.0
  0
SPLINE
  5
2ac
100
AcDbEntity
  8
LCD
 62
7
100
AcDbSpline
 70
8
 71
3
 72
8
 73
4
 74
0
 40
0
 40
0
 40
0
 40
0
 40
1
 40
1
 40
1
 40
1
 10
19.188522
 20
206.497728
 30
0.0
 10
19.309100
 20
206.411601
 30
0.0
 10
19.455516
 20
206.325474
 30
0.0
 10
19.627770
 20
206.239347
 30
0.0
  0
SPLINE
  5
2ad
100
AcDbEntity
  8
LCD
 62
7
100
AcDbSpline
 70
8
 71
3
 72
8
 73
4
 74
0
 40
0
 40
0
 40
0
 40
0
 40
1
 40
1
 40
1
 40
1
 10
19.627770
 20
206.239347
 30
0.0
 10
19.800024
 20
206.156665
 30
0.0
 10
19.994671
 20
206.070538
 30
0.0
 10
20.211712
 20
205.980965
 30
0.0
  0
SPLINE
  5
2ae
100
AcDbEntity
  8
LCD
 62
7
100
AcDbSpline
 70
8
 71
3
 72
8
 73
4
 74
0
 40
0
 40
0
 40
0
 40
0
 40
1
 40
1
 40
1
 40
1
 10
20.211712
 20
205.980965
 30
0.0
 10
20.507989
 20
205.856942
 30
0.0
 10
20.773261
 20
205.724307
 30
0.0
 10
21.007526
 20
205.583058
 30
0.0
  0
SPLINE
  5
2af
100
AcDbEntity
  8
LCD
 62
7
100
AcDbSpline
 70
8
 71
3
 72
8
 73
4
 74
0
 40
0
 40
0
 40
0
 40
0
 40
1
 40
1
 40
1
 40
1
 10
21.007526
 20
205.583058
 30
0.0
 10
21.245237
 20
205.445255
 30
0.0
 10
21.448497
 20
205.288503
 30
0.0
 10
21.617306
 20
205.112804
 30
0.0
  0
SPLINE
  5
2b0
100
AcDbEntity
  8
LCD
 62
7
100
AcDbSpline
 70
8
 71
3
 72
8
 73
4
 74
0
 40
0
 40
0
 40
0
 40
0
 40
1
 40
1
 40
1
 40
1
 10
21.617306
 20
205.112804
 30
0.0
 10
21.786115
 20
204.937105
 30
0.0
 10
21.915306
 20
204.735567
 30
0.0
 10
22.004878
 20
204.508192
 30
0.0
  0
SPLINE
  5
2b1
100
AcDbEntity
  8
LCD
 62
7
100
AcDbSpline
 70
8
 71
3
 72
8
 73
4
 74
0
 40
0
 40
0
 40
0
 40
0
 40
1
 40
1
 40
1
 40
1
 10
22.004878
 20
204.508192
 30
0.0
 10
22.094451
 20
204.284261
 30
0.0
 10
22.139237
 20
204.022435
 30
0.0
 10
22.139237
 20
203.722713
 30
0.0
  0
SPLINE
  5
2b2
100
AcDbEntity
  8
LCD
 62
7
100
AcDbSpline
 70
8
 71
3
 72
8
 73
4
 74
0
 40
0
 40
0
 40
0
 40
0
 40
1
 40
1
 40
1
 40
1
 10
22.139237
 20
203.722713
 30
0.0
 10
22.139237
 20
203.309302
 30
0.0
 10
22.060000
 20
202.961349
 30
0.0
 10
21.901526
 20
202.678852
 30
0.0
  0
SPLINE
  5
2b3
100
AcDbEntity
  8
LCD
 62
7
100
AcDbSpline
 70
8
 71
3
 72
8
 73
4
 74
0
 40
0
 40
0
 40
0
 40
0
 40
1
 40
1
 40
1
 40
1
 10
21.901526
 20
202.678852
 30
0.0
 10
21.746497
 20
202.399800
 30
0.0
 10
21.534625
 20
202.172424
 30
0.0
 10
21.265908
 20
201.996725
 30
0.0
  0
SPLINE
  5
2b4
100
AcDbEntity
  8
LCD
 62
7
100
AcDbSpline
 70
8
 71
3
 72
8
 73
4
 74
0
 40
0
 40
0
 40
0
 40
0
 40
1
 40
1
 40
1
 40
1
 10
21.265908
 20
201.996725
 30
0.0
 10
20.997191
 20
201.824471
 30
0.0
 10
20.683689
 20
201.700448
 30
0.0
 10
20.325400
 20
201.624656
 30
0.0
  0
SPLINE
  5
2b5
100
AcDbEntity
  8
LCD
 62
7
100
AcDbSpline
 70
8
 71
3
 72
8
 73
4
 74
0
 40
0
 40
0
 40
0
 40
0
 40
1
 40
1
 40
1
 40
1
 10
20.325400
 20
201.624656
 30
0.0
 10
19.970556
 20
201.548864
 30
0.0
 10
19.595042
 20
201.510968
 30
0.0
 10
19.198857
 20
201.510968
 30
0.0
  0
SPLINE
  5
2b6
100
AcDbEntity
  8
LCD
 62
7
100
AcDbSpline
 70
8
 71
3
 72
8
 73
4
 74
0
 40
0
 40
0
 40
0
 40
0
 40
1
 40
1
 40
1
 40
1
 10
19.198857
 20
201.510968
 30
0.0
 10
18.792337
 20
201.510968
 30
0.0
 10
18.404765
 20
201.545419
 30
0.0
 10
18.036141
 20
201.614321
 30
0.0
  0
SPLINE
  5
2b7
100
AcDbEntity
  8
LCD
 62
7
100
AcDbSpline
 70
8
 71
3
 72
8
 73
4
 74
0
 40
0
 40
0
 40
0
 40
0
 40
1
 40
1
 40
1
 40
1
 10
18.036141
 20
201.614321
 30
0.0
 10
17.670962
 20
201.683222
 30
0.0
 10
17.354015
 20
201.786575
 30
0.0
 10
17.085298
 20
201.924378
 30
0.0
  0
LINE
  5
2b8
100
AcDbEntity
  8
LCD
 62
7
100
AcDbLine
 10
17.085298
 20
201.924378
 30
0.0
 11
17.085308
 21
201.924371
 31
0.0
  0
LINE
  5
2b9
100
AcDbEntity
  8
LCD
 62
7
100
AcDbLine
 10
31.802709
 20
201.640152
 30
0.0
 11
30.154236
 21
201.640152
 31
0.0
  0
LINE
  5
2ba
100
AcDbEntity
  8
LCD
 62
7
100
AcDbLine
 10
30.154236
 20
201.640152
 30
0.0
 11
30.154236
 21
206.073976
 31
0.0
  0
SPLINE
  5
2bb
100
AcDbEntity
  8
LCD
 62
7
100
AcDbSpline
 70
8
 71
3
 72
8
 73
4
 74
0
 40
0
 40
0
 40
0
 40
0
 40
1
 40
1
 40
1
 40
1
 10
30.154236
 20
206.073976
 30
0.0
 10
30.154236
 20
206.552843
 30
0.0
 10
30.174906
 20
207.081663
 30
0.0
 10
30.216246
 20
207.660437
 30
0.0
  0
LINE
  5
2bc
100
AcDbEntity
  8
LCD
 62
7
100
AcDbLine
 10
30.216246
 20
207.660437
 30
0.0
 11
30.174906
 21
207.660437
 31
0.0
  0
SPLINE
  5
2bd
100
AcDbEntity
  8
LCD
 62
7
100
AcDbSpline
 70
8
 71
3
 72
8
 73
4
 74
0
 40
0
 40
0
 40
0
 40
0
 40
1
 40
1
 40
1
 40
1
 10
30.174906
 20
207.660437
 30
0.0
 10
30.088779
 20
207.205686
 30
0.0
 10
30.011265
 20
206.878403
 30
0.0
 10
29.942363
 20
206.678588
 30
0.0
  0
LINE
  5
2be
100
AcDbEntity
  8
LCD
 62
7
100
AcDbLine
 10
29.942363
 20
206.678588
 30
0.0
 11
28.206041
 21
201.640152
 31
0.0
  0
LINE
  5
2bf
100
AcDbEntity
  8
LCD
 62
7
100
AcDbLine
 10
28.206041
 20
201.640152
 30
0.0
 11
26.841787
 21
201.640152
 31
0.0
  0
LINE
  5
2c0
100
AcDbEntity
  8
LCD
 62
7
100
AcDbLine
 10
26.841787
 20
201.640152
 30
0.0
 11
25.074459
 21
206.626912
 31
0.0
  0
SPLINE
  5
2c1
100
AcDbEntity
  8
LCD
 62
7
100
AcDbSpline
 70
8
 71
3
 72
8
 73
4
 74
0
 40
0
 40
0
 40
0
 40
0
 40
1
 40
1
 40
1
 40
1
 10
25.074459
 20
206.626912
 30
0.0
 10
25.026226
 20
206.761270
 30
0.0
 10
24.948711
 20
207.105778
 30
0.0
 10
24.841915
 20
207.660437
 30
0.0
  0
LINE
  5
2c2
100
AcDbEntity
  8
LCD
 62
7
100
AcDbLine
 10
24.841915
 20
207.660437
 30
0.0
 11
24.795405
 21
207.660437
 31
0.0
  0
SPLINE
  5
2c3
100
AcDbEntity
  8
LCD
 62
7
100
AcDbSpline
 70
8
 71
3
 72
8
 73
4
 74
0
 40
0
 40
0
 40
0
 40
0
 40
1
 40
1
 40
1
 40
1
 10
24.795405
 20
207.660437
 30
0.0
 10
24.840192
 20
206.930079
 30
0.0
 10
24.862585
 20
206.289293
 30
0.0
 10
24.862585
 20
205.738080
 30
0.0
  0
LINE
  5
2c4
100
AcDbEntity
  8
LCD
 62
7
100
AcDbLine
 10
24.862585
 20
205.738080
 30
0.0
 11
24.862585
 21
201.640152
 31
0.0
  0
LINE
  5
2c5
100
AcDbEntity
  8
LCD
 62
7
100
AcDbLine
 10
24.862585
 20
201.640152
 30
0.0
 11
23.358806
 21
201.640152
 31
0.0
  0
LINE
  5
2c6
100
AcDbEntity
  8
LCD
 62
7
100
AcDbLine
 10
23.358806
 20
201.640152
 30
0.0
 11
23.358806
 21
209.050529
 31
0.0
  0
LINE
  5
2c7
100
AcDbEntity
  8
LCD
 62
7
100
AcDbLine
 10
23.358806
 20
209.050529
 30
0.0
 11
25.803093
 21
209.050529
 31
0.0
  0
LINE
  5
2c8
100
AcDbEntity
  8
LCD
 62
7
100
AcDbLine
 10
25.803093
 20
209.050529
 30
0.0
 11
27.317208
 21
204.658046
 31
0.0
  0
SPLINE
  5
2c9
100
AcDbEntity
  8
LCD
 62
7
100
AcDbSpline
 70
8
 71
3
 72
8
 73
4
 74
0
 40
0
 40
0
 40
0
 40
0
 40
1
 40
1
 40
1
 40
1
 10
27.317208
 20
204.658046
 30
0.0
 10
27.437786
 20
204.306647
 30
0.0
 10
27.525636
 20
203.953526
 30
0.0
 10
27.580757
 20
203.598683
 30
0.0
  0
LINE
  5
2ca
100
AcDbEntity
  8
LCD
 62
7
100
AcDbLine
 10
27.580757
 20
203.598683
 30
0.0
 11
27.611767
 21
203.598683
 31
0.0
  0
SPLINE
  5
2cb
100
AcDbEntity
  8
LCD
 62
7
100
AcDbSpline
 70
8
 71
3
 72
8
 73
4
 74
0
 40
0
 40
0
 40
0
 40
0
 40
1
 40
1
 40
1
 40
1
 10
27.611767
 20
203.598683
 30
0.0
 10
27.704784
 20
204.008648
 30
0.0
 10
27.802969
 20
204.365214
 30
0.0
 10
27.906322
 20
204.668381
 30
0.0
  0
LINE
  5
2cc
100
AcDbEntity
  8
LCD
 62
7
100
AcDbLine
 10
27.906322
 20
204.668381
 30
0.0
 11
29.420437
 21
209.050529
 31
0.0
  0
LINE
  5
2cd
100
AcDbEntity
  8
LCD
 62
7
100
AcDbLine
 10
29.420437
 20
209.050529
 30
0.0
 11
31.802713
 21
209.050529
 31
0.0
  0
LINE
  5
2ce
100
AcDbEntity
  8
LCD
 62
7
100
AcDbLine
 10
31.802713
 20
209.050529
 30
0.0
 11
31.802709
 21
201.640152
 31
0.0
  0
LINE
  5
2cf
100
AcDbEntity
  8
LCD
 62
7
100
AcDbLine
 10
40.003732
 20
201.640152
 30
0.0
 11
38.184727
 21
201.640152
 31
0.0
  0
LINE
  5
2d0
100
AcDbEntity
  8
LCD
 62
7
100
AcDbLine
 10
38.184727
 20
201.640152
 30
0.0
 11
37.657630
 21
203.288625
 31
0.0
  0
LINE
  5
2d1
100
AcDbEntity
  8
LCD
 62
7
100
AcDbLine
 10
37.657630
 20
203.288625
 30
0.0
 11
35.022140
 21
203.288625
 31
0.0
  0
LINE
  5
2d2
100
AcDbEntity
  8
LCD
 62
7
100
AcDbLine
 10
35.022140
 20
203.288625
 30
0.0
 11
34.500210
 21
201.640152
 31
0.0
  0
LINE
  5
2d3
100
AcDbEntity
  8
LCD
 62
7
100
AcDbLine
 10
34.500210
 20
201.640152
 30
0.0
 11
32.691540
 21
201.640152
 31
0.0
  0
LINE
  5
2d4
100
AcDbEntity
  8
LCD
 62
7
100
AcDbLine
 10
32.691540
 20
201.640152
 30
0.0
 11
35.389041
 21
209.050529
 31
0.0
  0
LINE
  5
2d5
100
AcDbEntity
  8
LCD
 62
7
100
AcDbLine
 10
35.389041
 20
209.050529
 30
0.0
 11
37.368242
 21
209.050529
 31
0.0
  0
LINE
  5
2d6
100
AcDbEntity
  8
LCD
 62
7
100
AcDbLine
 10
37.368242
 20
209.050529
 30
0.0
 11
40.003732
 21
201.640152
 31
0.0
  0
LINE
  5
2d7
100
AcDbEntity
  8
LCD
 62
7
100
AcDbLine
 10
37.275225
 20
204.570196
 30
0.0
 11
36.479411
 21
207.060992
 31
0.0
  0
SPLINE
  5
2d8
100
AcDbEntity
  8
LCD
 62
7
100
AcDbSpline
 70
8
 71
3
 72
8
 73
4
 74
0
 40
0
 40
0
 40
0
 40
0
 40
1
 40
1
 40
1
 40
1
 10
36.479411
 20
207.060992
 30
0.0
 10
36.420844
 20
207.247027
 30
0.0
 10
36.379503
 20
207.469235
 30
0.0
 10
36.355388
 20
207.727616
 30
0.0
  0
LINE
  5
2d9
100
AcDbEntity
  8
LCD
 62
7
100
AcDbLine
 10
36.355388
 20
207.727616
 30
0.0
 11
36.314048
 21
207.727616
 31
0.0
  0
SPLINE
  5
2da
100
AcDbEntity
  8
LCD
 62
7
100
AcDbSpline
 70
8
 71
3
 72
8
 73
4
 74
0
 40
0
 40
0
 40
0
 40
0
 40
1
 40
1
 40
1
 40
1
 10
36.314048
 20
207.727616
 30
0.0
 10
36.296821
 20
207.510576
 30
0.0
 10
36.253758
 20
207.295258
 30
0.0
 10
36.184857
 20
207.081663
 30
0.0
  0
LINE
  5
2db
100
AcDbEntity
  8
LCD
 62
7
100
AcDbLine
 10
36.184857
 20
207.081663
 30
0.0
 11
35.378707
 21
204.570196
 31
0.0
  0
LINE
  5
2dc
100
AcDbEntity
  8
LCD
 62
7
100
AcDbLine
 10
35.378707
 20
204.570196
 30
0.0
 11
37.275225
 21
204.570196
 31
0.0
  0
LINE
  5
2dd
100
AcDbEntity
  8
LCD
 62
7
100
AcDbLine
 10
47.145393
 20
201.640152
 30
0.0
 11
45.228204
 21
201.640152
 31
0.0
  0
LINE
  5
2de
100
AcDbEntity
  8
LCD
 62
7
100
AcDbLine
 10
45.228204
 20
201.640152
 30
0.0
 11
44.075823
 21
203.547006
 31
0.0
  0
SPLINE
  5
2df
100
AcDbEntity
  8
LCD
 62
7
100
AcDbSpline
 70
8
 71
3
 72
8
 73
4
 74
0
 40
0
 40
0
 40
0
 40
0
 40
1
 40
1
 40
1
 40
1
 10
44.075823
 20
203.547006
 30
0.0
 10
43.989696
 20
203.691700
 30
0.0
 10
43.907014
 20
203.820891
 30
0.0
 10
43.827777
 20
203.934578
 30
0.0
  0
SPLINE
  5
2e0
100
AcDbEntity
  8
LCD
 62
7
100
AcDbSpline
 70
8
 71
3
 72
8
 73
4
 74
0
 40
0
 40
0
 40
0
 40
0
 40
1
 40
1
 40
1
 40
1
 10
43.827777
 20
203.934578
 30
0.0
 10
43.748540
 20
204.048266
 30
0.0
 10
43.667580
 20
204.144728
 30
0.0
 10
43.584898
 20
204.223965
 30
0.0
  0
SPLINE
  5
2e1
100
AcDbEntity
  8
LCD
 62
7
100
AcDbSpline
 70
8
 71
3
 72
8
 73
4
 74
0
 40
0
 40
0
 40
0
 40
0
 40
1
 40
1
 40
1
 40
1
 10
43.584898
 20
204.223965
 30
0.0
 10
43.505661
 20
204.306647
 30
0.0
 10
43.421257
 20
204.368659
 30
0.0
 10
43.331685
 20
204.410000
 30
0.0
  0
SPLINE
  5
2e2
100
AcDbEntity
  8
LCD
 62
7
100
AcDbSpline
 70
8
 71
3
 72
8
 73
4
 74
0
 40
0
 40
0
 40
0
 40
0
 40
1
 40
1
 40
1
 40
1
 10
43.331685
 20
204.410000
 30
0.0
 10
43.245558
 20
204.454787
 30
0.0
 10
43.150818
 20
204.477180
 30
0.0
 10
43.047465
 20
204.477180
 30
0.0
  0
LINE
  5
2e3
100
AcDbEntity
  8
LCD
 62
7
100
AcDbLine
 10
43.047465
 20
204.477180
 30
0.0
 11
42.597882
 21
204.477180
 31
0.0
  0
LINE
  5
2e4
100
AcDbEntity
  8
LCD
 62
7
100
AcDbLine
 10
42.597882
 20
204.477180
 30
0.0
 11
42.597882
 21
201.640153
 31
0.0
  0
LINE
  5
2e5
100
AcDbEntity
  8
LCD
 62
7
100
AcDbLine
 10
42.597882
 20
201.640153
 30
0.0
 11
40.928738
 21
201.640153
 31
0.0
  0
LINE
  5
2e6
100
AcDbEntity
  8
LCD
 62
7
100
AcDbLine
 10
40.928738
 20
201.640153
 30
0.0
 11
40.928738
 21
209.050530
 31
0.0
  0
LINE
  5
2e7
100
AcDbEntity
  8
LCD
 62
7
100
AcDbLine
 10
40.928738
 20
209.050530
 30
0.0
 11
43.574563
 21
209.050530
 31
0.0
  0
SPLINE
  5
2e8
100
AcDbEntity
  8
LCD
 62
7
100
AcDbSpline
 70
8
 71
3
 72
8
 73
4
 74
0
 40
0
 40
0
 40
0
 40
0
 40
1
 40
1
 40
1
 40
1
 10
43.574563
 20
209.050530
 30
0.0
 10
45.372897
 20
209.050530
 30
0.0
 10
46.272064
 20
208.378738
 30
0.0
 10
46.272064
 20
207.035155
 30
0.0
  0
SPLINE
  5
2e9
100
AcDbEntity
  8
LCD
 62
7
100
AcDbSpline
 70
8
 71
3
 72
8
 73
4
 74
0
 40
0
 40
0
 40
0
 40
0
 40
1
 40
1
 40
1
 40
1
 10
46.272064
 20
207.035155
 30
0.0
 10
46.272064
 20
206.776774
 30
0.0
 10
46.232446
 20
206.537340
 30
0.0
 10
46.153209
 20
206.316855
 30
0.0
  0
SPLINE
  5
2ea
100
AcDbEntity
  8
LCD
 62
7
100
AcDbSpline
 70
8
 71
3
 72
8
 73
4
 74
0
 40
0
 40
0
 40
0
 40
0
 40
1
 40
1
 40
1
 40
1
 10
46.153209
 20
206.316855
 30
0.0
 10
46.073972
 20
206.099815
 30
0.0
 10
45.962006
 20
205.903445
 30
0.0
 10
45.817313
 20
205.727746
 30
0.0
  0
SPLINE
  5
2eb
100
AcDbEntity
  8
LCD
 62
7
100
AcDbSpline
 70
8
 71
3
 72
8
 73
4
 74
0
 40
0
 40
0
 40
0
 40
0
 40
1
 40
1
 40
1
 40
1
 10
45.817313
 20
205.727746
 30
0.0
 10
45.672620
 20
205.552047
 30
0.0
 10
45.496920
 20
205.400463
 30
0.0
 10
45.290215
 20
205.272995
 30
0.0
  0
SPLINE
  5
2ec
100
AcDbEntity
  8
LCD
 62
7
100
AcDbSpline
 70
8
 71
3
 72
8
 73
4
 74
0
 40
0
 40
0
 40
0
 40
0
 40
1
 40
1
 40
1
 40
1
 10
45.290215
 20
205.272995
 30
0.0
 10
45.086955
 20
205.145526
 30
0.0
 10
44.859579
 20
205.045619
 30
0.0
 10
44.608088
 20
204.973272
 30
0.0
  0
LINE
  5
2ed
100
AcDbEntity
  8
LCD
 62
7
100
AcDbLine
 10
44.608088
 20
204.973272
 30
0.0
 11
44.608088
 21
204.952602
 31
0.0
  0
SPLINE
  5
2ee
100
AcDbEntity
  8
LCD
 62
7
100
AcDbSpline
 70
8
 71
3
 72
8
 73
4
 74
0
 40
0
 40
0
 40
0
 40
0
 40
1
 40
1
 40
1
 40
1
 10
44.608088
 20
204.952602
 30
0.0
 10
44.718331
 20
204.918149
 30
0.0
 10
44.825128
 20
204.861305
 30
0.0
 10
44.928481
 20
204.782070
 30
0.0
  0
SPLINE
  5
2ef
100
AcDbEntity
  8
LCD
 62
7
100
AcDbSpline
 70
8
 71
3
 72
8
 73
4
 74
0
 40
0
 40
0
 40
0
 40
0
 40
1
 40
1
 40
1
 40
1
 10
44.928481
 20
204.782070
 30
0.0
 10
45.031834
 20
204.706278
 30
0.0
 10
45.131741
 20
204.616706
 30
0.0
 10
45.228204
 20
204.513353
 30
0.0
  0
SPLINE
  5
2f0
100
AcDbEntity
  8
LCD
 62
7
100
AcDbSpline
 70
8
 71
3
 72
8
 73
4
 74
0
 40
0
 40
0
 40
0
 40
0
 40
1
 40
1
 40
1
 40
1
 10
45.228204
 20
204.513353
 30
0.0
 10
45.324666
 20
204.410001
 30
0.0
 10
45.415961
 20
204.298036
 30
0.0
 10
45.502088
 20
204.177458
 30
0.0
  0
SPLINE
  5
2f1
100
AcDbEntity
  8
LCD
 62
7
100
AcDbSpline
 70
8
 71
3
 72
8
 73
4
 74
0
 40
0
 40
0
 40
0
 40
0
 40
1
 40
1
 40
1
 40
1
 10
45.502088
 20
204.177458
 30
0.0
 10
45.591660
 20
204.060325
 30
0.0
 10
45.672619
 20
203.944914
 30
0.0
 10
45.744966
 20
203.831227
 30
0.0
  0
LINE
  5
2f2
100
AcDbEntity
  8
LCD
 62
7
100
AcDbLine
 10
45.744966
 20
203.831227
 30
0.0
 11
47.145393
 21
201.640152
 31
0.0
  0
LINE
  5
2f3
100
AcDbEntity
  8
LCD
 62
7
100
AcDbLine
 10
42.597882
 20
207.799963
 30
0.0
 11
42.597882
 21
205.738080
 31
0.0
  0
LINE
  5
2f4
100
AcDbEntity
  8
LCD
 62
7
100
AcDbLine
 10
42.597882
 20
205.738080
 30
0.0
 11
43.321349
 21
205.738080
 31
0.0
  0
SPLINE
  5
2f5
100
AcDbEntity
  8
LCD
 62
7
100
AcDbSpline
 70
8
 71
3
 72
8
 73
4
 74
0
 40
0
 40
0
 40
0
 40
0
 40
1
 40
1
 40
1
 40
1
 10
43.321349
 20
205.738080
 30
0.0
 10
43.679638
 20
205.738080
 30
0.0
 10
43.967303
 20
205.841433
 30
0.0
 10
44.184343
 20
206.048138
 30
0.0
  0
SPLINE
  5
2f6
100
AcDbEntity
  8
LCD
 62
7
100
AcDbSpline
 70
8
 71
3
 72
8
 73
4
 74
0
 40
0
 40
0
 40
0
 40
0
 40
1
 40
1
 40
1
 40
1
 10
44.184343
 20
206.048138
 30
0.0
 10
44.404828
 20
206.258288
 30
0.0
 10
44.515071
 20
206.518392
 30
0.0
 10
44.515071
 20
206.828449
 30
0.0
  0
SPLINE
  5
2f7
100
AcDbEntity
  8
LCD
 62
7
100
AcDbSpline
 70
8
 71
3
 72
8
 73
4
 74
0
 40
0
 40
0
 40
0
 40
0
 40
1
 40
1
 40
1
 40
1
 10
44.515071
 20
206.828449
 30
0.0
 10
44.515071
 20
207.476125
 30
0.0
 10
44.127499
 20
207.799963
 30
0.0
 10
43.352355
 20
207.799963
 30
0.0
  0
LINE
  5
2f8
100
AcDbEntity
  8
LCD
 62
7
100
AcDbLine
 10
43.352355
 20
207.799963
 30
0.0
 11
42.597882
 21
207.799963
 31
0.0
  0
LINE
  5
2f9
100
AcDbEntity
  8
LCD
 62
7
100
AcDbLine
 10
52.767771
 20
207.691443
 30
0.0
 11
50.654212
 21
207.691443
 31
0.0
  0
LINE
  5
2fa
100
AcDbEntity
  8
LCD
 62
7
100
AcDbLine
 10
50.654212
 20
207.691443
 30
0.0
 11
50.654212
 21
201.640152
 31
0.0
  0
LINE
  5
2fb
100
AcDbEntity
  8
LCD
 62
7
100
AcDbLine
 10
50.654212
 20
201.640152
 30
0.0
 11
48.979901
 21
201.640152
 31
0.0
  0
LINE
  5
2fc
100
AcDbEntity
  8
LCD
 62
7
100
AcDbLine
 10
48.979901
 20
201.640152
 30
0.0
 11
48.979901
 21
207.691443
 31
0.0
  0
LINE
  5
2fd
100
AcDbEntity
  8
LCD
 62
7
100
AcDbLine
 10
48.979901
 20
207.691443
 30
0.0
 11
46.876677
 21
207.691443
 31
0.0
  0
LINE
  5
2fe
100
AcDbEntity
  8
LCD
 62
7
100
AcDbLine
 10
46.876677
 20
207.691443
 30
0.0
 11
46.876677
 21
209.050529
 31
0.0
  0
LINE
  5
2ff
100
AcDbEntity
  8
LCD
 62
7
100
AcDbLine
 10
46.876677
 20
209.050529
 30
0.0
 11
52.767771
 21
209.050529
 31
0.0
  0
LINE
  5
300
100
AcDbEntity
  8
LCD
 62
7
100
AcDbLine
 10
52.767771
 20
209.050529
 30
0.0
 11
52.767771
 21
207.691443
 31
0.0
  0
LINE
  5
301
100
AcDbEntity
  8
LCD
 62
7
100
AcDbLine
 10
58.353976
 20
204.192960
 30
0.0
 11
58.353976
 21
201.640152
 31
0.0
  0
LINE
  5
302
100
AcDbEntity
  8
LCD
 62
7
100
AcDbLine
 10
58.353976
 20
201.640152
 30
0.0
 11
56.684832
 21
201.640152
 31
0.0
  0
LINE
  5
303
100
AcDbEntity
  8
LCD
 62
7
100
AcDbLine
 10
56.684832
 20
201.640152
 30
0.0
 11
56.684832
 21
209.050529
 31
0.0
  0
LINE
  5
304
100
AcDbEntity
  8
LCD
 62
7
100
AcDbLine
 10
56.684832
 20
209.050529
 30
0.0
 11
59.299651
 21
209.050529
 31
0.0
  0
SPLINE
  5
305
100
AcDbEntity
  8
LCD
 62
7
100
AcDbSpline
 70
8
 71
3
 72
8
 73
4
 74
0
 40
0
 40
0
 40
0
 40
0
 40
1
 40
1
 40
1
 40
1
 10
59.299651
 20
209.050529
 30
0.0
 10
61.166887
 20
209.050529
 30
0.0
 10
62.100505
 20
208.263327
 30
0.0
 10
62.100505
 20
206.688923
 30
0.0
  0
SPLINE
  5
306
100
AcDbEntity
  8
LCD
 62
7
100
AcDbSpline
 70
8
 71
3
 72
8
 73
4
 74
0
 40
0
 40
0
 40
0
 40
0
 40
1
 40
1
 40
1
 40
1
 10
62.100505
 20
206.688923
 30
0.0
 10
62.100505
 20
205.944785
 30
0.0
 10
61.831788
 20
205.341895
 30
0.0
 10
61.294355
 20
204.880254
 30
0.0
  0
SPLINE
  5
307
100
AcDbEntity
  8
LCD
 62
7
100
AcDbSpline
 70
8
 71
3
 72
8
 73
4
 74
0
 40
0
 40
0
 40
0
 40
0
 40
1
 40
1
 40
1
 40
1
 10
61.294355
 20
204.880254
 30
0.0
 10
60.760367
 20
204.422058
 30
0.0
 10
60.045512
 20
204.192960
 30
0.0
 10
59.149790
 20
204.192960
 30
0.0
  0
LINE
  5
308
100
AcDbEntity
  8
LCD
 62
7
100
AcDbLine
 10
59.149790
 20
204.192960
 30
0.0
 11
58.353976
 21
204.192960
 31
0.0
  0
LINE
  5
309
100
AcDbEntity
  8
LCD
 62
7
100
AcDbLine
 10
58.353976
 20
207.768957
 30
0.0
 11
58.353976
 21
205.459028
 31
0.0
  0
LINE
  5
30a
100
AcDbEntity
  8
LCD
 62
7
100
AcDbLine
 10
58.353976
 20
205.459028
 30
0.0
 11
59.010264
 21
205.459028
 31
0.0
  0
SPLINE
  5
30b
100
AcDbEntity
  8
LCD
 62
7
100
AcDbSpline
 70
8
 71
3
 72
8
 73
4
 74
0
 40
0
 40
0
 40
0
 40
0
 40
1
 40
1
 40
1
 40
1
 10
59.010264
 20
205.459028
 30
0.0
 10
59.899096
 20
205.459028
 30
0.0
 10
60.343512
 20
205.848323
 30
0.0
 10
60.343512
 20
206.626912
 30
0.0
  0
SPLINE
  5
30c
100
AcDbEntity
  8
LCD
 62
7
100
AcDbSpline
 70
8
 71
3
 72
8
 73
4
 74
0
 40
0
 40
0
 40
0
 40
0
 40
1
 40
1
 40
1
 40
1
 10
60.343512
 20
206.626912
 30
0.0
 10
60.343512
 20
207.388275
 30
0.0
 10
59.899096
 20
207.768957
 30
0.0
 10
59.010264
 20
207.768957
 30
0.0
  0
LINE
  5
30d
100
AcDbEntity
  8
LCD
 62
7
100
AcDbLine
 10
59.010264
 20
207.768957
 30
0.0
 11
58.353976
 21
207.768957
 31
0.0
  0
SPLINE
  5
30e
100
AcDbEntity
  8
LCD
 62
7
100
AcDbSpline
 70
8
 71
3
 72
8
 73
4
 74
0
 40
0
 40
0
 40
0
 40
0
 40
1
 40
1
 40
1
 40
1
 10
66.317287
 20
201.510961
 30
0.0
 10
65.256201
 20
201.510961
 30
0.0
 10
64.391485
 20
201.855470
 30
0.0
 10
63.723139
 20
202.544487
 30
0.0
  0
SPLINE
  5
30f
100
AcDbEntity
  8
LCD
 62
7
100
AcDbSpline
 70
8
 71
3
 72
8
 73
4
 74
0
 40
0
 40
0
 40
0
 40
0
 40
1
 40
1
 40
1
 40
1
 10
63.723139
 20
202.544487
 30
0.0
 10
63.054792
 20
203.236949
 30
0.0
 10
62.720619
 20
204.137838
 30
0.0
 10
62.720619
 20
205.247155
 30
0.0
  0
SPLINE
  5
310
100
AcDbEntity
  8
LCD
 62
7
100
AcDbSpline
 70
8
 71
3
 72
8
 73
4
 74
0
 40
0
 40
0
 40
0
 40
0
 40
1
 40
1
 40
1
 40
1
 10
62.720619
 20
205.247155
 30
0.0
 10
62.720619
 20
206.418484
 30
0.0
 10
63.059960
 20
207.365883
 30
0.0
 10
63.738642
 20
208.089350
 30
0.0
  0
SPLINE
  5
311
100
AcDbEntity
  8
LCD
 62
7
100
AcDbSpline
 70
8
 71
3
 72
8
 73
4
 74
0
 40
0
 40
0
 40
0
 40
0
 40
1
 40
1
 40
1
 40
1
 10
63.738642
 20
208.089350
 30
0.0
 10
64.417323
 20
208.812818
 30
0.0
 10
65.316490
 20
209.174552
 30
0.0
 10
66.436143
 20
209.174552
 30
0.0
  0
SPLINE
  5
312
100
AcDbEntity
  8
LCD
 62
7
100
AcDbSpline
 70
8
 71
3
 72
8
 73
4
 74
0
 40
0
 40
0
 40
0
 40
0
 40
1
 40
1
 40
1
 40
1
 10
66.436143
 20
209.174552
 30
0.0
 10
67.493784
 20
209.174552
 30
0.0
 10
68.348165
 20
208.828321
 30
0.0
 10
68.999286
 20
208.135859
 30
0.0
  0
SPLINE
  5
313
100
AcDbEntity
  8
LCD
 62
7
100
AcDbSpline
 70
8
 71
3
 72
8
 73
4
 74
0
 40
0
 40
0
 40
0
 40
0
 40
1
 40
1
 40
1
 40
1
 10
68.999286
 20
208.135859
 30
0.0
 10
69.653852
 20
207.443397
 30
0.0
 10
69.981135
 20
206.530450
 30
0.0
 10
69.981135
 20
205.397017
 30
0.0
  0
SPLINE
  5
314
100
AcDbEntity
  8
LCD
 62
7
100
AcDbSpline
 70
8
 71
3
 72
8
 73
4
 74
0
 40
0
 40
0
 40
0
 40
0
 40
1
 40
1
 40
1
 40
1
 10
69.981135
 20
205.397017
 30
0.0
 10
69.981135
 20
204.232578
 30
0.0
 10
69.641794
 20
203.293793
 30
0.0
 10
68.963112
 20
202.580660
 30
0.0
  0
SPLINE
  5
315
100
AcDbEntity
  8
LCD
 62
7
100
AcDbSpline
 70
8
 71
3
 72
8
 73
4
 74
0
 40
0
 40
0
 40
0
 40
0
 40
1
 40
1
 40
1
 40
1
 10
68.963112
 20
202.580660
 30
0.0
 10
68.287876
 20
201.867527
 30
0.0
 10
67.405934
 20
201.510961
 30
0.0
 10
66.317287
 20
201.510961
 30
0.0
  0
LINE
  5
316
100
AcDbEntity
  8
LCD
 62
7
100
AcDbLine
 10
66.317287
 20
201.510961
 30
0.0
 11
66.317287
 21
201.510961
 31
0.0
  0
SPLINE
  5
317
100
AcDbEntity
  8
LCD
 62
7
100
AcDbSpline
 70
8
 71
3
 72
8
 73
4
 74
0
 40
0
 40
0
 40
0
 40
0
 40
1
 40
1
 40
1
 40
1
 10
66.389637
 20
207.737952
 30
0.0
 10
65.803973
 20
207.737952
 30
0.0
 10
65.338887
 20
207.517466
 30
0.0
 10
64.994378
 20
207.076495
 30
0.0
  0
SPLINE
  5
318
100
AcDbEntity
  8
LCD
 62
7
100
AcDbSpline
 70
8
 71
3
 72
8
 73
4
 74
0
 40
0
 40
0
 40
0
 40
0
 40
1
 40
1
 40
1
 40
1
 10
64.994378
 20
207.076495
 30
0.0
 10
64.649869
 20
206.638970
 30
0.0
 10
64.477615
 20
206.058473
 30
0.0
 10
64.477615
 20
205.335005
 30
0.0
  0
SPLINE
  5
319
100
AcDbEntity
  8
LCD
 62
7
100
AcDbSpline
 70
8
 71
3
 72
8
 73
4
 74
0
 40
0
 40
0
 40
0
 40
0
 40
1
 40
1
 40
1
 40
1
 10
64.477615
 20
205.335005
 30
0.0
 10
64.477615
 20
204.601202
 30
0.0
 10
64.649869
 20
204.020706
 30
0.0
 10
64.994378
 20
203.593515
 30
0.0
  0
SPLINE
  5
31a
100
AcDbEntity
  8
LCD
 62
7
100
AcDbSpline
 70
8
 71
3
 72
8
 73
4
 74
0
 40
0
 40
0
 40
0
 40
0
 40
1
 40
1
 40
1
 40
1
 10
64.994378
 20
203.593515
 30
0.0
 10
65.338887
 20
203.166324
 30
0.0
 10
65.790193
 20
202.952729
 30
0.0
 10
66.348296
 20
202.952729
 30
0.0
  0
SPLINE
  5
31b
100
AcDbEntity
  8
LCD
 62
7
100
AcDbSpline
 70
8
 71
3
 72
8
 73
4
 74
0
 40
0
 40
0
 40
0
 40
0
 40
1
 40
1
 40
1
 40
1
 10
66.348296
 20
202.952729
 30
0.0
 10
66.923625
 20
202.952729
 30
0.0
 10
67.380099
 20
203.159434
 30
0.0
 10
67.717717
 20
203.572844
 30
0.0
  0
SPLINE
  5
31c
100
AcDbEntity
  8
LCD
 62
7
100
AcDbSpline
 70
8
 71
3
 72
8
 73
4
 74
0
 40
0
 40
0
 40
0
 40
0
 40
1
 40
1
 40
1
 40
1
 10
67.717717
 20
203.572844
 30
0.0
 10
68.055336
 20
203.989699
 30
0.0
 10
68.224145
 20
204.566751
 30
0.0
 10
68.224145
 20
205.303999
 30
0.0
  0
SPLINE
  5
31d
100
AcDbEntity
  8
LCD
 62
7
100
AcDbSpline
 70
8
 71
3
 72
8
 73
4
 74
0
 40
0
 40
0
 40
0
 40
0
 40
1
 40
1
 40
1
 40
1
 10
68.224145
 20
205.303999
 30
0.0
 10
68.224145
 20
206.072253
 30
0.0
 10
68.060503
 20
206.669975
 30
0.0
 10
67.733220
 20
207.097166
 30
0.0
  0
SPLINE
  5
31e
100
AcDbEntity
  8
LCD
 62
7
100
AcDbSpline
 70
8
 71
3
 72
8
 73
4
 74
0
 40
0
 40
0
 40
0
 40
0
 40
1
 40
1
 40
1
 40
1
 10
67.733220
 20
207.097166
 30
0.0
 10
67.405937
 20
207.524357
 30
0.0
 10
66.958076
 20
207.737952
 30
0.0
 10
66.389637
 20
207.737952
 30
0.0
  0
LINE
  5
31f
100
AcDbEntity
  8
LCD
 62
7
100
AcDbLine
 10
66.389637
 20
207.737952
 30
0.0
 11
66.389637
 21
207.737952
 31
0.0
  0
LINE
  5
320
100
AcDbEntity
  8
LCD
 62
7
100
AcDbLine
 10
75.939410
 20
207.691443
 30
0.0
 11
73.825850
 21
207.691443
 31
0.0
  0
LINE
  5
321
100
AcDbEntity
  8
LCD
 62
7
100
AcDbLine
 10
73.825850
 20
207.691443
 30
0.0
 11
73.825850
 21
201.640152
 31
0.0
  0
LINE
  5
322
100
AcDbEntity
  8
LCD
 62
7
100
AcDbLine
 10
73.825850
 20
201.640152
 30
0.0
 11
72.151539
 21
201.640152
 31
0.0
  0
LINE
  5
323
100
AcDbEntity
  8
LCD
 62
7
100
AcDbLine
 10
72.151539
 20
201.640152
 30
0.0
 11
72.151539
 21
207.691443
 31
0.0
  0
LINE
  5
324
100
AcDbEntity
  8
LCD
 62
7
100
AcDbLine
 10
72.151539
 20
207.691443
 30
0.0
 11
70.048315
 21
207.691443
 31
0.0
  0
LINE
  5
325
100
AcDbEntity
  8
LCD
 62
7
100
AcDbLine
 10
70.048315
 20
207.691443
 30
0.0
 11
70.048315
 21
209.050529
 31
0.0
  0
LINE
  5
326
100
AcDbEntity
  8
LCD
 62
7
100
AcDbLine
 10
70.048315
 20
209.050529
 30
0.0
 11
75.939410
 21
209.050529
 31
0.0
  0
LINE
  5
327
100
AcDbEntity
  8
LCD
 62
7
100
AcDbLine
 10
75.939410
 20
209.050529
 30
0.0
 11
75.939410
 21
207.691443
 31
0.0
  0
LINE
  5
328
100
AcDbEntity
  8
LCD
 62
7
100
AcDbLine
 10
70.725731
 20
282.765087
 30
0.0
 11
70.725731
 21
214.276295
 31
0.0
  0
LINE
  5
329
100
AcDbEntity
  8
LCD
 62
7
100
AcDbLine
 10
70.725731
 20
214.276295
 30
0.0
 11
17.536942
 21
214.276295
 31
0.0
  0
LINE
  5
32a
100
AcDbEntity
  8
LCD
 62
7
100
AcDbLine
 10
17.536942
 20
214.276295
 30
0.0
 11
17.536942
 21
282.765087
 31
0.0
  0
LINE
  5
32b
100
AcDbEntity
  8
LCD
 62
7
100
AcDbLine
 10
17.536942
 20
282.765087
 30
0.0
 11
70.725731
 21
282.765087
 31
0.0
  0
SPLINE
  5
32c
100
AcDbEntity
  8
LCD
 62
7
100
AcDbSpline
 70
8
 71
3
 72
8
 73
4
 74
0
 40
0
 40
0
 40
0
 40
0
 40
1
 40
1
 40
1
 40
1
 10
68.104172
 20
265.955694
 30
0.0
 10
67.706347
 20
265.955694
 30
0.0
 10
67.324816
 20
266.113729
 30
0.0
 10
67.043512
 20
266.395034
 30
0.0
  0
SPLINE
  5
32d
100
AcDbEntity
  8
LCD
 62
7
100
AcDbSpline
 70
8
 71
3
 72
8
 73
4
 74
0
 40
0
 40
0
 40
0
 40
0
 40
1
 40
1
 40
1
 40
1
 10
67.043512
 20
266.395034
 30
0.0
 10
66.762207
 20
266.676338
 30
0.0
 10
66.604172
 20
267.057869
 30
0.0
 10
66.604172
 20
267.455694
 30
0.0
  0
SPLINE
  5
32e
100
AcDbEntity
  8
LCD
 62
7
100
AcDbSpline
 70
8
 71
3
 72
8
 73
4
 74
0
 40
0
 40
0
 40
0
 40
0
 40
1
 40
1
 40
1
 40
1
 10
66.604172
 20
267.455694
 30
0.0
 10
66.604172
 20
267.853519
 30
0.0
 10
66.762207
 20
268.235050
 30
0.0
 10
67.043512
 20
268.516354
 30
0.0
  0
SPLINE
  5
32f
100
AcDbEntity
  8
LCD
 62
7
100
AcDbSpline
 70
8
 71
3
 72
8
 73
4
 74
0
 40
0
 40
0
 40
0
 40
0
 40
1
 40
1
 40
1
 40
1
 10
67.043512
 20
268.516354
 30
0.0
 10
67.324816
 20
268.797659
 30
0.0
 10
67.706347
 20
268.955694
 30
0.0
 10
68.104172
 20
268.955694
 30
0.0
  0
SPLINE
  5
330
100
AcDbEntity
  8
LCD
 62
7
100
AcDbSpline
 70
8
 71
3
 72
8
 73
4
 74
0
 40
0
 40
0
 40
0
 40
0
 40
1
 40
1
 40
1
 40
1
 10
68.104172
 20
268.955694
 30
0.0
 10
68.501997
 20
268.955694
 30
0.0
 10
68.883528
 20
268.797659
 30
0.0
 10
69.164832
 20
268.516354
 30
0.0
  0
SPLINE
  5
331
100
AcDbEntity
  8
LCD
 62
7
100
AcDbSpline
 70
8
 71
3
 72
8
 73
4
 74
0
 40
0
 40
0
 40
0
 40
0
 40
1
 40
1
 40
1
 40
1
 10
69.164832
 20
268.516354
 30
0.0
 10
69.446137
 20
268.235050
 30
0.0
 10
69.604172
 20
267.853519
 30
0.0
 10
69.604172
 20
267.455694
 30
0.0
  0
SPLINE
  5
332
100
AcDbEntity
  8
LCD
 62
7
100
AcDbSpline
 70
8
 71
3
 72
8
 73
4
 74
0
 40
0
 40
0
 40
0
 40
0
 40
1
 40
1
 40
1
 40
1
 10
69.604172
 20
267.455694
 30
0.0
 10
69.604172
 20
267.057869
 30
0.0
 10
69.446137
 20
266.676338
 30
0.0
 10
69.164832
 20
266.395034
 30
0.0
  0
SPLINE
  5
333
100
AcDbEntity
  8
LCD
 62
7
100
AcDbSpline
 70
8
 71
3
 72
8
 73
4
 74
0
 40
0
 40
0
 40
0
 40
0
 40
1
 40
1
 40
1
 40
1
 10
69.164832
 20
266.395034
 30
0.0
 10
68.883528
 20
266.113729
 30
0.0
 10
68.501997
 20
265.955694
 30
0.0
 10
68.104172
 20
265.955694
 30
0.0
  0
LINE
  5
334
100
AcDbEntity
  8
LCD
 62
7
100
AcDbLine
 10
68.104172
 20
265.955694
 30
0.0
 11
68.104172
 21
265.955694
 31
0.0
  0
SPLINE
  5
335
100
AcDbEntity
  8
LCD
 62
7
100
AcDbSpline
 70
8
 71
3
 72
8
 73
4
 74
0
 40
0
 40
0
 40
0
 40
0
 40
1
 40
1
 40
1
 40
1
 10
52.903675
 20
216.455696
 30
0.0
 10
52.505850
 20
216.455696
 30
0.0
 10
52.124319
 20
216.613731
 30
0.0
 10
51.843015
 20
216.895036
 30
0.0
  0
SPLINE
  5
336
100
AcDbEntity
  8
LCD
 62
7
100
AcDbSpline
 70
8
 71
3
 72
8
 73
4
 74
0
 40
0
 40
0
 40
0
 40
0
 40
1
 40
1
 40
1
 40
1
 10
51.843015
 20
216.895036
 30
0.0
 10
51.561710
 20
217.176340
 30
0.0
 10
51.403675
 20
217.557871
 30
0.0
 10
51.403675
 20
217.955696
 30
0.0
  0
SPLINE
  5
337
100
AcDbEntity
  8
LCD
 62
7
100
AcDbSpline
 70
8
 71
3
 72
8
 73
4
 74
0
 40
0
 40
0
 40
0
 40
0
 40
1
 40
1
 40
1
 40
1
 10
51.403675
 20
217.955696
 30
0.0
 10
51.403675
 20
218.353521
 30
0.0
 10
51.561710
 20
218.735052
 30
0.0
 10
51.843015
 20
219.016356
 30
0.0
  0
SPLINE
  5
338
100
AcDbEntity
  8
LCD
 62
7
100
AcDbSpline
 70
8
 71
3
 72
8
 73
4
 74
0
 40
0
 40
0
 40
0
 40
0
 40
1
 40
1
 40
1
 40
1
 10
51.843015
 20
219.016356
 30
0.0
 10
52.124319
 20
219.297661
 30
0.0
 10
52.505850
 20
219.455696
 30
0.0
 10
52.903675
 20
219.455696
 30
0.0
  0
SPLINE
  5
339
100
AcDbEntity
  8
LCD
 62
7
100
AcDbSpline
 70
8
 71
3
 72
8
 73
4
 74
0
 40
0
 40
0
 40
0
 40
0
 40
1
 40
1
 40
1
 40
1
 10
52.903675
 20
219.455696
 30
0.0
 10
53.301500
 20
219.455696
 30
0.0
 10
53.683031
 20
219.297661
 30
0.0
 10
53.964335
 20
219.016356
 30
0.0
  0
SPLINE
  5
33a
100
AcDbEntity
  8
LCD
 62
7
100
AcDbSpline
 70
8
 71
3
 72
8
 73
4
 74
0
 40
0
 40
0
 40
0
 40
0
 40
1
 40
1
 40
1
 40
1
 10
53.964335
 20
219.016356
 30
0.0
 10
54.245640
 20
218.735052
 30
0.0
 10
54.403675
 20
218.353521
 30
0.0
 10
54.403675
 20
217.955696
 30
0.0
  0
SPLINE
  5
33b
100
AcDbEntity
  8
LCD
 62
7
100
AcDbSpline
 70
8
 71
3
 72
8
 73
4
 74
0
 40
0
 40
0
 40
0
 40
0
 40
1
 40
1
 40
1
 40
1
 10
54.403675
 20
217.955696
 30
0.0
 10
54.403675
 20
217.557871
 30
0.0
 10
54.245640
 20
217.176340
 30
0.0
 10
53.964335
 20
216.895036
 30
0.0
  0
SPLINE
  5
33c
100
AcDbEntity
  8
LCD
 62
7
100
AcDbSpline
 70
8
 71
3
 72
8
 73
4
 74
0
 40
0
 40
0
 40
0
 40
0
 40
1
 40
1
 40
1
 40
1
 10
53.964335
 20
216.895036
 30
0.0
 10
53.683031
 20
216.613731
 30
0.0
 10
53.301500
 20
216.455696
 30
0.0
 10
52.903675
 20
216.455696
 30
0.0
  0
LINE
  5
33d
100
AcDbEntity
  8
LCD
 62
7
100
AcDbLine
 10
52.903675
 20
216.455696
 30
0.0
 11
52.903675
 21
216.455696
 31
0.0
  0
SPLINE
  5
33e
100
AcDbEntity
  8
LCD
 62
7
100
AcDbSpline
 70
8
 71
3
 72
8
 73
4
 74
0
 40
0
 40
0
 40
0
 40
0
 40
1
 40
1
 40
1
 40
1
 10
25.003675
 20
216.455696
 30
0.0
 10
24.605850
 20
216.455696
 30
0.0
 10
24.224319
 20
216.613731
 30
0.0
 10
23.943015
 20
216.895036
 30
0.0
  0
SPLINE
  5
33f
100
AcDbEntity
  8
LCD
 62
7
100
AcDbSpline
 70
8
 71
3
 72
8
 73
4
 74
0
 40
0
 40
0
 40
0
 40
0
 40
1
 40
1
 40
1
 40
1
 10
23.943015
 20
216.895036
 30
0.0
 10
23.661710
 20
217.176340
 30
0.0
 10
23.503675
 20
217.557871
 30
0.0
 10
23.503675
 20
217.955696
 30
0.0
  0
SPLINE
  5
340
100
AcDbEntity
  8
LCD
 62
7
100
AcDbSpline
 70
8
 71
3
 72
8
 73
4
 74
0
 40
0
 40
0
 40
0
 40
0
 40
1
 40
1
 40
1
 40
1
 10
23.503675
 20
217.955696
 30
0.0
 10
23.503675
 20
218.353521
 30
0.0
 10
23.661710
 20
218.735052
 30
0.0
 10
23.943015
 20
219.016356
 30
0.0
  0
SPLINE
  5
341
100
AcDbEntity
  8
LCD
 62
7
100
AcDbSpline
 70
8
 71
3
 72
8
 73
4
 74
0
 40
0
 40
0
 40
0
 40
0
 40
1
 40
1
 40
1
 40
1
 10
23.943015
 20
219.016356
 30
0.0
 10
24.224319
 20
219.297661
 30
0.0
 10
24.605850
 20
219.455696
 30
0.0
 10
25.003675
 20
219.455696
 30
0.0
  0
SPLINE
  5
342
100
AcDbEntity
  8
LCD
 62
7
100
AcDbSpline
 70
8
 71
3
 72
8
 73
4
 74
0
 40
0
 40
0
 40
0
 40
0
 40
1
 40
1
 40
1
 40
1
 10
25.003675
 20
219.455696
 30
0.0
 10
25.401500
 20
219.455696
 30
0.0
 10
25.783031
 20
219.297661
 30
0.0
 10
26.064335
 20
219.016356
 30
0.0
  0
SPLINE
  5
343
100
AcDbEntity
  8
LCD
 62
7
100
AcDbSpline
 70
8
 71
3
 72
8
 73
4
 74
0
 40
0
 40
0
 40
0
 40
0
 40
1
 40
1
 40
1
 40
1
 10
26.064335
 20
219.016356
 30
0.0
 10
26.345640
 20
218.735052
 30
0.0
 10
26.503675
 20
218.353521
 30
0.0
 10
26.503675
 20
217.955696
 30
0.0
  0
SPLINE
  5
344
100
AcDbEntity
  8
LCD
 62
7
100
AcDbSpline
 70
8
 71
3
 72
8
 73
4
 74
0
 40
0
 40
0
 40
0
 40
0
 40
1
 40
1
 40
1
 40
1
 10
26.503675
 20
217.955696
 30
0.0
 10
26.503675
 20
217.557871
 30
0.0
 10
26.345640
 20
217.176340
 30
0.0
 10
26.064335
 20
216.895036
 30
0.0
  0
SPLINE
  5
345
100
AcDbEntity
  8
LCD
 62
7
100
AcDbSpline
 70
8
 71
3
 72
8
 73
4
 74
0
 40
0
 40
0
 40
0
 40
0
 40
1
 40
1
 40
1
 40
1
 10
26.064335
 20
216.895036
 30
0.0
 10
25.783031
 20
216.613731
 30
0.0
 10
25.401500
 20
216.455696
 30
0.0
 10
25.003675
 20
216.455696
 30
0.0
  0
LINE
  5
346
100
AcDbEntity
  8
LCD
 62
7
100
AcDbLine
 10
25.003675
 20
216.455696
 30
0.0
 11
25.003675
 21
216.455696
 31
0.0
  0
SPLINE
  5
347
100
AcDbEntity
  8
LCD
 62
7
100
AcDbSpline
 70
8
 71
3
 72
8
 73
4
 74
0
 40
0
 40
0
 40
0
 40
0
 40
1
 40
1
 40
1
 40
1
 10
19.903673
 20
267.255693
 30
0.0
 10
19.505848
 20
267.255693
 30
0.0
 10
19.124317
 20
267.413728
 30
0.0
 10
18.843013
 20
267.695033
 30
0.0
  0
SPLINE
  5
348
100
AcDbEntity
  8
LCD
 62
7
100
AcDbSpline
 70
8
 71
3
 72
8
 73
4
 74
0
 40
0
 40
0
 40
0
 40
0
 40
1
 40
1
 40
1
 40
1
 10
18.843013
 20
267.695033
 30
0.0
 10
18.561708
 20
267.976337
 30
0.0
 10
18.403673
 20
268.357868
 30
0.0
 10
18.403673
 20
268.755693
 30
0.0
  0
SPLINE
  5
349
100
AcDbEntity
  8
LCD
 62
7
100
AcDbSpline
 70
8
 71
3
 72
8
 73
4
 74
0
 40
0
 40
0
 40
0
 40
0
 40
1
 40
1
 40
1
 40
1
 10
18.403673
 20
268.755693
 30
0.0
 10
18.403673
 20
269.153518
 30
0.0
 10
18.561708
 20
269.535049
 30
0.0
 10
18.843013
 20
269.816353
 30
0.0
  0
SPLINE
  5
34a
100
AcDbEntity
  8
LCD
 62
7
100
AcDbSpline
 70
8
 71
3
 72
8
 73
4
 74
0
 40
0
 40
0
 40
0
 40
0
 40
1
 40
1
 40
1
 40
1
 10
18.843013
 20
269.816353
 30
0.0
 10
19.124317
 20
270.097658
 30
0.0
 10
19.505848
 20
270.255693
 30
0.0
 10
19.903673
 20
270.255693
 30
0.0
  0
SPLINE
  5
34b
100
AcDbEntity
  8
LCD
 62
7
100
AcDbSpline
 70
8
 71
3
 72
8
 73
4
 74
0
 40
0
 40
0
 40
0
 40
0
 40
1
 40
1
 40
1
 40
1
 10
19.903673
 20
270.255693
 30
0.0
 10
20.301498
 20
270.255693
 30
0.0
 10
20.683029
 20
270.097658
 30
0.0
 10
20.964333
 20
269.816353
 30
0.0
  0
SPLINE
  5
34c
100
AcDbEntity
  8
LCD
 62
7
100
AcDbSpline
 70
8
 71
3
 72
8
 73
4
 74
0
 40
0
 40
0
 40
0
 40
0
 40
1
 40
1
 40
1
 40
1
 10
20.964333
 20
269.816353
 30
0.0
 10
21.245638
 20
269.535049
 30
0.0
 10
21.403673
 20
269.153518
 30
0.0
 10
21.403673
 20
268.755693
 30
0.0
  0
SPLINE
  5
34d
100
AcDbEntity
  8
LCD
 62
7
100
AcDbSpline
 70
8
 71
3
 72
8
 73
4
 74
0
 40
0
 40
0
 40
0
 40
0
 40
1
 40
1
 40
1
 40
1
 10
21.403673
 20
268.755693
 30
0.0
 10
21.403673
 20
268.357868
 30
0.0
 10
21.245638
 20
267.976337
 30
0.0
 10
20.964333
 20
267.695033
 30
0.0
  0
SPLINE
  5
34e
100
AcDbEntity
  8
LCD
 62
7
100
AcDbSpline
 70
8
 71
3
 72
8
 73
4
 74
0
 40
0
 40
0
 40
0
 40
0
 40
1
 40
1
 40
1
 40
1
 10
20.964333
 20
267.695033
 30
0.0
 10
20.683029
 20
267.413728
 30
0.0
 10
20.301498
 20
267.255693
 30
0.0
 10
19.903673
 20
267.255693
 30
0.0
  0
LINE
  5
34f
100
AcDbEntity
  8
LCD
 62
7
100
AcDbLine
 10
19.903673
 20
267.255693
 30
0.0
 11
19.903673
 21
267.255693
 31
0.0
  0
LINE
  5
350
100
AcDbEntity
  8
LCD
 62
7
100
AcDbLine
 10
79.211472
 20
202.137276
 30
0.0
 11
79.211472
 21
283.265701
 31
0.0
  0
LINE
  5
351
100
AcDbEntity
  8
LCD
 62
7
100
AcDbLine
 10
79.211472
 20
283.265701
 30
0.0
 11
132.889900
 21
283.265701
 31
0.0
  0
LINE
  5
352
100
AcDbEntity
  8
LCD
 62
7
100
AcDbLine
 10
132.889900
 20
283.265701
 30
0.0
 11
132.889900
 21
202.137276
 31
0.0
  0
LINE
  5
353
100
AcDbEntity
  8
LCD
 62
7
100
AcDbLine
 10
132.889900
 20
202.137276
 30
0.0
 11
79.211472
 21
202.137276
 31
0.0
  0
LINE
  5
354
100
AcDbEntity
  8
LCD
 62
7
100
AcDbLine
 10
17.531094
 20
196.628297
 30
0.0
 11
97.430730
 21
196.628297
 31
0.0
  0
LINE
  5
355
100
AcDbEntity
  8
LCD
 62
7
100
AcDbLine
 10
97.430730
 20
196.628297
 30
0.0
 11
97.430730
 21
160.728658
 31
0.0
  0
LINE
  5
356
100
AcDbEntity
  8
LCD
 62
7
100
AcDbLine
 10
97.430730
 20
160.728658
 30
0.0
 11
17.531094
 21
160.728658
 31
0.0
  0
LINE
  5
357
100
AcDbEntity
  8
LCD
 62
7
100
AcDbLine
 10
17.531094
 20
160.728658
 30
0.0
 11
17.531094
 21
196.628297
 31
0.0
  0
SPLINE
  5
358
100
AcDbEntity
  8
LCD
 62
7
100
AcDbSpline
 70
8
 71
3
 72
8
 73
4
 74
0
 40
0
 40
0
 40
0
 40
0
 40
1
 40
1
 40
1
 40
1
 10
21.531409
 20
194.128100
 30
0.0
 10
21.531409
 20
193.730275
 30
0.0
 10
21.373374
 20
193.348744
 30
0.0
 10
21.092069
 20
193.067440
 30
0.0
  0
SPLINE
  5
359
100
AcDbEntity
  8
LCD
 62
7
100
AcDbSpline
 70
8
 71
3
 72
8
 73
4
 74
0
 40
0
 40
0
 40
0
 40
0
 40
1
 40
1
 40
1
 40
1
 10
21.092069
 20
193.067440
 30
0.0
 10
20.810765
 20
192.786135
 30
0.0
 10
20.429234
 20
192.628100
 30
0.0
 10
20.031409
 20
192.628100
 30
0.0
  0
SPLINE
  5
35a
100
AcDbEntity
  8
LCD
 62
7
100
AcDbSpline
 70
8
 71
3
 72
8
 73
4
 74
0
 40
0
 40
0
 40
0
 40
0
 40
1
 40
1
 40
1
 40
1
 10
20.031409
 20
192.628100
 30
0.0
 10
19.633584
 20
192.628100
 30
0.0
 10
19.252053
 20
192.786135
 30
0.0
 10
18.970749
 20
193.067440
 30
0.0
  0
SPLINE
  5
35b
100
AcDbEntity
  8
LCD
 62
7
100
AcDbSpline
 70
8
 71
3
 72
8
 73
4
 74
0
 40
0
 40
0
 40
0
 40
0
 40
1
 40
1
 40
1
 40
1
 10
18.970749
 20
193.067440
 30
0.0
 10
18.689444
 20
193.348744
 30
0.0
 10
18.531409
 20
193.730275
 30
0.0
 10
18.531409
 20
194.128100
 30
0.0
  0
SPLINE
  5
35c
100
AcDbEntity
  8
LCD
 62
7
100
AcDbSpline
 70
8
 71
3
 72
8
 73
4
 74
0
 40
0
 40
0
 40
0
 40
0
 40
1
 40
1
 40
1
 40
1
 10
18.531409
 20
194.128100
 30
0.0
 10
18.531409
 20
194.525925
 30
0.0
 10
18.689444
 20
194.907456
 30
0.0
 10
18.970749
 20
195.188760
 30
0.0
  0
SPLINE
  5
35d
100
AcDbEntity
  8
LCD
 62
7
100
AcDbSpline
 70
8
 71
3
 72
8
 73
4
 74
0
 40
0
 40
0
 40
0
 40
0
 40
1
 40
1
 40
1
 40
1
 10
18.970749
 20
195.188760
 30
0.0
 10
19.252053
 20
195.470065
 30
0.0
 10
19.633584
 20
195.628100
 30
0.0
 10
20.031409
 20
195.628100
 30
0.0
  0
SPLINE
  5
35e
100
AcDbEntity
  8
LCD
 62
7
100
AcDbSpline
 70
8
 71
3
 72
8
 73
4
 74
0
 40
0
 40
0
 40
0
 40
0
 40
1
 40
1
 40
1
 40
1
 10
20.031409
 20
195.628100
 30
0.0
 10
20.429234
 20
195.628100
 30
0.0
 10
20.810765
 20
195.470065
 30
0.0
 10
21.092069
 20
195.188760
 30
0.0
  0
SPLINE
  5
35f
100
AcDbEntity
  8
LCD
 62
7
100
AcDbSpline
 70
8
 71
3
 72
8
 73
4
 74
0
 40
0
 40
0
 40
0
 40
0
 40
1
 40
1
 40
1
 40
1
 10
21.092069
 20
195.188760
 30
0.0
 10
21.373374
 20
194.907456
 30
0.0
 10
21.531409
 20
194.525925
 30
0.0
 10
21.531409
 20
194.128100
 30
0.0
  0
LINE
  5
360
100
AcDbEntity
  8
LCD
 62
7
100
AcDbLine
 10
21.531409
 20
194.128100
 30
0.0
 11
21.531409
 21
194.128100
 31
0.0
  0
SPLINE
  5
361
100
AcDbEntity
  8
LCD
 62
7
100
AcDbSpline
 70
8
 71
3
 72
8
 73
4
 74
0
 40
0
 40
0
 40
0
 40
0
 40
1
 40
1
 40
1
 40
1
 10
96.531413
 20
194.128100
 30
0.0
 10
96.531413
 20
193.730275
 30
0.0
 10
96.373378
 20
193.348744
 30
0.0
 10
96.092073
 20
193.067440
 30
0.0
  0
SPLINE
  5
362
100
AcDbEntity
  8
LCD
 62
7
100
AcDbSpline
 70
8
 71
3
 72
8
 73
4
 74
0
 40
0
 40
0
 40
0
 40
0
 40
1
 40
1
 40
1
 40
1
 10
96.092073
 20
193.067440
 30
0.0
 10
95.810769
 20
192.786135
 30
0.0
 10
95.429238
 20
192.628100
 30
0.0
 10
95.031413
 20
192.628100
 30
0.0
  0
SPLINE
  5
363
100
AcDbEntity
  8
LCD
 62
7
100
AcDbSpline
 70
8
 71
3
 72
8
 73
4
 74
0
 40
0
 40
0
 40
0
 40
0
 40
1
 40
1
 40
1
 40
1
 10
95.031413
 20
192.628100
 30
0.0
 10
94.633588
 20
192.628100
 30
0.0
 10
94.252057
 20
192.786135
 30
0.0
 10
93.970753
 20
193.067440
 30
0.0
  0
SPLINE
  5
364
100
AcDbEntity
  8
LCD
 62
7
100
AcDbSpline
 70
8
 71
3
 72
8
 73
4
 74
0
 40
0
 40
0
 40
0
 40
0
 40
1
 40
1
 40
1
 40
1
 10
93.970753
 20
193.067440
 30
0.0
 10
93.689448
 20
193.348744
 30
0.0
 10
93.531413
 20
193.730275
 30
0.0
 10
93.531413
 20
194.128100
 30
0.0
  0
SPLINE
  5
365
100
AcDbEntity
  8
LCD
 62
7
100
AcDbSpline
 70
8
 71
3
 72
8
 73
4
 74
0
 40
0
 40
0
 40
0
 40
0
 40
1
 40
1
 40
1
 40
1
 10
93.531413
 20
194.128100
 30
0.0
 10
93.531413
 20
194.525925
 30
0.0
 10
93.689448
 20
194.907456
 30
0.0
 10
93.970753
 20
195.188760
 30
0.0
  0
SPLINE
  5
366
100
AcDbEntity
  8
LCD
 62
7
100
AcDbSpline
 70
8
 71
3
 72
8
 73
4
 74
0
 40
0
 40
0
 40
0
 40
0
 40
1
 40
1
 40
1
 40
1
 10
93.970753
 20
195.188760
 30
0.0
 10
94.252057
 20
195.470065
 30
0.0
 10
94.633588
 20
195.628100
 30
0.0
 10
95.031413
 20
195.628100
 30
0.0
  0
SPLINE
  5
367
100
AcDbEntity
  8
LCD
 62
7
100
AcDbSpline
 70
8
 71
3
 72
8
 73
4
 74
0
 40
0
 40
0
 40
0
 40
0
 40
1
 40
1
 40
1
 40
1
 10
95.031413
 20
195.628100
 30
0.0
 10
95.429238
 20
195.628100
 30
0.0
 10
95.810769
 20
195.470065
 30
0.0
 10
96.092073
 20
195.188760
 30
0.0
  0
SPLINE
  5
368
100
AcDbEntity
  8
LCD
 62
7
100
AcDbSpline
 70
8
 71
3
 72
8
 73
4
 74
0
 40
0
 40
0
 40
0
 40
0
 40
1
 40
1
 40
1
 40
1
 10
96.092073
 20
195.188760
 30
0.0
 10
96.373378
 20
194.907456
 30
0.0
 10
96.531413
 20
194.525925
 30
0.0
 10
96.531413
 20
194.128100
 30
0.0
  0
LINE
  5
369
100
AcDbEntity
  8
LCD
 62
7
100
AcDbLine
 10
96.531413
 20
194.128100
 30
0.0
 11
96.531413
 21
194.128100
 31
0.0
  0
SPLINE
  5
36a
100
AcDbEntity
  8
LCD
 62
7
100
AcDbSpline
 70
8
 71
3
 72
8
 73
4
 74
0
 40
0
 40
0
 40
0
 40
0
 40
1
 40
1
 40
1
 40
1
 10
21.531409
 20
163.128102
 30
0.0
 10
21.531409
 20
162.730277
 30
0.0
 10
21.373374
 20
162.348746
 30
0.0
 10
21.092069
 20
162.067442
 30
0.0
  0
SPLINE
  5
36b
100
AcDbEntity
  8
LCD
 62
7
100
AcDbSpline
 70
8
 71
3
 72
8
 73
4
 74
0
 40
0
 40
0
 40
0
 40
0
 40
1
 40
1
 40
1
 40
1
 10
21.092069
 20
162.067442
 30
0.0
 10
20.810765
 20
161.786137
 30
0.0
 10
20.429234
 20
161.628102
 30
0.0
 10
20.031409
 20
161.628102
 30
0.0
  0
SPLINE
  5
36c
100
AcDbEntity
  8
LCD
 62
7
100
AcDbSpline
 70
8
 71
3
 72
8
 73
4
 74
0
 40
0
 40
0
 40
0
 40
0
 40
1
 40
1
 40
1
 40
1
 10
20.031409
 20
161.628102
 30
0.0
 10
19.633584
 20
161.628102
 30
0.0
 10
19.252053
 20
161.786137
 30
0.0
 10
18.970749
 20
162.067442
 30
0.0
  0
SPLINE
  5
36d
100
AcDbEntity
  8
LCD
 62
7
100
AcDbSpline
 70
8
 71
3
 72
8
 73
4
 74
0
 40
0
 40
0
 40
0
 40
0
 40
1
 40
1
 40
1
 40
1
 10
18.970749
 20
162.067442
 30
0.0
 10
18.689444
 20
162.348746
 30
0.0
 10
18.531409
 20
162.730277
 30
0.0
 10
18.531409
 20
163.128102
 30
0.0
  0
SPLINE
  5
36e
100
AcDbEntity
  8
LCD
 62
7
100
AcDbSpline
 70
8
 71
3
 72
8
 73
4
 74
0
 40
0
 40
0
 40
0
 40
0
 40
1
 40
1
 40
1
 40
1
 10
18.531409
 20
163.128102
 30
0.0
 10
18.531409
 20
163.525927
 30
0.0
 10
18.689444
 20
163.907458
 30
0.0
 10
18.970749
 20
164.188762
 30
0.0
  0
SPLINE
  5
36f
100
AcDbEntity
  8
LCD
 62
7
100
AcDbSpline
 70
8
 71
3
 72
8
 73
4
 74
0
 40
0
 40
0
 40
0
 40
0
 40
1
 40
1
 40
1
 40
1
 10
18.970749
 20
164.188762
 30
0.0
 10
19.252053
 20
164.470067
 30
0.0
 10
19.633584
 20
164.628102
 30
0.0
 10
20.031409
 20
164.628102
 30
0.0
  0
SPLINE
  5
370
100
AcDbEntity
  8
LCD
 62
7
100
AcDbSpline
 70
8
 71
3
 72
8
 73
4
 74
0
 40
0
 40
0
 40
0
 40
0
 40
1
 40
1
 40
1
 40
1
 10
20.031409
 20
164.628102
 30
0.0
 10
20.429234
 20
164.628102
 30
0.0
 10
20.810765
 20
164.470067
 30
0.0
 10
21.092069
 20
164.188762
 30
0.0
  0
SPLINE
  5
371
100
AcDbEntity
  8
LCD
 62
7
100
AcDbSpline
 70
8
 71
3
 72
8
 73
4
 74
0
 40
0
 40
0
 40
0
 40
0
 40
1
 40
1
 40
1
 40
1
 10
21.092069
 20
164.188762
 30
0.0
 10
21.373374
 20
163.907458
 30
0.0
 10
21.531409
 20
163.525927
 30
0.0
 10
21.531409
 20
163.128102
 30
0.0
  0
LINE
  5
372
100
AcDbEntity
  8
LCD
 62
7
100
AcDbLine
 10
21.531409
 20
163.128102
 30
0.0
 11
21.531409
 21
163.128102
 31
0.0
  0
SPLINE
  5
373
100
AcDbEntity
  8
LCD
 62
7
100
AcDbSpline
 70
8
 71
3
 72
8
 73
4
 74
0
 40
0
 40
0
 40
0
 40
0
 40
1
 40
1
 40
1
 40
1
 10
96.531413
 20
163.128102
 30
0.0
 10
96.531413
 20
162.730277
 30
0.0
 10
96.373378
 20
162.348746
 30
0.0
 10
96.092073
 20
162.067442
 30
0.0
  0
SPLINE
  5
374
100
AcDbEntity
  8
LCD
 62
7
100
AcDbSpline
 70
8
 71
3
 72
8
 73
4
 74
0
 40
0
 40
0
 40
0
 40
0
 40
1
 40
1
 40
1
 40
1
 10
96.092073
 20
162.067442
 30
0.0
 10
95.810769
 20
161.786137
 30
0.0
 10
95.429238
 20
161.628102
 30
0.0
 10
95.031413
 20
161.628102
 30
0.0
  0
SPLINE
  5
375
100
AcDbEntity
  8
LCD
 62
7
100
AcDbSpline
 70
8
 71
3
 72
8
 73
4
 74
0
 40
0
 40
0
 40
0
 40
0
 40
1
 40
1
 40
1
 40
1
 10
95.031413
 20
161.628102
 30
0.0
 10
94.633588
 20
161.628102
 30
0.0
 10
94.252057
 20
161.786137
 30
0.0
 10
93.970753
 20
162.067442
 30
0.0
  0
SPLINE
  5
376
100
AcDbEntity
  8
LCD
 62
7
100
AcDbSpline
 70
8
 71
3
 72
8
 73
4
 74
0
 40
0
 40
0
 40
0
 40
0
 40
1
 40
1
 40
1
 40
1
 10
93.970753
 20
162.067442
 30
0.0
 10
93.689448
 20
162.348746
 30
0.0
 10
93.531413
 20
162.730277
 30
0.0
 10
93.531413
 20
163.128102
 30
0.0
  0
SPLINE
  5
377
100
AcDbEntity
  8
LCD
 62
7
100
AcDbSpline
 70
8
 71
3
 72
8
 73
4
 74
0
 40
0
 40
0
 40
0
 40
0
 40
1
 40
1
 40
1
 40
1
 10
93.531413
 20
163.128102
 30
0.0
 10
93.531413
 20
163.525927
 30
0.0
 10
93.689448
 20
163.907458
 30
0.0
 10
93.970753
 20
164.188762
 30
0.0
  0
SPLINE
  5
378
100
AcDbEntity
  8
LCD
 62
7
100
AcDbSpline
 70
8
 71
3
 72
8
 73
4
 74
0
 40
0
 40
0
 40
0
 40
0
 40
1
 40
1
 40
1
 40
1
 10
93.970753
 20
164.188762
 30
0.0
 10
94.252057
 20
164.470067
 30
0.0
 10
94.633588
 20
164.628102
 30
0.0
 10
95.031413
 20
164.628102
 30
0.0
  0
SPLINE
  5
379
100
AcDbEntity
  8
LCD
 62
7
100
AcDbSpline
 70
8
 71
3
 72
8
 73
4
 74
0
 40
0
 40
0
 40
0
 40
0
 40
1
 40
1
 40
1
 40
1
 10
95.031413
 20
164.628102
 30
0.0
 10
95.429238
 20
164.628102
 30
0.0
 10
95.810769
 20
164.470067
 30
0.0
 10
96.092073
 20
164.188762
 30
0.0
  0
SPLINE
  5
37a
100
AcDbEntity
  8
LCD
 62
7
100
AcDbSpline
 70
8
 71
3
 72
8
 73
4
 74
0
 40
0
 40
0
 40
0
 40
0
 40
1
 40
1
 40
1
 40
1
 10
96.092073
 20
164.188762
 30
0.0
 10
96.373378
 20
163.907458
 30
0.0
 10
96.531413
 20
163.525927
 30
0.0
 10
96.531413
 20
163.128102
 30
0.0
  0
LINE
  5
37b
100
AcDbEntity
  8
LCD
 62
7
100
AcDbLine
 10
96.531413
 20
163.128102
 30
0.0
 11
96.531413
 21
163.128102
 31
0.0
  0
ENDSEC
  0
SECTION
  2
OBJECTS
  0
DICTIONARY
  5
C
330
0
100
AcDbDictionary
  3
ACAD_GROUP
350
D
  3
ACAD_MLINESTYLE
350
17
  0
DICTIONARY
  5
D
330
C
100
AcDbDictionary
  0
DICTIONARY
  5
1A
330
C
100
AcDbDictionary
  0
DICTIONARY
  5
17
330
C
100
AcDbDictionary
  3
STANDARD
350
18
  0
DICTIONARY
  5
19
330
C
100
AcDbDictionary
  0
ENDSEC
  0
EOF
