<?xml version="1.0" encoding="UTF-8" standalone="no"?>
<!-- Created with Inkscape (http://www.inkscape.org/) -->

<svg
   width="210mm"
   height="297mm"
   viewBox="0 0 210 297"
   version="1.1"
   id="svg5"
   inkscape:version="1.1.1 (3bf5ae0d25, 2021-09-20)"
   sodipodi:docname="SmartPot(수정 3차) - 출력용 변환.svg"
   xmlns:inkscape="http://www.inkscape.org/namespaces/inkscape"
   xmlns:sodipodi="http://sodipodi.sourceforge.net/DTD/sodipodi-0.dtd"
   xmlns="http://www.w3.org/2000/svg"
   xmlns:svg="http://www.w3.org/2000/svg">
  <sodipodi:namedview
     id="namedview7"
     pagecolor="#505050"
     bordercolor="#ffffff"
     borderopacity="1"
     inkscape:pageshadow="0"
     inkscape:pageopacity="0"
     inkscape:pagecheckerboard="1"
     inkscape:document-units="mm"
     showgrid="false"
     inkscape:zoom="1.0482005"
     inkscape:cx="315.30227"
     inkscape:cy="292.40589"
     inkscape:window-width="1920"
     inkscape:window-height="1017"
     inkscape:window-x="-8"
     inkscape:window-y="-8"
     inkscape:window-maximized="1"
     inkscape:current-layer="layer4"
     borderlayer="true"
     inkscape:showpageshadow="false" />
  <defs
     id="defs2" />
  <g
     inkscape:groupmode="layer"
     id="layer6"
     inkscape:label="Base">
    <path
       id="rect17854"
       style="fill:none;stroke:#000000;stroke-width:0.108253;stroke-linecap:round;stroke-linejoin:round;stroke-dashoffset:3.77953;paint-order:markers stroke fill"
       d="M 0.05412604,0.05412604 H 149.94586 V 149.94588 H 0.05412604 Z" />
    <path
       id="path1035"
       style="fill:none;stroke:#000000;stroke-width:0.0630195;stroke-linecap:round;stroke-linejoin:round;stroke-dashoffset:3.77953;paint-order:markers stroke fill"
       d="M 4.0684903,2.55 A 1.5184903,1.5184903 0 0 1 2.55,4.0684903 1.5184903,1.5184903 0 0 1 1.0315096,2.55 1.5184903,1.5184903 0 0 1 2.55,1.0315096 1.5184903,1.5184903 0 0 1 4.0684903,2.55 Z" />
    <path
       id="circle1117"
       style="fill:none;stroke:#000000;stroke-width:0.0630195;stroke-linecap:round;stroke-linejoin:round;stroke-dashoffset:3.77953;paint-order:markers stroke fill"
       d="M 149.06849,2.55 A 1.5184903,1.5184903 0 0 1 147.55,4.0684903 1.5184903,1.5184903 0 0 1 146.03151,2.55 1.5184903,1.5184903 0 0 1 147.55,1.0315096 1.5184903,1.5184903 0 0 1 149.06849,2.55 Z" />
    <path
       id="circle1119"
       style="fill:none;stroke:#000000;stroke-width:0.0630195;stroke-linecap:round;stroke-linejoin:round;stroke-dashoffset:3.77953;paint-order:markers stroke fill"
       d="M 149.06849,147.55 A 1.5184903,1.5184903 0 0 1 147.55,149.06849 1.5184903,1.5184903 0 0 1 146.03151,147.55 1.5184903,1.5184903 0 0 1 147.55,146.03151 1.5184903,1.5184903 0 0 1 149.06849,147.55 Z" />
    <path
       id="circle1121"
       style="fill:none;stroke:#000000;stroke-width:0.0630195;stroke-linecap:round;stroke-linejoin:round;stroke-dashoffset:3.77953;paint-order:markers stroke fill"
       d="M 4.0684903,147.55 A 1.5184903,1.5184903 0 0 1 2.55,149.06849 1.5184903,1.5184903 0 0 1 1.0315096,147.55 1.5184903,1.5184903 0 0 1 2.55,146.03151 1.5184903,1.5184903 0 0 1 4.0684903,147.55 Z" />
  </g>
  <g
     inkscape:groupmode="layer"
     id="layer5"
     inkscape:label="Logo" />
  <g
     inkscape:groupmode="layer"
     id="layer2"
     inkscape:label="Arduino 1"
     style="display:inline" />
  <g
     inkscape:groupmode="layer"
     id="layer3"
     inkscape:label="HalfBreadBoard"
     style="display:inline" />
  <g
     inkscape:groupmode="layer"
     id="layer4"
     inkscape:label="LCD">
    <path
       style="color:#000000;fill:#000000;stroke-linejoin:round;stroke-dashoffset:3.77953;-inkscape-stroke:none;paint-order:markers stroke fill"
       d="m 115.00391,108.24414 c -6.88698,0 -12.50001,5.61302 -12.5,12.5 0,6.88698 5.61302,12.5 12.5,12.5 6.88697,0 12.49999,-5.61303 12.5,-12.5 0,-6.88697 -5.61303,-12.5 -12.5,-12.5 z m 0,2.79883 c 5.37417,0 9.70117,4.327 9.70117,9.70117 0,5.37417 -4.32701,9.70117 -9.70117,9.70117 -5.37417,0 -9.70117,-4.327 -9.70118,-9.70117 0,-5.37417 4.327,-9.70117 9.70118,-9.70117 z"
       id="path857-2" />
    <path
       style="color:#000000;fill:#000000;stroke-linecap:round;stroke-linejoin:round;stroke-dashoffset:3.77953;-inkscape-stroke:none;paint-order:markers stroke fill"
       d="m 110.15625,115.5332 a 0.44504449,0.44504449 0 0 0 -0.44336,0.44336 v 9.61524 a 0.44504449,0.44504449 0 0 0 0.44336,0.44531 h 9.61523 a 0.44504449,0.44504449 0 0 0 0.44532,-0.44531 v -9.61524 a 0.44504449,0.44504449 0 0 0 -0.44532,-0.44336 z m 0.44531,0.88868 h 8.72461 v 8.7246 h -8.72461 z"
       id="rect961-7" />
    <path
       style="color:#000000;fill:#000000;stroke-linecap:round;stroke-linejoin:round;stroke-dashoffset:3.77953;-inkscape-stroke:none;paint-order:markers stroke fill"
       d="m 112.94336,118.29297 c -0.48067,0 -0.87305,0.39433 -0.87305,0.875 0,0.48067 0.39238,0.875 0.87305,0.875 0.48067,0 0.875,-0.39433 0.875,-0.875 0,-0.48067 -0.39433,-0.875 -0.875,-0.875 z m 0,0.38867 c 0.27044,0 0.48633,0.21589 0.48633,0.48633 0,0.27044 -0.21589,0.48437 -0.48633,0.48437 -0.27044,0 -0.48437,-0.21393 -0.48438,-0.48437 1e-5,-0.27044 0.21394,-0.48633 0.48438,-0.48633 z"
       id="path1351-2" />
    <path
       style="color:#000000;fill:#000000;stroke-linecap:round;stroke-linejoin:round;stroke-dashoffset:3.77953;-inkscape-stroke:none;paint-order:markers stroke fill"
       d="m 114.57227,121.86328 c -0.48067,0 -0.87305,0.39433 -0.87305,0.875 0,0.48067 0.39238,0.87305 0.87305,0.87305 0.48066,0 0.87499,-0.39238 0.875,-0.87305 -1e-5,-0.48067 -0.39434,-0.875 -0.875,-0.875 z m 0,0.38867 c 0.27043,0 0.48632,0.21589 0.48632,0.48633 0,0.27044 -0.21589,0.48438 -0.48632,0.48438 -0.27044,0 -0.48438,-0.21394 -0.48438,-0.48438 0,-0.27044 0.21394,-0.48633 0.48438,-0.48633 z"
       id="circle1433-5" />
    <path
       style="color:#000000;fill:#000000;stroke-linecap:round;stroke-linejoin:round;stroke-dashoffset:3.77953;-inkscape-stroke:none;paint-order:markers stroke fill"
       d="m 117.25,119.23047 c -0.48067,-1e-5 -0.875,0.39433 -0.875,0.875 0,0.48067 0.39433,0.87305 0.875,0.87305 0.48067,-1e-5 0.875,-0.39238 0.875,-0.87305 0,-0.48067 -0.39433,-0.875 -0.875,-0.875 z m 0,0.38867 c 0.27044,0 0.48633,0.21589 0.48633,0.48633 0,0.27044 -0.21589,0.48437 -0.48633,0.48437 -0.27044,1e-5 -0.48633,-0.21393 -0.48633,-0.48437 0,-0.27044 0.21589,-0.48633 0.48633,-0.48633 z"
       id="circle1435-5" />
    <path
       style="color:#000000;fill:#000000;-inkscape-stroke:none"
       d="m 114.26758,123.39453 v 1.98633 h 0.5 v -1.98633 z"
       id="path2127-9" />
    <path
       style="color:#000000;fill:#000000;-inkscape-stroke:none"
       d="m 113.6875,116.16211 -0.0215,1.65234 -0.47852,0.58008 0.38477,0.31836 0.59179,-0.71484 0.0234,-1.82813 z"
       id="path2129-2" />
    <path
       style="color:#000000;fill:#000000;-inkscape-stroke:none"
       d="m 112.00586,122.20508 -1.55664,0.0469 0.0156,0.5 1.34375,-0.041 1.03321,1.01367 0.043,1.66211 0.5,-0.0117 -0.0469,-1.86523 z"
       id="path2133-8" />
    <path
       style="color:#000000;fill:#000000;-inkscape-stroke:none"
       d="m 119.64258,117.63477 -3.73633,0.0918 -1.18945,1.18946 -0.0215,0.80468 -0.99804,1.01563 -3.39844,0.0215 0.004,0.5 3.60743,-0.0234 1.27929,-1.30469 0.0215,-0.80078 0.9082,-0.90821 3.53711,-0.0859 z"
       id="path2135-4" />
    <path
       style="color:#000000;fill:#000000;-inkscape-stroke:none"
       d="m 116.61719,120.33789 -1.7168,1.69727 0.35156,0.35547 1.7168,-1.69532 z"
       id="path2330-3" />
    <path
       style="color:#000000;fill:#000000;stroke-linecap:round;-inkscape-stroke:none"
       d="m 109.05078,124.5957 a 0.40000001,0.40000001 0 0 0 -0.39844,0.39844 0.40000001,0.40000001 0 0 0 0.39844,0.40039 h 0.84961 a 0.40000001,0.40000001 0 0 0 0.39844,-0.40039 0.40000001,0.40000001 0 0 0 -0.39844,-0.39844 z"
       id="path2332-1" />
    <path
       style="color:#000000;fill:#000000;stroke-linecap:round;-inkscape-stroke:none"
       d="m 109.05078,123.39453 a 0.40000001,0.40000001 0 0 0 -0.39844,0.40039 0.40000001,0.40000001 0 0 0 0.39844,0.40039 h 0.84961 a 0.40000001,0.40000001 0 0 0 0.39844,-0.40039 0.40000001,0.40000001 0 0 0 -0.39844,-0.40039 z"
       id="path2447-9" />
    <path
       style="color:#000000;fill:#000000;stroke-linecap:round;-inkscape-stroke:none"
       d="m 109.05078,122.19531 a 0.40000001,0.40000001 0 0 0 -0.39844,0.40039 0.40000001,0.40000001 0 0 0 0.39844,0.39844 h 0.84961 a 0.40000001,0.40000001 0 0 0 0.39844,-0.39844 0.40000001,0.40000001 0 0 0 -0.39844,-0.40039 z"
       id="path2449-7" />
    <path
       style="color:#000000;fill:#000000;stroke-linecap:round;-inkscape-stroke:none"
       d="m 109.05078,120.99414 a 0.40000001,0.40000001 0 0 0 -0.39844,0.40039 0.40000001,0.40000001 0 0 0 0.39844,0.40039 h 0.84961 a 0.40000001,0.40000001 0 0 0 0.39844,-0.40039 0.40000001,0.40000001 0 0 0 -0.39844,-0.40039 z"
       id="path2451-6" />
    <path
       style="color:#000000;fill:#000000;stroke-linecap:round;-inkscape-stroke:none"
       d="m 109.05078,119.79492 a 0.40000001,0.40000001 0 0 0 -0.39844,0.40039 0.40000001,0.40000001 0 0 0 0.39844,0.40039 h 0.84961 a 0.40000001,0.40000001 0 0 0 0.39844,-0.40039 0.40000001,0.40000001 0 0 0 -0.39844,-0.40039 z"
       id="path2453-9" />
    <path
       style="color:#000000;fill:#000000;stroke-linecap:round;-inkscape-stroke:none"
       d="m 109.05078,118.5957 a 0.40000001,0.40000001 0 0 0 -0.39844,0.39844 0.40000001,0.40000001 0 0 0 0.39844,0.40039 h 0.84961 a 0.40000001,0.40000001 0 0 0 0.39844,-0.40039 0.40000001,0.40000001 0 0 0 -0.39844,-0.39844 z"
       id="path2457-4" />
    <path
       style="color:#000000;fill:#000000;stroke-linecap:round;-inkscape-stroke:none"
       d="m 109.05078,117.39453 a 0.40000001,0.40000001 0 0 0 -0.39844,0.40039 0.40000001,0.40000001 0 0 0 0.39844,0.40039 h 0.84961 a 0.40000001,0.40000001 0 0 0 0.39844,-0.40039 0.40000001,0.40000001 0 0 0 -0.39844,-0.40039 z"
       id="path2459-8" />
    <path
       style="color:#000000;fill:#000000;stroke-linecap:round;-inkscape-stroke:none"
       d="m 109.05078,116.19531 a 0.40000001,0.40000001 0 0 0 -0.39844,0.40039 0.40000001,0.40000001 0 0 0 0.39844,0.39844 h 0.84961 a 0.40000001,0.40000001 0 0 0 0.39844,-0.39844 0.40000001,0.40000001 0 0 0 -0.39844,-0.40039 z"
       id="path2461-9" />
    <path
       style="color:#000000;fill:#000000;stroke-linecap:round;-inkscape-stroke:none"
       d="m 120.00586,116.19531 a 0.40000001,0.40000001 0 0 0 -0.40039,0.40039 0.40000001,0.40000001 0 0 0 0.40039,0.39844 h 0.84766 a 0.40000001,0.40000001 0 0 0 0.40039,-0.39844 0.40000001,0.40000001 0 0 0 -0.40039,-0.40039 z"
       id="path2473-7" />
    <path
       style="color:#000000;fill:#000000;stroke-linecap:round;-inkscape-stroke:none"
       d="m 120.00586,117.39453 a 0.40000001,0.40000001 0 0 0 -0.40039,0.40039 0.40000001,0.40000001 0 0 0 0.40039,0.40039 h 0.84766 a 0.40000001,0.40000001 0 0 0 0.40039,-0.40039 0.40000001,0.40000001 0 0 0 -0.40039,-0.40039 z"
       id="path2475-0" />
    <path
       style="color:#000000;fill:#000000;stroke-linecap:round;-inkscape-stroke:none"
       d="m 120.00586,118.5957 a 0.40000001,0.40000001 0 0 0 -0.40039,0.39844 0.40000001,0.40000001 0 0 0 0.40039,0.40039 h 0.84766 a 0.40000001,0.40000001 0 0 0 0.40039,-0.40039 0.40000001,0.40000001 0 0 0 -0.40039,-0.39844 z"
       id="path2477-1" />
    <path
       style="color:#000000;fill:#000000;stroke-linecap:round;-inkscape-stroke:none"
       d="m 120.00586,119.79492 a 0.40000001,0.40000001 0 0 0 -0.40039,0.40039 0.40000001,0.40000001 0 0 0 0.40039,0.40039 h 0.84766 a 0.40000001,0.40000001 0 0 0 0.40039,-0.40039 0.40000001,0.40000001 0 0 0 -0.40039,-0.40039 z"
       id="path2479-5" />
    <path
       style="color:#000000;fill:#000000;stroke-linecap:round;-inkscape-stroke:none"
       d="m 120.00586,120.99414 a 0.40000001,0.40000001 0 0 0 -0.40039,0.40039 0.40000001,0.40000001 0 0 0 0.40039,0.40039 h 0.84766 a 0.40000001,0.40000001 0 0 0 0.40039,-0.40039 0.40000001,0.40000001 0 0 0 -0.40039,-0.40039 z"
       id="path2481-7" />
    <path
       style="color:#000000;fill:#000000;stroke-linecap:round;-inkscape-stroke:none"
       d="m 120.00586,122.19531 a 0.40000001,0.40000001 0 0 0 -0.40039,0.40039 0.40000001,0.40000001 0 0 0 0.40039,0.39844 h 0.84766 a 0.40000001,0.40000001 0 0 0 0.40039,-0.39844 0.40000001,0.40000001 0 0 0 -0.40039,-0.40039 z"
       id="path2483-8" />
    <path
       style="color:#000000;fill:#000000;stroke-linecap:round;-inkscape-stroke:none"
       d="m 120.00586,123.39453 a 0.40000001,0.40000001 0 0 0 -0.40039,0.40039 0.40000001,0.40000001 0 0 0 0.40039,0.40039 h 0.84766 a 0.40000001,0.40000001 0 0 0 0.40039,-0.40039 0.40000001,0.40000001 0 0 0 -0.40039,-0.40039 z"
       id="path2485-4" />
    <path
       style="color:#000000;fill:#000000;stroke-linecap:round;-inkscape-stroke:none"
       d="m 120.00586,124.5957 a 0.40000001,0.40000001 0 0 0 -0.40039,0.39844 0.40000001,0.40000001 0 0 0 0.40039,0.40039 h 0.84766 a 0.40000001,0.40000001 0 0 0 0.40039,-0.40039 0.40000001,0.40000001 0 0 0 -0.40039,-0.39844 z"
       id="path2487-2" />
    <path
       style="color:#000000;fill:#000000;stroke-linecap:round;-inkscape-stroke:none"
       d="m 119.30273,125.49805 a 0.40000001,0.40000001 0 0 0 -0.40039,0.40039 v 0.84765 a 0.40000001,0.40000001 0 0 0 0.40039,0.40039 0.40000001,0.40000001 0 0 0 0.4004,-0.40039 v -0.84765 a 0.40000001,0.40000001 0 0 0 -0.4004,-0.40039 z"
       id="path2491-2" />
    <path
       style="color:#000000;fill:#000000;stroke-linecap:round;-inkscape-stroke:none"
       d="m 118.10352,125.49805 a 0.40000001,0.40000001 0 0 0 -0.40039,0.40039 v 0.84765 a 0.40000001,0.40000001 0 0 0 0.40039,0.40039 0.40000001,0.40000001 0 0 0 0.39843,-0.40039 v -0.84765 a 0.40000001,0.40000001 0 0 0 -0.39843,-0.40039 z"
       id="path2493-0" />
    <path
       style="color:#000000;fill:#000000;stroke-linecap:round;-inkscape-stroke:none"
       d="m 116.90234,125.49805 a 0.40000001,0.40000001 0 0 0 -0.40039,0.40039 v 0.84765 a 0.40000001,0.40000001 0 0 0 0.40039,0.40039 0.40000001,0.40000001 0 0 0 0.40039,-0.40039 v -0.84765 a 0.40000001,0.40000001 0 0 0 -0.40039,-0.40039 z"
       id="path2495-3" />
    <path
       style="color:#000000;fill:#000000;stroke-linecap:round;-inkscape-stroke:none"
       d="m 115.70313,125.49805 a 0.40000001,0.40000001 0 0 0 -0.4004,0.40039 v 0.84765 a 0.40000001,0.40000001 0 0 0 0.4004,0.40039 0.40000001,0.40000001 0 0 0 0.40039,-0.40039 v -0.84765 a 0.40000001,0.40000001 0 0 0 -0.40039,-0.40039 z"
       id="path2497-3" />
    <path
       style="color:#000000;fill:#000000;stroke-linecap:round;-inkscape-stroke:none"
       d="m 114.50195,125.49805 a 0.40000001,0.40000001 0 0 0 -0.39843,0.40039 v 0.84765 a 0.40000001,0.40000001 0 0 0 0.39843,0.40039 0.40000001,0.40000001 0 0 0 0.40039,-0.40039 v -0.84765 a 0.40000001,0.40000001 0 0 0 -0.40039,-0.40039 z"
       id="path2499-4" />
    <path
       style="color:#000000;fill:#000000;stroke-linecap:round;-inkscape-stroke:none"
       d="m 113.30273,125.49805 a 0.40000001,0.40000001 0 0 0 -0.40039,0.40039 v 0.84765 a 0.40000001,0.40000001 0 0 0 0.40039,0.40039 0.40000001,0.40000001 0 0 0 0.4004,-0.40039 v -0.84765 a 0.40000001,0.40000001 0 0 0 -0.4004,-0.40039 z"
       id="path2501-3" />
    <path
       style="color:#000000;fill:#000000;stroke-linecap:round;-inkscape-stroke:none"
       d="m 112.10352,125.49805 a 0.40000001,0.40000001 0 0 0 -0.40039,0.40039 v 0.84765 a 0.40000001,0.40000001 0 0 0 0.40039,0.40039 0.40000001,0.40000001 0 0 0 0.39843,-0.40039 v -0.84765 a 0.40000001,0.40000001 0 0 0 -0.39843,-0.40039 z"
       id="path2503-9" />
    <path
       style="color:#000000;fill:#000000;stroke-linecap:round;-inkscape-stroke:none"
       d="m 110.90234,125.49805 a 0.40000001,0.40000001 0 0 0 -0.40039,0.40039 v 0.84765 a 0.40000001,0.40000001 0 0 0 0.40039,0.40039 0.40000001,0.40000001 0 0 0 0.40039,-0.40039 v -0.84765 a 0.40000001,0.40000001 0 0 0 -0.40039,-0.40039 z"
       id="path2505-4" />
    <path
       style="color:#000000;fill:#000000;stroke-linecap:round;-inkscape-stroke:none"
       d="m 119.30273,114.39844 a 0.40000001,0.40000001 0 0 0 -0.40039,0.40039 v 0.84765 a 0.40000001,0.40000001 0 0 0 0.40039,0.4004 0.40000001,0.40000001 0 0 0 0.4004,-0.4004 v -0.84765 a 0.40000001,0.40000001 0 0 0 -0.4004,-0.40039 z"
       id="path2509-4" />
    <path
       style="color:#000000;fill:#000000;stroke-linecap:round;-inkscape-stroke:none"
       d="m 118.10352,114.39844 a 0.40000001,0.40000001 0 0 0 -0.40039,0.40039 v 0.84765 a 0.40000001,0.40000001 0 0 0 0.40039,0.4004 0.40000001,0.40000001 0 0 0 0.39843,-0.4004 v -0.84765 a 0.40000001,0.40000001 0 0 0 -0.39843,-0.40039 z"
       id="path2511-6" />
    <path
       style="color:#000000;fill:#000000;stroke-linecap:round;-inkscape-stroke:none"
       d="m 116.90234,114.39844 a 0.40000001,0.40000001 0 0 0 -0.40039,0.40039 v 0.84765 a 0.40000001,0.40000001 0 0 0 0.40039,0.4004 0.40000001,0.40000001 0 0 0 0.40039,-0.4004 v -0.84765 a 0.40000001,0.40000001 0 0 0 -0.40039,-0.40039 z"
       id="path2513-9" />
    <path
       style="color:#000000;fill:#000000;stroke-linecap:round;-inkscape-stroke:none"
       d="m 115.70313,114.39844 a 0.40000001,0.40000001 0 0 0 -0.4004,0.40039 v 0.84765 a 0.40000001,0.40000001 0 0 0 0.4004,0.4004 0.40000001,0.40000001 0 0 0 0.40039,-0.4004 v -0.84765 a 0.40000001,0.40000001 0 0 0 -0.40039,-0.40039 z"
       id="path2515-6" />
    <path
       style="color:#000000;fill:#000000;stroke-linecap:round;-inkscape-stroke:none"
       d="m 114.50195,114.39844 a 0.40000001,0.40000001 0 0 0 -0.39843,0.40039 v 0.84765 a 0.40000001,0.40000001 0 0 0 0.39843,0.4004 0.40000001,0.40000001 0 0 0 0.40039,-0.4004 v -0.84765 a 0.40000001,0.40000001 0 0 0 -0.40039,-0.40039 z"
       id="path2517-7" />
    <path
       style="color:#000000;fill:#000000;stroke-linecap:round;-inkscape-stroke:none"
       d="m 113.30273,114.39844 a 0.40000001,0.40000001 0 0 0 -0.40039,0.40039 v 0.84765 a 0.40000001,0.40000001 0 0 0 0.40039,0.4004 0.40000001,0.40000001 0 0 0 0.4004,-0.4004 v -0.84765 a 0.40000001,0.40000001 0 0 0 -0.4004,-0.40039 z"
       id="path2519-3" />
    <path
       style="color:#000000;fill:#000000;stroke-linecap:round;-inkscape-stroke:none"
       d="m 112.10352,114.39844 a 0.40000001,0.40000001 0 0 0 -0.40039,0.40039 v 0.84765 a 0.40000001,0.40000001 0 0 0 0.40039,0.4004 0.40000001,0.40000001 0 0 0 0.39843,-0.4004 v -0.84765 a 0.40000001,0.40000001 0 0 0 -0.39843,-0.40039 z"
       id="path2521-1" />
    <path
       style="color:#000000;fill:#000000;stroke-linecap:round;-inkscape-stroke:none"
       d="m 110.90234,114.39844 a 0.40000001,0.40000001 0 0 0 -0.40039,0.40039 v 0.84765 a 0.40000001,0.40000001 0 0 0 0.40039,0.4004 0.40000001,0.40000001 0 0 0 0.40039,-0.4004 v -0.84765 a 0.40000001,0.40000001 0 0 0 -0.40039,-0.40039 z"
       id="path2523-7" />
    <g
       aria-label="SMART POT"
       id="text4728"
       style="font-weight:bold;font-size:10.5833px;font-family:'Nirmala UI';-inkscape-font-specification:'Nirmala UI Bold';stroke-width:0.264583">
      <path
         d="m 17.085308,95.075629 v -1.653641 q 0.449583,0.377237 0.976681,0.568439 0.527098,0.186034 1.064531,0.186034 0.315226,0 0.547769,-0.05684 0.237711,-0.05684 0.392739,-0.155029 0.160197,-0.103353 0.237711,-0.237711 0.07751,-0.139526 0.07751,-0.299722 0,-0.217041 -0.124023,-0.387572 -0.124023,-0.170532 -0.341064,-0.315226 -0.211872,-0.144693 -0.506427,-0.279051 -0.294555,-0.134359 -0.635618,-0.273885 -0.868162,-0.361734 -1.297075,-0.883664 -0.423745,-0.52193 -0.423745,-1.260901 0,-0.578774 0.232543,-0.992184 0.232543,-0.418578 0.630451,-0.687295 0.403075,-0.268716 0.930172,-0.392739 0.527098,-0.129191 1.116208,-0.129191 0.578774,0 1.02319,0.07235 0.449583,0.06718 0.82682,0.211873 v 1.54512 q -0.186034,-0.129191 -0.408242,-0.227376 -0.217041,-0.09818 -0.449584,-0.160196 -0.232543,-0.06718 -0.465086,-0.09819 -0.227376,-0.03101 -0.434081,-0.03101 -0.284219,0 -0.516763,0.05684 -0.232543,0.05168 -0.392739,0.149861 -0.160197,0.09819 -0.248046,0.237711 -0.08785,0.134359 -0.08785,0.30489 0,0.186035 0.09818,0.335896 0.09819,0.144694 0.279052,0.279052 0.180867,0.129191 0.439248,0.258381 0.258381,0.124023 0.583942,0.258382 0.444416,0.186034 0.795814,0.397907 0.356567,0.206705 0.60978,0.470254 0.253214,0.263549 0.387572,0.604612 0.134359,0.335896 0.134359,0.785479 0,0.620116 -0.237711,1.043861 -0.232543,0.418578 -0.635618,0.682127 -0.403075,0.258381 -0.940508,0.372069 -0.532266,0.113688 -1.126543,0.113688 -0.60978,0 -1.162716,-0.103353 -0.547768,-0.103352 -0.950843,-0.310057 z"
         id="path1017" />
      <path
         d="m 31.802709,95.359848 h -1.648473 v -4.433824 q 0,-0.7183 0.06201,-1.586461 h -0.04134 q -0.12919,0.682127 -0.232543,0.981849 l -1.736322,5.038436 h -1.364254 l -1.767328,-4.98676 q -0.07235,-0.201537 -0.232544,-1.033525 h -0.04651 q 0.06718,1.095537 0.06718,1.922357 v 4.097928 h -1.503779 v -7.410377 h 2.444287 l 1.514115,4.392483 q 0.180867,0.527098 0.263549,1.059363 h 0.03101 q 0.139526,-0.614947 0.294555,-1.069698 l 1.514115,-4.382148 h 2.382276 z"
         id="path1019" />
      <path
         d="M 40.003732,95.359848 H 38.184727 L 37.65763,93.711375 h -2.63549 l -0.52193,1.648473 h -1.80867 l 2.697501,-7.410377 h 1.979201 z m -2.728507,-2.930044 -0.795814,-2.490796 q -0.08785,-0.279052 -0.124023,-0.666624 h -0.04134 q -0.02584,0.32556 -0.129191,0.645953 l -0.80615,2.511467 z"
         id="path1021" />
      <path
         d="M 47.145393,95.359848 H 45.228204 L 44.075823,93.452994 Q 43.946632,93.235953 43.827777,93.065422 43.708921,92.89489 43.584898,92.776035 43.466043,92.652012 43.331685,92.59 q -0.129191,-0.06718 -0.28422,-0.06718 h -0.449583 v 2.837027 h -1.669144 v -7.410377 h 2.645825 q 2.697501,0 2.697501,2.015375 0,0.387572 -0.118855,0.7183 -0.118856,0.32556 -0.335896,0.589109 -0.21704,0.263549 -0.527098,0.454751 -0.30489,0.191203 -0.682127,0.299723 v 0.02067 q 0.165364,0.05168 0.320393,0.170532 0.155029,0.113688 0.299723,0.268717 0.144693,0.155028 0.273884,0.335895 0.134358,0.1757 0.242878,0.346231 z m -4.547511,-6.159811 v 2.061883 h 0.723467 q 0.537434,0 0.862994,-0.310058 0.330728,-0.315225 0.330728,-0.780311 0,-0.971514 -1.162716,-0.971514 z"
         id="path1023" />
      <path
         d="m 52.767771,89.308557 h -2.113559 v 6.051291 h -1.674311 v -6.051291 h -2.103224 v -1.359086 h 5.891094 z"
         id="path1025" />
      <path
         d="m 58.353976,92.80704 v 2.552808 h -1.669144 v -7.410377 h 2.614819 q 2.800854,0 2.800854,2.361606 0,1.116207 -0.80615,1.808669 -0.800982,0.687294 -2.144565,0.687294 z m 0,-3.575997 v 2.309929 h 0.656288 q 1.333248,0 1.333248,-1.167884 0,-1.142045 -1.333248,-1.142045 z"
         id="path1027" />
      <path
         d="m 66.317287,95.489039 q -1.591629,0 -2.594148,-1.033526 -1.00252,-1.038693 -1.00252,-2.702668 0,-1.756994 1.018023,-2.842195 1.018022,-1.085202 2.697501,-1.085202 1.586461,0 2.563143,1.038693 0.981849,1.038693 0.981849,2.738842 0,1.746658 -1.018023,2.816357 -1.012854,1.069699 -2.645825,1.069699 z m 0.07235,-6.226991 q -0.878496,0 -1.395259,0.661457 -0.516763,0.656288 -0.516763,1.74149 0,1.100704 0.516763,1.74149 0.516763,0.640786 1.353918,0.640786 0.862994,0 1.369421,-0.620115 0.506428,-0.625283 0.506428,-1.731155 0,-1.152381 -0.490925,-1.793167 -0.490924,-0.640786 -1.343583,-0.640786 z"
         id="path1029" />
      <path
         d="m 75.93941,89.308557 h -2.11356 v 6.051291 h -1.674311 v -6.051291 h -2.103224 v -1.359086 h 5.891095 z"
         id="path1031" />
    </g>
    <path
       id="rect888-2"
       style="fill:none;stroke:#000000;stroke-width:0.11121;stroke-linecap:round;stroke-linejoin:round;stroke-dashoffset:3.77953;paint-order:markers stroke fill"
       transform="rotate(90)"
       d="m 14.234913,-70.725731 h 68.488792 v 53.188789 H 14.234913 Z" />
    <path
       id="path1042-1"
       style="fill:none;stroke:#000000;stroke-width:0.1;stroke-linecap:round;stroke-linejoin:round;stroke-dashoffset:3.77953;paint-order:markers stroke fill"
       transform="rotate(90)"
       d="m 31.044306,-68.104172 a 1.5,1.5 0 0 1 -1.5,1.5 1.5,1.5 0 0 1 -1.5,-1.5 1.5,1.5 0 0 1 1.5,-1.5 1.5,1.5 0 0 1 1.5,1.5 z" />
    <path
       id="circle1330-5"
       style="fill:none;stroke:#000000;stroke-width:0.1;stroke-linecap:round;stroke-linejoin:round;stroke-dashoffset:3.77953;paint-order:markers stroke fill"
       transform="rotate(90)"
       d="m 80.544304,-52.903675 a 1.5,1.5 0 0 1 -1.5,1.5 1.5,1.5 0 0 1 -1.5,-1.5 1.5,1.5 0 0 1 1.5,-1.5 1.5,1.5 0 0 1 1.5,1.5 z" />
    <path
       id="circle1332-6"
       style="fill:none;stroke:#000000;stroke-width:0.1;stroke-linecap:round;stroke-linejoin:round;stroke-dashoffset:3.77953;paint-order:markers stroke fill"
       transform="rotate(90)"
       d="m 80.544304,-25.003675 a 1.5,1.5 0 0 1 -1.5,1.5 1.5,1.5 0 0 1 -1.5,-1.5 1.5,1.5 0 0 1 1.5,-1.5 1.5,1.5 0 0 1 1.5,1.5 z" />
    <path
       id="circle1334-8"
       style="fill:none;stroke:#000000;stroke-width:0.1;stroke-linecap:round;stroke-linejoin:round;stroke-dashoffset:3.77953;paint-order:markers stroke fill"
       transform="rotate(90)"
       d="m 29.744307,-19.903673 a 1.5,1.5 0 0 1 -1.5,1.5 1.5,1.5 0 0 1 -1.5,-1.5 1.5,1.5 0 0 1 1.5,-1.5 1.5,1.5 0 0 1 1.5,1.5 z" />
    <path
       id="rect1586"
       style="display:inline;fill:none;stroke:#000000;stroke-width:0.111569;stroke-linecap:round;stroke-linejoin:round;stroke-dashoffset:3.77953;paint-order:markers stroke fill"
       transform="rotate(-90)"
       d="m -94.862724,79.211472 h 81.128425 V 132.8899 h -81.128425 z" />
    <g
       id="g1888"
       transform="translate(-2.157587,86.361874)">
      <path
         id="rect1691"
         style="fill:none;stroke:#000000;stroke-width:0.10036;stroke-linecap:round;stroke-linejoin:round;stroke-dashoffset:3.77953;paint-order:markers stroke fill"
         d="M 19.688684,14.009803 H 99.58832 V 49.909442 H 19.688684 Z" />
      <path
         id="path1795"
         style="fill:none;stroke:#000000;stroke-width:0.1;stroke-linecap:round;stroke-linejoin:round;stroke-dashoffset:3.77953;paint-order:markers stroke fill"
         d="m 23.688999,16.51 a 1.5,1.5 0 0 1 -1.5,1.5 1.5,1.5 0 0 1 -1.5,-1.5 1.5,1.5 0 0 1 1.5,-1.5 1.5,1.5 0 0 1 1.5,1.5 z" />
      <path
         id="circle1877"
         style="fill:none;stroke:#000000;stroke-width:0.1;stroke-linecap:round;stroke-linejoin:round;stroke-dashoffset:3.77953;paint-order:markers stroke fill"
         d="m 98.689003,16.51 a 1.5,1.5 0 0 1 -1.5,1.5 1.5,1.5 0 0 1 -1.5,-1.5 1.5,1.5 0 0 1 1.5,-1.5 1.5,1.5 0 0 1 1.5,1.5 z" />
      <path
         id="circle1879"
         style="fill:none;stroke:#000000;stroke-width:0.1;stroke-linecap:round;stroke-linejoin:round;stroke-dashoffset:3.77953;paint-order:markers stroke fill"
         d="m 23.688999,47.509998 a 1.5,1.5 0 0 1 -1.5,1.5 1.5,1.5 0 0 1 -1.5,-1.5 1.5,1.5 0 0 1 1.5,-1.5 1.5,1.5 0 0 1 1.5,1.5 z" />
      <path
         id="circle1881"
         style="fill:none;stroke:#000000;stroke-width:0.1;stroke-linecap:round;stroke-linejoin:round;stroke-dashoffset:3.77953;paint-order:markers stroke fill"
         d="m 98.689003,47.509998 a 1.5,1.5 0 0 1 -1.5,1.5 1.5,1.5 0 0 1 -1.5,-1.5 1.5,1.5 0 0 1 1.5,-1.5 1.5,1.5 0 0 1 1.5,1.5 z" />
    </g>
  </g>
</svg>
