<?xml version="1.0" encoding="UTF-8" standalone="no"?>
<!-- Created with Inkscape (http://www.inkscape.org/) -->

<svg
   width="210mm"
   height="297mm"
   viewBox="0 0 210 297"
   version="1.1"
   id="svg5"
   inkscape:version="1.1.1 (3bf5ae0d25, 2021-09-20)"
   sodipodi:docname="SmartPot(수정 2차).svg"
   xmlns:inkscape="http://www.inkscape.org/namespaces/inkscape"
   xmlns:sodipodi="http://sodipodi.sourceforge.net/DTD/sodipodi-0.dtd"
   xmlns="http://www.w3.org/2000/svg"
   xmlns:svg="http://www.w3.org/2000/svg">
  <sodipodi:namedview
     id="namedview7"
     pagecolor="#505050"
     bordercolor="#ffffff"
     borderopacity="1"
     inkscape:pageshadow="0"
     inkscape:pageopacity="0"
     inkscape:pagecheckerboard="1"
     inkscape:document-units="mm"
     showgrid="false"
     inkscape:zoom="1.0482005"
     inkscape:cx="297.17597"
     inkscape:cy="263.78541"
     inkscape:window-width="1920"
     inkscape:window-height="1017"
     inkscape:window-x="-8"
     inkscape:window-y="-8"
     inkscape:window-maximized="1"
     inkscape:current-layer="layer1" />
  <defs
     id="defs2" />
  <g
     inkscape:label="레이어 1"
     inkscape:groupmode="layer"
     id="layer1">
    <g
       aria-label="SmartPot"
       transform="rotate(90)"
       id="text9586"
       style="font-size:10.5833px;line-height:1.25;stroke-width:0.264583" />
    <path
       id="rect858"
       style="color:#000000;fill:#000000;stroke-width:0.264583;stroke-linejoin:round;stroke-dashoffset:3.77953;-inkscape-stroke:none;paint-order:markers stroke fill"
       d="m 19.46703,131.54391 a 0.150015,0.150015 0 0 0 -0.14987,0.14987 v 35.99987 a 0.150015,0.150015 0 0 0 0.14987,0.14986 H 99.4668 a 0.150015,0.150015 0 0 0 0.14986,-0.14986 v -35.99987 a 0.150015,0.150015 0 0 0 -0.14986,-0.14987 z m 0.14986,0.29973 h 79.70005 v 35.70014 H 19.61689 Z m 3.95014,2.20038 c -0.93503,-10e-5 -1.69611,0.76099 -1.69602,1.69602 2.2e-4,0.93481 0.76121,1.6956 1.69602,1.6955 0.9346,-2.1e-4 1.69529,-0.76091 1.69551,-1.6955 9e-5,-0.93481 -0.76069,-1.6958 -1.69551,-1.69602 z m 71.90776,0 c -0.93503,-10e-5 -1.69612,0.76099 -1.69602,1.69602 2.2e-4,0.93481 0.76121,1.6956 1.69602,1.6955 0.93481,1e-4 1.69581,-0.76069 1.69602,-1.6955 1e-4,-0.93503 -0.76099,-1.69612 -1.69602,-1.69602 z m -71.90776,0.29972 c 0.7727,1.8e-4 1.39586,0.62361 1.39579,1.3963 -1.8e-4,0.77251 -0.62328,1.3956 -1.39579,1.39578 -0.77269,8e-5 -1.39611,-0.62309 -1.39629,-1.39578 -8e-5,-0.77288 0.62342,-1.39638 1.39629,-1.3963 z m 71.90776,0 c 0.77288,-8e-5 1.39638,0.62342 1.3963,1.3963 -1.8e-4,0.77269 -0.6236,1.39586 -1.3963,1.39578 -0.77269,8e-5 -1.39611,-0.62309 -1.39629,-1.39578 -8e-5,-0.77288 0.62341,-1.39638 1.39629,-1.3963 z m -71.90776,27.60814 c -0.93503,-10e-5 -1.69611,0.76098 -1.69602,1.69602 -9e-5,0.93503 0.76099,1.69611 1.69602,1.69602 0.93482,-2.2e-4 1.6956,-0.76121 1.69551,-1.69602 9e-5,-0.93482 -0.76069,-1.69581 -1.69551,-1.69602 z m 71.90776,0 c -0.93503,-10e-5 -1.69612,0.76098 -1.69602,1.69602 -10e-5,0.93503 0.76099,1.69611 1.69602,1.69602 0.93503,9e-5 1.69612,-0.76099 1.69602,-1.69602 1e-4,-0.93504 -0.76099,-1.69612 -1.69602,-1.69602 z m -71.90776,0.29972 c 0.7727,1.8e-4 1.39586,0.6236 1.39579,1.3963 7e-5,0.77269 -0.62309,1.39612 -1.39579,1.3963 -0.77287,8e-5 -1.39637,-0.62342 -1.39629,-1.3963 -8e-5,-0.77288 0.62342,-1.39638 1.39629,-1.3963 z m 71.90776,0 c 0.77288,-8e-5 1.39638,0.62342 1.3963,1.3963 8e-5,0.77288 -0.62342,1.39638 -1.3963,1.3963 -0.77288,8e-5 -1.39637,-0.62342 -1.39629,-1.3963 -8e-5,-0.77288 0.62341,-1.39638 1.39629,-1.3963 z M 33.80104,14.947408 a 0.150015,0.150015 0 0 0 -0.14987,0.149862 v 53.578124 a 0.150015,0.150015 0 0 0 0.14987,0.149862 h 68.59994 a 0.150015,0.150015 0 0 0 0.14986,-0.149862 V 15.09727 a 0.150015,0.150015 0 0 0 -0.14986,-0.149862 z m 0.14986,0.299723 h 68.30022 v 53.2784 H 33.9509 Z m 53.10373,0.886251 c -0.93481,-9.6e-5 -1.6958,0.760691 -1.69602,1.695504 -1e-4,0.935032 0.76099,1.696116 1.69602,1.69602 0.93482,-2.16e-4 1.6956,-0.761207 1.69551,-1.69602 -2.2e-4,-0.934594 -0.76091,-1.695288 -1.69551,-1.695504 z m 0,0.299723 c 0.77252,1.79e-4 1.39561,0.62327 1.39578,1.395781 9e-5,0.772695 -0.62308,1.396119 -1.39578,1.396297 -0.77288,7.9e-5 -1.39638,-0.623419 -1.3963,-1.396297 1.8e-4,-0.772695 0.62361,-1.39586 1.3963,-1.395781 z m -49.50034,5.155241 c -0.93481,2.18e-4 -1.69559,0.761209 -1.6955,1.696021 2.2e-4,0.934592 0.76091,1.695286 1.6955,1.695503 0.93482,9.6e-5 1.69581,-0.76069 1.69603,-1.695503 9e-5,-0.935033 -0.76099,-1.696117 -1.69603,-1.696021 z m 0,0.299723 c 0.77288,-7.9e-5 1.39638,0.623419 1.3963,1.396298 -1.8e-4,0.772694 -0.6236,1.39586 -1.3963,1.39578 -0.77251,-1.8e-4 -1.3956,-0.623271 -1.39578,-1.39578 -8e-5,-0.772694 0.62309,-1.396118 1.39578,-1.396298 z m 0,27.600382 c -0.93459,2.17e-4 -1.69528,0.760913 -1.6955,1.695506 -9e-5,0.934809 0.76069,1.695801 1.6955,1.696018 0.93504,9.8e-5 1.69612,-0.760986 1.69603,-1.696018 -2.2e-4,-0.934816 -0.76121,-1.695601 -1.69603,-1.695506 z m 0,0.299723 c 0.7727,-8e-5 1.39612,0.623085 1.3963,1.395783 8e-5,0.772877 -0.62342,1.396375 -1.3963,1.396296 -0.77269,-1.8e-4 -1.39586,-0.623605 -1.39578,-1.396296 1.8e-4,-0.772512 0.62327,-1.395603 1.39578,-1.395783 z M 88.3543,64.688041 c -0.93482,2.17e-4 -1.69561,0.761209 -1.69551,1.696019 -10e-5,0.934812 0.76069,1.695804 1.69551,1.696021 0.93503,9.6e-5 1.69611,-0.760989 1.69602,-1.696021 9e-5,-0.935032 -0.76099,-1.696117 -1.69602,-1.696019 z m 0,0.299723 c 0.77288,-8e-5 1.39637,0.623419 1.39629,1.396296 8e-5,0.772879 -0.62341,1.396378 -1.39629,1.396299 -0.7727,-1.8e-4 -1.39587,-0.623605 -1.39579,-1.396299 -8e-5,-0.772692 0.62309,-1.396116 1.39579,-1.396296 z m -68.15444,8.113798 a 0.15001501,0.15001501 0 0 0 -0.14843,0.150391 v 53.000007 a 0.15001501,0.15001501 0 0 0 0.14843,0.15039 h 82.20118 a 0.15001501,0.15001501 0 0 0 0.15039,-0.15039 V 73.251953 a 0.15001501,0.15001501 0 0 0 -0.15039,-0.150391 z m 0.15039,0.300782 h 81.9004 V 126.10157 H 20.35025 Z M 4.92017,108.31699 q -0.0775,-0.29972 -0.11885,-0.63562 -0.0465,-0.33589 -0.0465,-0.82165 0,-1.0852 0.43924,-1.61747 0.43925,-0.5271 1.50378,-0.5271 h 2.71301 v -0.76481 h 1.2609 v 0.76481 h 1.65881 v 1.86035 h -1.65881 v 1.74149 H 9.41085 V 106.5755 H 7.35413 q -0.30489,0 -0.53226,0.005 -0.22738,0.005 -0.40825,0.0827 -0.18086,0.0724 -0.28938,0.25321 -0.10336,0.18604 -0.10336,0.53744 0,0.14469 0.062,0.37723 0.062,0.23771 0.11369,0.33073 v 0.15503 z m 2.84736,-5.0436 q -1.43143,0 -2.25825,-0.83716 -0.82165,-0.83199 -0.82165,-2.34093 0,-1.50895 0.82165,-2.34611 0.82682,-0.83199 2.25825,-0.83199 1.44177,0 2.26342,0.83716 0.82166,0.84232 0.82166,2.34094 0,1.51928 -0.82682,2.3461 -0.82682,0.83199 -2.25826,0.83199 z m -1.41076,-2.28926 q 0.22221,0.18086 0.53227,0.26871 0.31522,0.093 0.86816,0.093 0.51159,0 0.85782,-0.093 0.34623,-0.093 0.55294,-0.25838 0.21187,-0.16536 0.29972,-0.3979 0.0879,-0.23255 0.0879,-0.50126 0,-0.268722 -0.0724,-0.48059 Q 9.41078,99.408 9.1938,99.2168 8.99226,99.04627 8.64086,98.94291 q -0.3514,-0.0982 -0.88367,-0.0982 -0.47542,0 -0.82682,0.0879 -0.34623,0.0879 -0.5581,0.25839 -0.20154,0.16536 -0.29455,0.39274 -0.093,0.232538 -0.093,0.5271 0,0.25321 0.0827,0.48059 0.0878,0.23254 0.28938,0.39274 z m 3.77754,-4.94543 q -0.51677,0 -1.01286,-0.18086 Q 8.63053,95.67697 8.29463,95.34107 7.83988,94.881146 7.60734,94.312716 7.37479,93.749436 7.37479,92.907112 v -1.23506 h -2.5063 v -1.984369 h 7.6946 v 3.265943 q 0,0.7338 -0.12919,1.23506 -0.12402,0.50643 -0.37724,0.894004 -0.30489,0.46509 -0.78031,0.70797 -0.47542,0.24804 -1.14204,0.24804 z m -0.0465,-2.051544 q 0.32556,0 0.5581,-0.1757 0.23771,-0.1757 0.33073,-0.40825 0.12402,-0.31005 0.13436,-0.604614 0.0155,-0.29455 0.0155,-0.78548 v -0.34106 H 8.82173 v 0.56844 q 0,0.50643 0.062,0.831994 0.062,0.33072 0.24805,0.55293 0.16537,0.1912 0.39274,0.27389 0.23254,0.0879 0.56327,0.0879 z M 4.92018,88.473292 q -0.0775,-0.299722 -0.11885,-0.635618 -0.0465,-0.335896 -0.0465,-0.821653 0,-1.085201 0.43924,-1.617467 0.43925,-0.527098 1.50378,-0.527098 h 2.71301 v -0.764809 h 1.2609 v 0.764809 h 1.65881 v 1.860346 h -1.65881 v 1.74149 h -1.2609 v -1.74149 H 7.35414 q -0.30489,0 -0.53226,0.0052 -0.22738,0.0052 -0.40825,0.08268 -0.18086,0.07235 -0.28938,0.253214 -0.10336,0.186035 -0.10336,0.537433 0,0.144694 0.062,0.377237 0.062,0.237711 0.11369,0.330728 v 0.155029 z m 3.97907,-4.764553 v -0.165364 q 0.0413,-0.118855 0.062,-0.382404 0.0207,-0.263549 0.0207,-0.439248 0,-0.397908 -0.0517,-0.702798 -0.0517,-0.30489 -0.1757,-0.656288 H 4.86851 v -1.860346 h 5.80324 v 1.860346 H 9.81909 q 0.5271,0.614947 0.69763,1.069698 0.1757,0.454752 0.1757,0.837156 0,0.09819 -0.005,0.222208 -0.005,0.124023 -0.0155,0.21704 z M 6.38262,75.946964 H 7.59184 Q 7.56084,75.569728 7.50394,75.130479 7.45224,74.691231 7.37992,74.463855 7.29202,74.184804 7.12154,74.034942 6.95618,73.890249 6.68229,73.890249 q -0.18087,0 -0.29455,0.03101 -0.11369,0.031 -0.21704,0.155028 -0.10336,0.118856 -0.15503,0.28422 -0.0465,0.165364 -0.0465,0.516763 0,0.279051 0.11369,0.563271 0.11368,0.289387 0.29972,0.506427 z m -0.89917,0 Q 5.36976,75.797103 5.20957,75.574895 5.04937,75.352687 4.95635,75.156317 4.83233,74.882433 4.77549,74.587878 q -0.062,-0.294554 -0.062,-0.645953 0,-0.82682 0.51159,-1.384924 0.5116,-0.558104 1.30741,-0.558104 0.63562,0 1.03869,0.28422 0.40308,0.284219 0.63562,0.80615 0.23255,0.516762 0.33073,1.281571 0.0982,0.764809 0.14469,1.586462 h 0.031 q 0.48059,0 0.66146,-0.39274 0.18604,-0.39274 0.18604,-1.157549 0,-0.459918 -0.16537,-0.981849 -0.1602,-0.52193 -0.24804,-0.749305 v -0.170532 h 1.40042 q 0.0775,0.294555 0.18087,0.956011 0.10852,0.666624 0.10852,1.333247 0,1.586462 -0.49093,2.289259 -0.48575,0.707965 -1.52961,0.707965 H 4.86851 V 75.946964 Z M 8.98194,66.908785 H 4.8685 v -1.870681 h 2.89904 q 0.42375,0 0.7183,-0.02067 0.29973,-0.02067 0.48576,-0.113688 0.18603,-0.09302 0.26872,-0.284219 0.0878,-0.186035 0.0878,-0.527098 0,-0.273885 -0.11369,-0.532266 Q 9.10591,63.301782 8.98189,63.095077 H 4.86845 v -1.860346 h 5.80325 v 1.860346 h -0.64079 q 0.37724,0.480589 0.58911,0.919837 0.21188,0.439249 0.21188,0.971514 0,0.573607 -0.25839,1.012855 -0.25321,0.439248 -0.7493,0.687294 0.47025,0.558104 0.73897,1.085202 0.26872,0.527098 0.26872,1.033525 0,0.940508 -0.56328,1.426265 -0.56327,0.490925 -1.62263,0.490925 H 4.86845 v -1.870681 h 2.89904 q 0.42892,0 0.72347,-0.02067 0.29456,-0.0155 0.48059,-0.10852 0.18604,-0.08785 0.26872,-0.279052 0.0878,-0.191202 0.0878,-0.537433 0,-0.232543 -0.0827,-0.454751 -0.0775,-0.222208 -0.26355,-0.542601 z M 7.28695,59.978998 q -1.13687,0 -1.85001,-0.966347 -0.70796,-0.961178 -0.70796,-2.614819 0,-0.956011 0.16536,-1.669143 0.17053,-0.707965 0.42892,-1.32808 H 7.1681 v 0.21704 q -0.49093,0.614948 -0.75448,1.374589 -0.26354,0.764809 -0.26354,1.467606 0,0.180867 0.031,0.475422 0.031,0.294554 0.10335,0.480589 0.093,0.227375 0.23254,0.372069 0.13953,0.149861 0.41341,0.149861 0.25322,0 0.43408,-0.21704 0.18604,-0.211873 0.28422,-0.625283 0.10335,-0.434081 0.1912,-0.919838 0.093,-0.480589 0.23255,-0.904334 0.31522,-0.971514 0.85266,-1.400427 0.5426,-0.423746 1.34358,-0.423746 1.07486,0 1.75182,0.961179 0.68213,0.966346 0.68213,2.480461 0,0.759641 -0.14986,1.498612 -0.14469,0.744138 -0.3669,1.286739 h -1.7725 v -0.211873 q 0.37207,-0.465086 0.62012,-1.142045 0.25321,-0.671792 0.25321,-1.374589 0,-0.248046 -0.0362,-0.496092 -0.031,-0.242879 -0.12402,-0.470254 -0.0775,-0.201538 -0.23771,-0.346231 -0.15503,-0.144694 -0.35657,-0.144694 -0.30489,0 -0.47025,0.232543 -0.1602,0.232543 -0.29456,0.878497 -0.0879,0.423745 -0.17053,0.811317 -0.0827,0.39274 -0.22738,0.842323 -0.28938,0.883665 -0.79064,1.302242 -0.49609,0.423746 -1.29191,0.423746 z M 0.14986,0 A 0.150015,0.150015 0 0 0 0,0.1498617 V 172.67784 a 0.150015,0.150015 0 0 0 0.14986,0.14986 h 111.88516 a 0.150015,0.150015 0 0 0 0.14986,-0.14986 V 0.1498617 A 0.150015,0.150015 0 0 0 112.03502,0 Z M 0.29972,0.2997235 H 111.88516 V 172.52798 H 0.29972 Z m 3.39618,1.700155 c -0.93504,-9.7e-5 -1.69612,0.760988 -1.69602,1.6960199 -1e-4,0.935032 0.76098,1.6961168 1.69602,1.6960198 0.93503,9.7e-5 1.69611,-0.7609878 1.69602,-1.6960198 C 5.39201,2.7608665 4.63093,1.9997815 3.6959,1.9998785 Z m 104.76311,0 c -0.93503,-9.7e-5 -1.69612,0.760988 -1.69602,1.6960199 -1e-4,0.935032 0.76099,1.6961168 1.69602,1.6960198 0.93481,-2.15e-4 1.6956,-0.7612068 1.6955,-1.6960198 1e-4,-0.9348129 -0.76069,-1.6958049 -1.6955,-1.6960199 z M 3.6959,2.2996015 c 0.77288,-8e-5 1.39637,0.623418 1.39629,1.3962969 8e-5,0.772879 -0.62341,1.3963768 -1.39629,1.3962968 -0.77288,8e-5 -1.39638,-0.6234178 -1.3963,-1.3962968 -8e-5,-0.7728789 0.62342,-1.3963769 1.3963,-1.3962969 z m 104.76311,0 c 0.7727,1.78e-4 1.39586,0.623602 1.39578,1.3962969 8e-5,0.772695 -0.62308,1.3961188 -1.39578,1.3962968 -0.77288,8e-5 -1.39637,-0.6234178 -1.3963,-1.3962968 -7e-5,-0.7728789 0.62342,-1.3963769 1.3963,-1.3962969 z M 87.05463,16.133382 c -0.93481,-9.6e-5 -1.6958,0.760691 -1.69602,1.695504 -1e-4,0.935032 0.76099,1.696117 1.69602,1.696021 0.93482,-2.16e-4 1.6956,-0.761208 1.69551,-1.696021 -2.2e-4,-0.934594 -0.76091,-1.695288 -1.69551,-1.695504 z m 0,0.299724 c 0.77252,1.78e-4 1.39561,0.623269 1.39578,1.39578 9e-5,0.772695 -0.62308,1.396119 -1.39578,1.396297 -0.77288,8e-5 -1.39637,-0.623418 -1.3963,-1.396297 1.8e-4,-0.772695 0.62361,-1.39586 1.3963,-1.39578 z m -49.50034,5.15524 c -0.93481,2.18e-4 -1.69559,0.761209 -1.6955,1.696021 2.2e-4,0.934592 0.76091,1.695286 1.6955,1.695504 0.93482,9.6e-5 1.69581,-0.760691 1.69603,-1.695504 9e-5,-0.935032 -0.76099,-1.696117 -1.69603,-1.696021 z m 0,0.299724 c 0.77288,-8e-5 1.39638,0.623418 1.3963,1.396297 -1.8e-4,0.772694 -0.6236,1.39586 -1.3963,1.39578 -0.77251,-1.79e-4 -1.3956,-0.62327 -1.39578,-1.39578 -8e-5,-0.772694 0.62309,-1.396117 1.39578,-1.396297 z m 0,27.600381 c -0.93459,2.17e-4 -1.69528,0.760913 -1.6955,1.695506 -9e-5,0.93481 0.76069,1.695802 1.6955,1.696019 0.93504,9.7e-5 1.69612,-0.760987 1.69603,-1.696019 -2.2e-4,-0.934815 -0.76121,-1.695601 -1.69603,-1.695506 z m 0,0.299723 c 0.7727,-8e-5 1.39612,0.623086 1.3963,1.395783 8e-5,0.772877 -0.62342,1.396375 -1.3963,1.396296 -0.77269,-1.8e-4 -1.39586,-0.623604 -1.39578,-1.396296 1.8e-4,-0.772512 0.62327,-1.395603 1.39578,-1.395783 z M 88.3543,64.688041 c -0.93482,2.17e-4 -1.6956,0.761209 -1.69551,1.696019 -9e-5,0.934813 0.76069,1.695805 1.69551,1.696022 0.93503,9.5e-5 1.69611,-0.76099 1.69602,-1.696022 9e-5,-0.935032 -0.76099,-1.696117 -1.69602,-1.696019 z m 0,0.299723 c 0.77288,-8e-5 1.39637,0.623419 1.3963,1.396296 7e-5,0.77288 -0.62342,1.396378 -1.3963,1.396299 -0.7727,-1.8e-4 -1.39587,-0.623605 -1.39579,-1.396299 -8e-5,-0.772692 0.62309,-1.396116 1.39579,-1.396296 z M 23.56704,134.04402 c -0.93504,-9e-5 -1.69612,0.76099 -1.69603,1.69602 2.2e-4,0.93481 0.76121,1.6956 1.69603,1.69551 0.93459,-2.2e-4 1.69528,-0.76091 1.6955,-1.69551 10e-5,-0.93481 -0.76069,-1.6958 -1.6955,-1.69602 z m 71.90775,0 c -0.93503,-9e-5 -1.69611,0.76099 -1.69602,1.69602 2.2e-4,0.93481 0.76121,1.6956 1.69602,1.69551 0.93481,9e-5 1.69581,-0.7607 1.69602,-1.69551 1e-4,-0.93503 -0.76099,-1.69611 -1.69602,-1.69602 z m -71.90775,0.29972 c 0.77269,1.8e-4 1.39585,0.62361 1.39578,1.3963 -1.8e-4,0.77251 -0.62327,1.3956 -1.39578,1.39578 -0.7727,8e-5 -1.39612,-0.62309 -1.3963,-1.39578 -8e-5,-0.77288 0.62342,-1.39638 1.3963,-1.3963 z m 71.90775,0 c 0.77288,-8e-5 1.39638,0.62342 1.3963,1.3963 -1.8e-4,0.77269 -0.6236,1.39586 -1.3963,1.39578 -0.77269,8e-5 -1.39611,-0.62309 -1.39629,-1.39578 -8e-5,-0.77288 0.62341,-1.39638 1.39629,-1.3963 z m -71.90775,27.60814 c -0.93504,-10e-5 -1.69612,0.76099 -1.69603,1.69602 -9e-5,0.93503 0.76099,1.69611 1.69603,1.69602 0.93481,-2.2e-4 1.6956,-0.76121 1.6955,-1.69602 10e-5,-0.93481 -0.76069,-1.69581 -1.6955,-1.69602 z m 71.90775,0 c -0.93503,-10e-5 -1.69611,0.76099 -1.69602,1.69602 -9e-5,0.93503 0.76099,1.69611 1.69602,1.69602 0.93503,9e-5 1.69612,-0.76099 1.69602,-1.69602 1e-4,-0.93503 -0.76099,-1.69612 -1.69602,-1.69602 z m -71.90775,0.29972 c 0.77269,1.8e-4 1.39585,0.6236 1.39578,1.3963 7e-5,0.77269 -0.62309,1.39612 -1.39578,1.3963 -0.77288,8e-5 -1.39638,-0.62342 -1.3963,-1.3963 -8e-5,-0.77288 0.62342,-1.39638 1.3963,-1.3963 z m 71.90775,0 c 0.77288,-8e-5 1.39638,0.62342 1.3963,1.3963 8e-5,0.77288 -0.62342,1.39638 -1.3963,1.3963 -0.77288,8e-5 -1.39637,-0.62342 -1.39629,-1.3963 -8e-5,-0.77288 0.62341,-1.39638 1.39629,-1.3963 z M 3.6959,167.43578 c -0.93504,-1e-4 -1.69612,0.76099 -1.69602,1.69602 -1e-4,0.93503 0.76099,1.69612 1.69602,1.69602 0.93503,1e-4 1.69611,-0.76099 1.69602,-1.69602 10e-5,-0.93503 -0.76099,-1.69611 -1.69602,-1.69602 z m 104.76311,0 c -0.93503,-9e-5 -1.69612,0.76099 -1.69602,1.69602 -9e-5,0.93503 0.76099,1.69612 1.69602,1.69602 0.93481,-2.1e-4 1.6956,-0.76121 1.6955,-1.69602 1e-4,-0.93481 -0.76068,-1.6958 -1.6955,-1.69602 z M 3.6959,167.7355 c 0.77288,-8e-5 1.39637,0.62342 1.39629,1.3963 8e-5,0.77288 -0.62342,1.39638 -1.39629,1.3963 -0.77288,8e-5 -1.39638,-0.62342 -1.3963,-1.3963 -8e-5,-0.77288 0.62342,-1.39638 1.3963,-1.3963 z m 104.76311,0 c 0.7727,1.8e-4 1.39586,0.62361 1.39578,1.3963 8e-5,0.77269 -0.62308,1.39612 -1.39578,1.3963 -0.77288,8e-5 -1.39637,-0.62342 -1.3963,-1.3963 -8e-5,-0.77288 0.62342,-1.39638 1.3963,-1.3963 z" />
    <g
       id="g1445"
       transform="translate(-1.0096671,1.9562296)">
      <path
         id="path857"
         style="fill:none;stroke:#000000;stroke-width:2.79921;stroke-linejoin:round;stroke-dashoffset:3.77953;paint-order:markers stroke fill"
         d="M 26.467917,33.706917 A 11.100395,11.100395 0 0 1 15.367522,44.807312 11.100395,11.100395 0 0 1 4.267127,33.706917 11.100395,11.100395 0 0 1 15.367522,22.606521 11.100395,11.100395 0 0 1 26.467917,33.706917 Z" />
      <path
         id="rect961"
         style="fill:none;stroke:#000000;stroke-width:0.89;stroke-linecap:round;stroke-linejoin:round;stroke-dashoffset:3.77953;paint-order:markers stroke fill"
         d="m 10.520431,28.859825 h 9.614035 v 9.614036 h -9.614035 z" />
      <path
         id="path1351"
         style="fill:none;stroke:#000000;stroke-width:0.388995;stroke-linecap:round;stroke-linejoin:round;stroke-dashoffset:3.77953;paint-order:markers stroke fill"
         d="m 17.62425,31.646995 a 0.68000251,0.68000251 0 0 1 -0.680003,0.680003 0.68000251,0.68000251 0 0 1 -0.680002,-0.680003 0.68000251,0.68000251 0 0 1 0.680002,-0.680002 0.68000251,0.68000251 0 0 1 0.680003,0.680002 z" />
      <path
         id="circle1433"
         style="fill:none;stroke:#000000;stroke-width:0.388995;stroke-linecap:round;stroke-linejoin:round;stroke-dashoffset:3.77953;paint-order:markers stroke fill"
         d="m 14.05454,33.275677 a 0.68000251,0.68000251 0 0 1 -0.680003,0.680002 0.68000251,0.68000251 0 0 1 -0.680002,-0.680002 0.68000251,0.68000251 0 0 1 0.680002,-0.680003 0.68000251,0.68000251 0 0 1 0.680003,0.680003 z" />
      <path
         id="circle1435"
         style="fill:none;stroke:#000000;stroke-width:0.388995;stroke-linecap:round;stroke-linejoin:round;stroke-dashoffset:3.77953;paint-order:markers stroke fill"
         d="m 16.6872,35.952965 a 0.68000251,0.68000251 0 0 1 -0.680003,0.680002 0.68000251,0.68000251 0 0 1 -0.680002,-0.680002 0.68000251,0.68000251 0 0 1 0.680002,-0.680003 0.68000251,0.68000251 0 0 1 0.680003,0.680003 z" />
      <path
         style="fill:none;stroke:#000000;stroke-width:0.5;stroke-linecap:butt;stroke-linejoin:miter;stroke-miterlimit:4;stroke-dasharray:none;stroke-opacity:1"
         d="M 12.717098,33.220627 H 10.731445"
         id="path2127" />
      <path
         style="fill:none;stroke:#000000;stroke-width:0.5;stroke-linecap:butt;stroke-linejoin:miter;stroke-miterlimit:4;stroke-dasharray:none;stroke-opacity:1"
         d="m 17.558518,32.082784 0.647012,0.535456 1.740234,0.0223"
         id="path2129" />
      <path
         style="fill:none;stroke:#000000;stroke-width:0.5;stroke-linecap:butt;stroke-linejoin:miter;stroke-miterlimit:4;stroke-dasharray:none;stroke-opacity:1"
         d="m 13.609525,29.160083 0.04462,1.450194 -1.160156,1.182468 -1.762546,0.04462"
         id="path2133" />
      <path
         style="fill:none;stroke:#000000;stroke-width:0.5;stroke-linecap:butt;stroke-linejoin:miter;stroke-miterlimit:4;stroke-dasharray:none;stroke-opacity:1"
         d="m 15.104341,29.003907 0.0223,3.502779 1.160156,1.137846 0.803185,0.0223 1.048602,1.048605 0.08924,3.636642"
         id="path2135" />
      <path
         style="fill:none;stroke:#000000;stroke-width:0.5;stroke-linecap:butt;stroke-linejoin:miter;stroke-miterlimit:4;stroke-dasharray:none;stroke-opacity:1"
         d="m 13.899563,33.778395 1.695614,1.717924"
         id="path2330" />
      <path
         style="fill:none;stroke:#000000;stroke-width:0.8;stroke-linecap:round;stroke-linejoin:miter;stroke-miterlimit:4;stroke-dasharray:none;stroke-opacity:1"
         d="M 11.116999,28.602314 V 27.754507"
         id="path2332" />
      <path
         style="fill:none;stroke:#000000;stroke-width:0.8;stroke-linecap:round;stroke-linejoin:miter;stroke-miterlimit:4;stroke-dasharray:none;stroke-opacity:1"
         d="M 12.317097,28.602314 V 27.754507"
         id="path2447" />
      <path
         style="fill:none;stroke:#000000;stroke-width:0.8;stroke-linecap:round;stroke-linejoin:miter;stroke-miterlimit:4;stroke-dasharray:none;stroke-opacity:1"
         d="M 13.517097,28.602314 V 27.754507"
         id="path2449" />
      <path
         style="fill:none;stroke:#000000;stroke-width:0.8;stroke-linecap:round;stroke-linejoin:miter;stroke-miterlimit:4;stroke-dasharray:none;stroke-opacity:1"
         d="M 14.717097,28.602314 V 27.754507"
         id="path2451" />
      <path
         style="fill:none;stroke:#000000;stroke-width:0.8;stroke-linecap:round;stroke-linejoin:miter;stroke-miterlimit:4;stroke-dasharray:none;stroke-opacity:1"
         d="M 15.917097,28.602314 V 27.754507"
         id="path2453" />
      <path
         style="fill:none;stroke:#000000;stroke-width:0.8;stroke-linecap:round;stroke-linejoin:miter;stroke-miterlimit:4;stroke-dasharray:none;stroke-opacity:1"
         d="M 17.117097,28.602314 V 27.754507"
         id="path2457" />
      <path
         style="fill:none;stroke:#000000;stroke-width:0.8;stroke-linecap:round;stroke-linejoin:miter;stroke-miterlimit:4;stroke-dasharray:none;stroke-opacity:1"
         d="M 18.317097,28.602314 V 27.754507"
         id="path2459" />
      <path
         style="fill:none;stroke:#000000;stroke-width:0.8;stroke-linecap:round;stroke-linejoin:miter;stroke-miterlimit:4;stroke-dasharray:none;stroke-opacity:1"
         d="M 19.517097,28.602314 V 27.754507"
         id="path2461" />
      <path
         style="fill:none;stroke:#000000;stroke-width:0.8;stroke-linecap:round;stroke-linejoin:miter;stroke-miterlimit:4;stroke-dasharray:none;stroke-opacity:1"
         d="m 19.517096,38.708514 v 0.847807"
         id="path2473" />
      <path
         style="fill:none;stroke:#000000;stroke-width:0.8;stroke-linecap:round;stroke-linejoin:miter;stroke-miterlimit:4;stroke-dasharray:none;stroke-opacity:1"
         d="m 18.316998,38.708514 v 0.847807"
         id="path2475" />
      <path
         style="fill:none;stroke:#000000;stroke-width:0.8;stroke-linecap:round;stroke-linejoin:miter;stroke-miterlimit:4;stroke-dasharray:none;stroke-opacity:1"
         d="m 17.116998,38.708514 v 0.847807"
         id="path2477" />
      <path
         style="fill:none;stroke:#000000;stroke-width:0.8;stroke-linecap:round;stroke-linejoin:miter;stroke-miterlimit:4;stroke-dasharray:none;stroke-opacity:1"
         d="m 15.916998,38.708514 v 0.847807"
         id="path2479" />
      <path
         style="fill:none;stroke:#000000;stroke-width:0.8;stroke-linecap:round;stroke-linejoin:miter;stroke-miterlimit:4;stroke-dasharray:none;stroke-opacity:1"
         d="m 14.716998,38.708514 v 0.847807"
         id="path2481" />
      <path
         style="fill:none;stroke:#000000;stroke-width:0.8;stroke-linecap:round;stroke-linejoin:miter;stroke-miterlimit:4;stroke-dasharray:none;stroke-opacity:1"
         d="m 13.516998,38.708514 v 0.847807"
         id="path2483" />
      <path
         style="fill:none;stroke:#000000;stroke-width:0.8;stroke-linecap:round;stroke-linejoin:miter;stroke-miterlimit:4;stroke-dasharray:none;stroke-opacity:1"
         d="m 12.316998,38.708514 v 0.847807"
         id="path2485" />
      <path
         style="fill:none;stroke:#000000;stroke-width:0.8;stroke-linecap:round;stroke-linejoin:miter;stroke-miterlimit:4;stroke-dasharray:none;stroke-opacity:1"
         d="m 11.116998,38.708514 v 0.847807"
         id="path2487" />
      <path
         style="fill:none;stroke:#000000;stroke-width:0.8;stroke-linecap:round;stroke-linejoin:miter;stroke-miterlimit:4;stroke-dasharray:none;stroke-opacity:1"
         d="m 9.365999,38.005612 h 0.847807"
         id="path2491" />
      <path
         style="fill:none;stroke:#000000;stroke-width:0.8;stroke-linecap:round;stroke-linejoin:miter;stroke-miterlimit:4;stroke-dasharray:none;stroke-opacity:1"
         d="m 9.365999,36.805514 h 0.847807"
         id="path2493" />
      <path
         style="fill:none;stroke:#000000;stroke-width:0.8;stroke-linecap:round;stroke-linejoin:miter;stroke-miterlimit:4;stroke-dasharray:none;stroke-opacity:1"
         d="m 9.365999,35.605514 h 0.847807"
         id="path2495" />
      <path
         style="fill:none;stroke:#000000;stroke-width:0.8;stroke-linecap:round;stroke-linejoin:miter;stroke-miterlimit:4;stroke-dasharray:none;stroke-opacity:1"
         d="m 9.365999,34.405514 h 0.847807"
         id="path2497" />
      <path
         style="fill:none;stroke:#000000;stroke-width:0.8;stroke-linecap:round;stroke-linejoin:miter;stroke-miterlimit:4;stroke-dasharray:none;stroke-opacity:1"
         d="m 9.365999,33.205514 h 0.847807"
         id="path2499" />
      <path
         style="fill:none;stroke:#000000;stroke-width:0.8;stroke-linecap:round;stroke-linejoin:miter;stroke-miterlimit:4;stroke-dasharray:none;stroke-opacity:1"
         d="m 9.365999,32.005514 h 0.847807"
         id="path2501" />
      <path
         style="fill:none;stroke:#000000;stroke-width:0.8;stroke-linecap:round;stroke-linejoin:miter;stroke-miterlimit:4;stroke-dasharray:none;stroke-opacity:1"
         d="m 9.365999,30.805514 h 0.847807"
         id="path2503" />
      <path
         style="fill:none;stroke:#000000;stroke-width:0.8;stroke-linecap:round;stroke-linejoin:miter;stroke-miterlimit:4;stroke-dasharray:none;stroke-opacity:1"
         d="m 9.365999,29.605514 h 0.847807"
         id="path2505" />
      <path
         style="fill:none;stroke:#000000;stroke-width:0.8;stroke-linecap:round;stroke-linejoin:miter;stroke-miterlimit:4;stroke-dasharray:none;stroke-opacity:1"
         d="m 20.465999,38.005612 h 0.847807"
         id="path2509" />
      <path
         style="fill:none;stroke:#000000;stroke-width:0.8;stroke-linecap:round;stroke-linejoin:miter;stroke-miterlimit:4;stroke-dasharray:none;stroke-opacity:1"
         d="m 20.465999,36.805514 h 0.847807"
         id="path2511" />
      <path
         style="fill:none;stroke:#000000;stroke-width:0.8;stroke-linecap:round;stroke-linejoin:miter;stroke-miterlimit:4;stroke-dasharray:none;stroke-opacity:1"
         d="m 20.465999,35.605514 h 0.847807"
         id="path2513" />
      <path
         style="fill:none;stroke:#000000;stroke-width:0.8;stroke-linecap:round;stroke-linejoin:miter;stroke-miterlimit:4;stroke-dasharray:none;stroke-opacity:1"
         d="m 20.465999,34.405514 h 0.847807"
         id="path2515" />
      <path
         style="fill:none;stroke:#000000;stroke-width:0.8;stroke-linecap:round;stroke-linejoin:miter;stroke-miterlimit:4;stroke-dasharray:none;stroke-opacity:1"
         d="m 20.465999,33.205514 h 0.847807"
         id="path2517" />
      <path
         style="fill:none;stroke:#000000;stroke-width:0.8;stroke-linecap:round;stroke-linejoin:miter;stroke-miterlimit:4;stroke-dasharray:none;stroke-opacity:1"
         d="m 20.465999,32.005514 h 0.847807"
         id="path2519" />
      <path
         style="fill:none;stroke:#000000;stroke-width:0.8;stroke-linecap:round;stroke-linejoin:miter;stroke-miterlimit:4;stroke-dasharray:none;stroke-opacity:1"
         d="m 20.465999,30.805514 h 0.847807"
         id="path2521" />
      <path
         style="fill:none;stroke:#000000;stroke-width:0.8;stroke-linecap:round;stroke-linejoin:miter;stroke-miterlimit:4;stroke-dasharray:none;stroke-opacity:1"
         d="m 20.465999,29.605514 h 0.847807"
         id="path2523" />
    </g>
  </g>
</svg>
